<?xml version="1.0" encoding="utf-8"?>
<!-- Generator: Adobe Illustrator 27.5.0, SVG Export Plug-In . SVG Version: 6.00 Build 0)  -->
<svg version="1.1" xmlns="http://www.w3.org/2000/svg" xmlns:xlink="http://www.w3.org/1999/xlink" x="0px" y="0px"
	 viewBox="0 -50 500 500" style="enable-background:new 0 0 500 500;" xml:space="preserve">
<g id="Background_Simple">
	<g>
		<path style="fill:#135dd0;" d="M478.525,221.63c6.125-53.854-12.081-107.931-50.306-146.358
			c-18.794-18.893-44.502-36.696-78.652-45.297C253.79,5.854,191.716,27.951,160.685,86.639
			c-31.031,58.688-120.074,48.569-134.241,149.756s54.641,212.491,171.342,218.562s101.681-52.022,165.518-76.942
			C412.129,358.957,469.385,301.993,478.525,221.63z"/>
		<path style="opacity:0.7;fill:#FFFFFF;" d="M478.525,221.63c6.125-53.854-12.081-107.931-50.306-146.358
			c-18.794-18.893-44.502-36.696-78.652-45.297C253.79,5.854,191.716,27.951,160.685,86.639
			c-31.031,58.688-120.074,48.569-134.241,149.756s54.641,212.491,171.342,218.562s101.681-52.022,165.518-76.942
			C412.129,358.957,469.385,301.993,478.525,221.63z"/>
	</g>
</g>
<g id="Plants">
	<g style="opacity:0.15;">
		<path d="M393.898,408.077c2.29,0.928,7.823,0.656,7.827,0.656c0.057-0.003-1.287-3.592-1.397-3.809
			c-1.282-2.509-5.235-6.602-8.35-6.097c-2.243,0.364-3.436,2.651-2.871,4.758C389.684,405.736,391.948,407.285,393.898,408.077z"/>
		<path d="M396.236,424.062c2.357,0.28,7.26-1.284,7.649-1.411c0.854,2.745,1.952,5.493,3.217,8.212
			c0.721,1.556,1.497,3.099,2.293,4.638c-0.468-0.648-0.892-1.224-0.96-1.299c-1.9-2.081-6.793-4.985-9.663-3.675
			c-2.069,0.944-2.614,3.464-1.513,5.346c1.124,1.923,3.718,2.82,5.807,3.067c2.121,0.252,6.327-0.998,7.436-1.344
			c0.312,0.587,0.617,1.177,0.931,1.762c1.507,2.811,3.022,5.609,4.424,8.4c0.495,0.983,0.945,1.969,1.401,2.955
			c-0.416-0.576-0.772-1.056-0.834-1.124c-1.899-2.081-6.793-4.985-9.663-3.675c-2.068,0.944-2.614,3.464-1.513,5.347
			c1.125,1.923,3.718,2.819,5.807,3.067c2.024,0.24,5.917-0.878,7.236-1.283c0.435,1.023,0.873,2.047,1.249,3.058
			c0.241,0.696,0.522,1.349,0.724,2.062c0.216,0.701,0.43,1.396,0.641,2.083c0.359,1.338,0.738,2.718,1.055,4.033
			c0.228,0.913,0.428,1.787,0.632,2.667c-0.481-0.984-1.463-2.891-1.564-3.042c-1.562-2.345-5.959-5.956-8.995-5.096
			c-2.187,0.62-3.108,3.028-2.305,5.056c0.82,2.071,3.247,3.35,5.275,3.912c2.233,0.618,7.12-0.131,7.73-0.229
			c0.333,1.457,0.643,2.878,0.914,4.223c0.246,1.205,0.465,2.348,0.666,3.442l1.976-0.053c-0.245-1.195-0.512-2.451-0.814-3.782
			c-0.332-1.481-0.716-3.057-1.126-4.672c0.365-0.156,2.434-1.058,4.259-2.143c1.661,1.705,5.852,3.641,6.394,3.887
			c-0.526,1.4-1.051,2.755-1.568,4.027c-0.353,0.876-0.7,1.715-1.039,2.52l2.093-0.056c0.227-0.58,0.455-1.169,0.687-1.783
			c0.54-1.419,1.09-2.946,1.638-4.518c0.597,0.108,5.477,0.965,7.726,0.394c2.039-0.518,4.494-1.745,5.359-3.798
			c0.846-2.009-0.024-4.437-2.198-5.104c-3.016-0.925-7.49,2.592-9.101,4.903c-0.096,0.136-0.962,1.731-1.492,2.745
			c0.221-0.644,0.442-1.267,0.661-1.932c0.443-1.313,0.846-2.637,1.284-4.059c0.188-0.694,0.378-1.396,0.569-2.104
			c0.204-0.698,0.332-1.462,0.504-2.199c0.361-1.719,0.643-3.477,0.888-5.254c1.151,0.384,5.258,1.692,7.362,1.487
			c2.095-0.203,4.706-1.044,5.871-2.942c1.141-1.858,0.649-4.39-1.398-5.378c-2.842-1.371-7.796,1.428-9.74,3.468
			c-0.122,0.127-1.351,1.747-2.009,2.65c0.139-1.07,0.283-2.137,0.388-3.224c0.305-3.138,0.516-6.323,0.74-9.5
			c0.068-0.973,0.148-1.942,0.224-2.912c0.408,0.141,5.256,1.801,7.613,1.572c2.094-0.203,4.706-1.044,5.872-2.942
			c1.141-1.858,0.649-4.39-1.398-5.377c-2.842-1.371-7.796,1.427-9.739,3.467c-0.146,0.154-1.913,2.488-2.333,3.104
			c0.168-2.137,0.356-4.264,0.626-6.354c0.368-2.884,0.89-5.693,1.596-8.378c0.19,0.066,5.242,1.821,7.655,1.587
			c2.095-0.203,4.707-1.045,5.872-2.943c1.141-1.858,0.649-4.39-1.398-5.378c-2.842-1.371-7.796,1.428-9.74,3.468
			c-0.152,0.16-2.051,2.672-2.363,3.153c0.043-0.159,0.069-0.329,0.113-0.488c0.79-2.856,1.915-5.524,3.09-7.97
			c0.68-1.423,1.41-2.745,2.148-4.014c0.908,0.423,5.076,2.312,7.271,2.341c2.104,0.028,4.793-0.521,6.159-2.28
			c1.339-1.722,1.127-4.292-0.799-5.499c-2.674-1.675-7.906,0.563-10.062,2.377c-0.117,0.098-1.198,1.234-1.973,2.071
			c0.342-0.568,0.684-1.161,1.023-1.698c1.266-2.022,2.551-3.796,3.701-5.358c0.661-0.882,1.276-1.668,1.86-2.396
			c1.107-0.049,5.566-0.303,7.493-1.271c1.88-0.945,4.014-2.671,4.416-4.862c0.394-2.145-0.978-4.329-3.243-4.512
			c-3.145-0.255-6.757,4.142-7.835,6.746c-0.093,0.225-1.145,3.911-1.087,3.909c0,0,0.054-0.002,0.067-0.003
			c-0.576,0.69-1.185,1.436-1.834,2.264c-1.187,1.54-2.513,3.29-3.828,5.292c-1.32,1.998-2.698,4.205-3.939,6.661
			c-1.247,2.46-2.433,5.112-3.303,8.003c-0.01,0.032-0.016,0.068-0.026,0.101c-0.008-0.924-0.118-3.508-0.149-3.705
			c-0.436-2.783-2.915-7.906-6.033-8.397c-2.245-0.353-4.091,1.447-4.212,3.625c-0.122,2.224,1.545,4.402,3.152,5.762
			c1.811,1.533,6.763,2.933,7.158,3.044c-0.803,2.76-1.402,5.658-1.847,8.623c-0.256,1.696-0.462,3.411-0.646,5.134
			c-0.033-0.799-0.068-1.514-0.084-1.613c-0.437-2.784-2.915-7.905-6.032-8.396c-2.246-0.354-4.091,1.447-4.211,3.625
			c-0.123,2.224,1.545,4.402,3.151,5.762c1.63,1.379,5.828,2.658,6.943,2.981c-0.064,0.661-0.135,1.322-0.196,1.983
			c-0.294,3.175-0.574,6.345-0.943,9.446c-0.129,1.093-0.297,2.164-0.462,3.237c-0.03-0.709-0.061-1.307-0.075-1.397
			c-0.437-2.784-2.915-7.905-6.032-8.396c-2.246-0.353-4.092,1.447-4.212,3.626c-0.123,2.223,1.546,4.402,3.152,5.761
			c1.555,1.317,5.419,2.532,6.743,2.922c-0.201,1.094-0.401,2.189-0.645,3.24c-0.183,0.714-0.31,1.413-0.533,2.12
			c-0.207,0.704-0.411,1.401-0.614,2.091c-0.44,1.315-0.884,2.674-1.345,3.946c-0.314,0.887-0.629,1.727-0.944,2.573
			c0.141-1.086,0.374-3.219,0.374-3.399c-0.007-1.872-0.752-4.896-2.131-6.999c0.001-0.276-0.022-0.551-0.074-0.824
			c-0.403-2.143-2.468-3.688-4.648-3.045c-3.026,0.893-4.817,6.294-4.886,9.11c-0.004,0.166,0.152,1.974,0.27,3.113
			c-0.172-0.659-0.33-1.3-0.514-1.977c-0.356-1.339-0.75-2.665-1.168-4.095c-0.226-0.683-0.456-1.372-0.687-2.069
			c-0.214-0.695-0.529-1.403-0.793-2.112c-0.647-1.632-1.382-3.255-2.158-4.873c1.173-0.314,5.319-1.489,6.961-2.821
			c1.635-1.325,3.349-3.467,3.274-5.693c-0.074-2.18-1.88-4.02-4.133-3.714c-3.127,0.424-5.715,5.492-6.211,8.265
			c-0.031,0.173-0.163,2.203-0.214,3.32c-0.474-0.969-0.943-1.939-1.455-2.903c-1.476-2.786-3.057-5.559-4.623-8.332
			c-0.48-0.849-0.948-1.701-1.42-2.552c0.419-0.108,5.378-1.398,7.217-2.889c1.635-1.325,3.349-3.467,3.274-5.693
			c-0.074-2.179-1.88-4.02-4.133-3.714c-3.127,0.424-5.715,5.491-6.211,8.265c-0.037,0.209-0.223,3.13-0.234,3.875
			c-1.038-1.874-2.055-3.753-2.983-5.645c-1.283-2.609-2.398-5.24-3.29-7.868c0.195-0.05,5.377-1.374,7.261-2.9
			c1.635-1.325,3.349-3.467,3.274-5.693c-0.073-2.18-1.88-4.019-4.133-3.714c-3.126,0.424-5.715,5.491-6.21,8.265
			c-0.039,0.218-0.237,3.361-0.232,3.933c-0.053-0.156-0.125-0.312-0.176-0.469c-0.916-2.819-1.45-5.664-1.819-8.353
			c-0.218-1.561-0.338-3.066-0.423-4.533c0.99-0.148,5.509-0.872,7.356-2.059c1.771-1.138,3.71-3.079,3.88-5.299
			c0.166-2.175-1.428-4.202-3.7-4.146c-3.154,0.078-6.284,4.831-7.081,7.533c-0.043,0.147-0.319,1.69-0.503,2.816
			c-0.028-0.663-0.07-1.346-0.084-1.981c-0.059-2.385,0.034-4.573,0.131-6.51c0.064-1.102,0.145-2.096,0.23-3.025
			c0.896-0.652,4.475-3.324,5.548-5.194c1.047-1.825,1.874-4.441,1.001-6.491c-0.855-2.007-3.204-3.071-5.194-1.975
			c-2.764,1.523-3.35,7.183-2.813,9.949c0.047,0.239,1.203,3.893,1.251,3.86c0,0,0.044-0.032,0.054-0.039
			c-0.1,0.893-0.196,1.851-0.28,2.9c-0.141,1.939-0.281,4.13-0.273,6.526c0.001,2.394,0.07,4.996,0.39,7.729
			c0.317,2.74,0.79,5.607,1.66,8.497c0.01,0.033,0.024,0.066,0.035,0.098c-0.517-0.766-2.035-2.861-2.169-3.008
			c-1.899-2.081-6.793-4.985-9.663-3.675c-2.068,0.944-2.614,3.465-1.513,5.347C391.553,422.918,394.146,423.814,396.236,424.062z"
			/>
		<path d="M449.928,407.805c0.05,0.029,0.909-3.706,0.936-3.948c0.314-2.8-0.725-8.395-3.602-9.691
			c-2.072-0.934-4.328,0.316-5.018,2.385c-0.706,2.112,0.328,4.654,1.518,6.389C445.159,404.977,449.924,407.802,449.928,407.805z"
			/>
	</g>
	<g style="opacity:0.15;">
		<path d="M27.295,417.608c1.969,0.798,6.727,0.564,6.73,0.564c0.049-0.003-1.106-3.089-1.201-3.276
			c-1.102-2.157-4.502-5.677-7.18-5.243c-1.929,0.313-2.954,2.28-2.469,4.091C23.671,415.596,25.618,416.928,27.295,417.608z"/>
		<path d="M29.305,431.353c2.027,0.241,6.243-1.104,6.577-1.213c0.734,2.361,1.679,4.723,2.767,7.061
			c0.62,1.338,1.287,2.665,1.972,3.988c-0.403-0.557-0.767-1.053-0.825-1.117c-1.634-1.79-5.842-4.287-8.309-3.16
			c-1.779,0.811-2.248,2.978-1.301,4.597c0.966,1.653,3.197,2.425,4.993,2.638c1.823,0.217,5.44-0.858,6.394-1.155
			c0.268,0.505,0.53,1.012,0.8,1.515c1.295,2.417,2.598,4.823,3.804,7.223c0.425,0.845,0.813,1.693,1.205,2.541
			c-0.358-0.495-0.664-0.908-0.717-0.967c-1.633-1.789-5.841-4.287-8.309-3.16c-1.778,0.812-2.248,2.979-1.301,4.598
			c0.967,1.653,3.197,2.424,4.994,2.637c1.74,0.207,5.088-0.755,6.222-1.103c0.375,0.88,0.751,1.76,1.074,2.629
			c0.207,0.599,0.449,1.16,0.623,1.773c0.186,0.603,0.369,1.2,0.552,1.792c0.309,1.151,0.635,2.337,0.908,3.468
			c0.196,0.785,0.368,1.537,0.544,2.294c-0.414-0.846-1.258-2.486-1.345-2.616c-1.343-2.016-5.124-5.122-7.735-4.382
			c-1.881,0.533-2.673,2.604-1.982,4.348c0.705,1.781,2.792,2.881,4.536,3.363c1.92,0.531,6.123-0.112,6.647-0.197
			c0.286,1.253,0.553,2.475,0.786,3.632c0.211,1.036,0.4,2.019,0.573,2.96l1.699-0.045c-0.21-1.028-0.441-2.107-0.7-3.252
			c-0.285-1.274-0.616-2.629-0.968-4.018c0.314-0.134,2.093-0.91,3.662-1.843c1.428,1.466,5.032,3.131,5.498,3.342
			c-0.452,1.203-0.904,2.369-1.348,3.463c-0.304,0.754-0.602,1.475-0.894,2.167l1.8-0.048c0.195-0.499,0.391-1.005,0.591-1.534
			c0.465-1.22,0.937-2.533,1.409-3.885c0.513,0.093,4.71,0.83,6.644,0.339c1.753-0.446,3.864-1.501,4.608-3.266
			c0.728-1.728-0.02-3.816-1.89-4.389c-2.594-0.795-6.44,2.229-7.826,4.216c-0.082,0.117-0.827,1.488-1.283,2.361
			c0.19-0.553,0.38-1.089,0.569-1.661c0.381-1.129,0.727-2.267,1.104-3.491c0.162-0.597,0.325-1.2,0.49-1.809
			c0.176-0.601,0.286-1.257,0.433-1.891c0.311-1.478,0.553-2.99,0.764-4.518c0.99,0.33,4.521,1.455,6.331,1.279
			c1.801-0.175,4.047-0.898,5.049-2.53c0.981-1.598,0.558-3.775-1.202-4.625c-2.444-1.179-6.704,1.228-8.375,2.982
			c-0.104,0.109-1.162,1.503-1.728,2.279c0.119-0.92,0.243-1.837,0.334-2.772c0.262-2.698,0.443-5.437,0.637-8.169
			c0.059-0.837,0.127-1.67,0.193-2.504c0.351,0.121,4.519,1.548,6.546,1.352c1.801-0.174,4.047-0.898,5.049-2.53
			c0.981-1.598,0.558-3.775-1.202-4.624c-2.444-1.179-6.704,1.227-8.375,2.982c-0.126,0.132-1.645,2.139-2.006,2.669
			c0.145-1.838,0.306-3.667,0.539-5.464c0.317-2.48,0.766-4.896,1.373-7.204c0.163,0.057,4.507,1.566,6.583,1.365
			c1.801-0.175,4.047-0.898,5.049-2.53c0.981-1.598,0.558-3.775-1.202-4.624c-2.444-1.179-6.704,1.228-8.375,2.982
			c-0.131,0.138-1.764,2.298-2.032,2.711c0.037-0.137,0.059-0.283,0.097-0.42c0.68-2.456,1.646-4.75,2.657-6.853
			c0.585-1.223,1.212-2.36,1.847-3.452c0.781,0.364,4.365,1.988,6.253,2.013c1.809,0.024,4.121-0.448,5.296-1.96
			c1.151-1.481,0.969-3.691-0.687-4.728c-2.3-1.44-6.798,0.484-8.652,2.044c-0.101,0.085-1.03,1.061-1.696,1.781
			c0.294-0.489,0.588-0.998,0.88-1.46c1.089-1.739,2.194-3.264,3.183-4.607c0.568-0.759,1.097-1.434,1.6-2.061
			c0.952-0.042,4.786-0.261,6.443-1.093c1.616-0.813,3.451-2.297,3.797-4.18c0.339-1.845-0.841-3.723-2.789-3.88
			c-2.704-0.219-5.811,3.562-6.737,5.801c-0.08,0.194-0.984,3.363-0.935,3.361c0,0,0.046-0.002,0.058-0.002
			c-0.495,0.593-1.019,1.235-1.577,1.947c-1.021,1.324-2.161,2.829-3.292,4.551c-1.135,1.718-2.32,3.616-3.387,5.728
			c-1.073,2.116-2.092,4.396-2.84,6.881c-0.009,0.028-0.014,0.058-0.022,0.087c-0.007-0.795-0.101-3.017-0.128-3.186
			c-0.375-2.393-2.507-6.798-5.187-7.22c-1.931-0.304-3.518,1.245-3.621,3.117c-0.105,1.912,1.329,3.785,2.71,4.955
			c1.558,1.319,5.816,2.522,6.155,2.617c-0.69,2.373-1.205,4.865-1.588,7.415c-0.22,1.458-0.397,2.933-0.555,4.415
			c-0.028-0.687-0.059-1.301-0.072-1.387c-0.375-2.394-2.507-6.798-5.187-7.22c-1.931-0.304-3.518,1.245-3.621,3.117
			c-0.106,1.912,1.329,3.785,2.71,4.955c1.402,1.186,5.011,2.286,5.97,2.564c-0.055,0.569-0.116,1.137-0.168,1.706
			c-0.253,2.73-0.493,5.456-0.811,8.123c-0.111,0.94-0.256,1.861-0.397,2.783c-0.026-0.61-0.053-1.124-0.065-1.201
			c-0.375-2.394-2.507-6.798-5.187-7.22c-1.931-0.304-3.519,1.245-3.622,3.118c-0.106,1.912,1.329,3.785,2.71,4.954
			c1.337,1.132,4.66,2.177,5.798,2.513c-0.173,0.94-0.345,1.882-0.555,2.786c-0.158,0.614-0.266,1.215-0.459,1.823
			c-0.178,0.605-0.354,1.205-0.528,1.798c-0.378,1.131-0.76,2.3-1.156,3.393c-0.27,0.763-0.541,1.485-0.812,2.213
			c0.122-0.934,0.322-2.768,0.321-2.923c-0.006-1.609-0.647-4.21-1.833-6.018c0.001-0.238-0.019-0.474-0.063-0.709
			c-0.347-1.843-2.122-3.172-3.997-2.618c-2.602,0.768-4.142,5.412-4.202,7.834c-0.004,0.143,0.131,1.697,0.232,2.677
			c-0.148-0.567-0.283-1.118-0.442-1.7c-0.306-1.152-0.645-2.292-1.005-3.521c-0.195-0.587-0.392-1.18-0.59-1.779
			c-0.184-0.598-0.455-1.206-0.682-1.816c-0.556-1.403-1.188-2.799-1.856-4.19c1.009-0.27,4.574-1.281,5.986-2.426
			c1.406-1.139,2.88-2.982,2.816-4.895c-0.064-1.874-1.617-3.457-3.554-3.194c-2.689,0.364-4.914,4.722-5.341,7.107
			c-0.026,0.149-0.14,1.894-0.184,2.854c-0.408-0.833-0.811-1.667-1.251-2.496c-1.269-2.395-2.629-4.78-3.975-7.165
			c-0.413-0.73-0.815-1.463-1.221-2.195c0.36-0.093,4.624-1.202,6.206-2.484c1.406-1.139,2.88-2.981,2.815-4.896
			c-0.063-1.874-1.617-3.457-3.554-3.194c-2.689,0.365-4.914,4.722-5.341,7.107c-0.032,0.18-0.191,2.692-0.201,3.332
			c-0.893-1.612-1.767-3.227-2.565-4.854c-1.103-2.243-2.062-4.505-2.829-6.766c0.168-0.043,4.623-1.181,6.244-2.494
			c1.406-1.139,2.88-2.981,2.815-4.896c-0.063-1.874-1.617-3.456-3.554-3.193c-2.688,0.364-4.914,4.722-5.34,7.107
			c-0.034,0.187-0.204,2.89-0.199,3.382c-0.046-0.134-0.108-0.268-0.151-0.403c-0.788-2.424-1.247-4.871-1.564-7.183
			c-0.187-1.343-0.291-2.637-0.363-3.898c0.852-0.127,4.737-0.75,6.325-1.77c1.523-0.978,3.19-2.647,3.336-4.557
			c0.143-1.87-1.228-3.613-3.181-3.565c-2.712,0.067-5.403,4.154-6.089,6.477c-0.037,0.127-0.274,1.453-0.433,2.422
			c-0.024-0.57-0.06-1.157-0.072-1.704c-0.051-2.051,0.029-3.932,0.113-5.598c0.055-0.947,0.125-1.802,0.198-2.601
			c0.77-0.561,3.848-2.858,4.771-4.467c0.901-1.57,1.611-3.819,0.861-5.581c-0.735-1.726-2.755-2.641-4.466-1.698
			c-2.376,1.31-2.881,6.177-2.419,8.555c0.041,0.205,1.035,3.348,1.075,3.319c0,0,0.037-0.027,0.046-0.034
			c-0.086,0.768-0.168,1.592-0.241,2.494c-0.121,1.667-0.242,3.552-0.235,5.612c0.001,2.059,0.06,4.296,0.335,6.646
			c0.273,2.356,0.679,4.821,1.427,7.306c0.008,0.028,0.021,0.056,0.03,0.084c-0.445-0.659-1.749-2.46-1.865-2.587
			c-1.633-1.789-5.841-4.287-8.309-3.16c-1.778,0.812-2.248,2.979-1.301,4.598C25.279,430.37,27.508,431.14,29.305,431.353z"/>
		<path d="M75.475,417.374c0.043,0.025,0.782-3.187,0.805-3.395c0.27-2.408-0.623-7.219-3.097-8.333
			c-1.782-0.803-3.722,0.272-4.315,2.051c-0.607,1.816,0.282,4.002,1.305,5.494C71.374,414.943,75.471,417.372,75.475,417.374z"/>
	</g>
	<g style="opacity:0.15;">
		<path d="M170.089,436.139c1.337,0.542,4.567,0.383,4.57,0.383c0.033-0.002-0.751-2.097-0.816-2.224
			c-0.748-1.465-3.056-3.855-4.875-3.559c-1.31,0.213-2.006,1.548-1.676,2.778C167.629,434.773,168.951,435.677,170.089,436.139z"/>
		<path d="M171.454,445.472c1.376,0.163,4.238-0.75,4.466-0.823c0.498,1.603,1.14,3.207,1.878,4.794
			c0.421,0.908,0.874,1.81,1.339,2.708c-0.273-0.378-0.521-0.715-0.56-0.758c-1.109-1.215-3.966-2.91-5.642-2.145
			c-1.208,0.551-1.526,2.022-0.883,3.121c0.656,1.122,2.171,1.646,3.39,1.791c1.238,0.147,3.694-0.583,4.341-0.784
			c0.182,0.343,0.36,0.687,0.543,1.029c0.88,1.641,1.764,3.275,2.583,4.904c0.289,0.574,0.552,1.15,0.818,1.725
			c-0.243-0.336-0.451-0.617-0.487-0.656c-1.109-1.215-3.966-2.91-5.642-2.146c-1.207,0.551-1.526,2.022-0.883,3.121
			c0.657,1.123,2.171,1.646,3.391,1.791c1.182,0.14,3.454-0.513,4.225-0.749c0.254,0.597,0.51,1.195,0.729,1.785
			c0.141,0.406,0.305,0.788,0.423,1.204c0.126,0.41,0.251,0.815,0.374,1.216c0.21,0.781,0.431,1.587,0.616,2.355
			c0.133,0.533,0.25,1.043,0.369,1.557c-0.281-0.575-0.854-1.688-0.913-1.776c-0.912-1.369-3.479-3.477-5.251-2.975
			c-1.277,0.362-1.815,1.768-1.346,2.952c0.479,1.209,1.896,1.956,3.08,2.284c1.304,0.361,4.157-0.076,4.513-0.134
			c0.194,0.851,0.375,1.68,0.533,2.466c0.143,0.704,0.271,1.371,0.389,2.01l1.154-0.031c-0.143-0.698-0.299-1.431-0.475-2.208
			c-0.194-0.865-0.418-1.785-0.658-2.728c0.213-0.091,1.421-0.618,2.487-1.251c0.97,0.996,3.416,2.126,3.733,2.269
			c-0.307,0.817-0.614,1.608-0.915,2.351c-0.206,0.512-0.409,1.001-0.607,1.472l1.222-0.033c0.132-0.339,0.266-0.682,0.401-1.041
			c0.316-0.828,0.636-1.72,0.957-2.638c0.348,0.063,3.198,0.563,4.511,0.23c1.191-0.303,2.624-1.019,3.128-2.218
			c0.494-1.173-0.014-2.591-1.283-2.98c-1.761-0.54-4.373,1.513-5.313,2.862c-0.056,0.079-0.562,1.01-0.871,1.603
			c0.129-0.376,0.258-0.739,0.386-1.128c0.259-0.767,0.494-1.539,0.75-2.37c0.11-0.405,0.22-0.815,0.332-1.228
			c0.119-0.408,0.194-0.854,0.294-1.284c0.211-1.003,0.376-2.03,0.519-3.068c0.672,0.224,3.07,0.988,4.298,0.868
			c1.223-0.119,2.747-0.609,3.428-1.718c0.666-1.085,0.379-2.563-0.816-3.14c-1.659-0.8-4.552,0.834-5.686,2.025
			c-0.071,0.074-0.789,1.02-1.173,1.547c0.081-0.625,0.165-1.247,0.227-1.882c0.178-1.832,0.301-3.691,0.432-5.546
			c0.04-0.568,0.086-1.134,0.131-1.7c0.238,0.082,3.068,1.051,4.445,0.918c1.223-0.118,2.748-0.609,3.428-1.718
			c0.666-1.085,0.379-2.563-0.816-3.139c-1.659-0.8-4.551,0.833-5.686,2.024c-0.085,0.09-1.117,1.453-1.362,1.812
			c0.098-1.248,0.208-2.49,0.366-3.71c0.215-1.684,0.52-3.324,0.932-4.891c0.111,0.039,3.06,1.063,4.469,0.926
			c1.223-0.119,2.748-0.61,3.428-1.718c0.666-1.085,0.379-2.563-0.816-3.14c-1.659-0.8-4.551,0.834-5.686,2.024
			c-0.089,0.094-1.198,1.56-1.38,1.841c0.025-0.093,0.04-0.192,0.066-0.285c0.462-1.668,1.118-3.225,1.804-4.653
			c0.397-0.831,0.823-1.602,1.254-2.344c0.53,0.247,2.963,1.35,4.245,1.367c1.228,0.016,2.798-0.304,3.596-1.331
			c0.782-1.005,0.658-2.506-0.466-3.21c-1.561-0.978-4.616,0.329-5.874,1.388c-0.068,0.057-0.699,0.72-1.152,1.209
			c0.2-0.332,0.4-0.678,0.597-0.991c0.739-1.181,1.489-2.216,2.161-3.128c0.386-0.515,0.745-0.974,1.086-1.399
			c0.646-0.029,3.25-0.177,4.375-0.742c1.097-0.552,2.343-1.559,2.578-2.838c0.23-1.252-0.571-2.527-1.894-2.634
			c-1.836-0.149-3.945,2.418-4.574,3.938c-0.054,0.132-0.668,2.283-0.634,2.282c0,0,0.031-0.001,0.039-0.001
			c-0.336,0.403-0.692,0.838-1.071,1.322c-0.693,0.899-1.467,1.921-2.235,3.09c-0.771,1.166-1.575,2.455-2.3,3.889
			c-0.728,1.436-1.421,2.984-1.928,4.672c-0.006,0.019-0.009,0.04-0.015,0.059c-0.005-0.54-0.069-2.048-0.087-2.163
			c-0.255-1.625-1.702-4.615-3.522-4.902c-1.311-0.206-2.388,0.845-2.459,2.117c-0.071,1.298,0.902,2.57,1.84,3.364
			c1.057,0.895,3.949,1.712,4.179,1.777c-0.469,1.611-0.818,3.303-1.078,5.034c-0.15,0.99-0.269,1.991-0.377,2.997
			c-0.019-0.467-0.04-0.884-0.049-0.941c-0.255-1.625-1.702-4.615-3.522-4.902c-1.311-0.207-2.389,0.845-2.459,2.116
			c-0.072,1.298,0.902,2.57,1.84,3.364c0.952,0.805,3.402,1.552,4.054,1.741c-0.037,0.386-0.079,0.772-0.114,1.158
			c-0.172,1.854-0.335,3.704-0.551,5.515c-0.076,0.638-0.174,1.264-0.27,1.889c-0.017-0.414-0.036-0.763-0.044-0.816
			c-0.255-1.625-1.702-4.615-3.521-4.902c-1.311-0.206-2.389,0.845-2.459,2.117c-0.072,1.298,0.902,2.57,1.84,3.364
			c0.908,0.769,3.164,1.478,3.937,1.706c-0.117,0.639-0.234,1.278-0.377,1.891c-0.107,0.417-0.181,0.825-0.311,1.237
			c-0.121,0.411-0.24,0.818-0.358,1.221c-0.257,0.768-0.516,1.561-0.785,2.304c-0.183,0.518-0.367,1.008-0.551,1.502
			c0.083-0.634,0.219-1.879,0.218-1.984c-0.004-1.093-0.439-2.858-1.244-4.086c0.001-0.161-0.013-0.322-0.043-0.481
			c-0.235-1.251-1.441-2.153-2.714-1.778c-1.767,0.521-2.812,3.675-2.853,5.319c-0.003,0.097,0.089,1.152,0.158,1.817
			c-0.1-0.385-0.192-0.759-0.3-1.154c-0.208-0.782-0.438-1.556-0.682-2.391c-0.132-0.398-0.266-0.801-0.401-1.208
			c-0.125-0.406-0.309-0.819-0.463-1.233c-0.378-0.953-0.807-1.9-1.26-2.845c0.685-0.183,3.105-0.87,4.064-1.647
			c0.955-0.773,1.955-2.024,1.912-3.324c-0.043-1.273-1.098-2.347-2.413-2.169c-1.825,0.247-3.337,3.206-3.626,4.825
			c-0.018,0.101-0.095,1.286-0.125,1.938c-0.277-0.566-0.55-1.132-0.849-1.695c-0.862-1.626-1.785-3.245-2.699-4.865
			c-0.28-0.496-0.553-0.993-0.829-1.49c0.245-0.063,3.139-0.816,4.214-1.687c0.954-0.773,1.955-2.024,1.911-3.324
			c-0.043-1.272-1.098-2.347-2.413-2.168c-1.825,0.247-3.336,3.206-3.626,4.825c-0.021,0.122-0.13,1.828-0.136,2.263
			c-0.606-1.094-1.2-2.191-1.742-3.296c-0.749-1.523-1.4-3.059-1.921-4.594c0.114-0.029,3.139-0.802,4.239-1.693
			c0.954-0.774,1.955-2.024,1.911-3.324c-0.043-1.272-1.098-2.347-2.413-2.168c-1.825,0.247-3.336,3.206-3.626,4.825
			c-0.023,0.127-0.138,1.962-0.135,2.296c-0.031-0.091-0.073-0.182-0.103-0.274c-0.535-1.646-0.847-3.307-1.062-4.876
			c-0.127-0.912-0.197-1.79-0.247-2.646c0.578-0.086,3.216-0.509,4.295-1.202c1.034-0.664,2.166-1.797,2.265-3.094
			c0.097-1.27-0.834-2.453-2.16-2.421c-1.841,0.046-3.669,2.82-4.134,4.398c-0.025,0.086-0.186,0.987-0.294,1.644
			c-0.016-0.387-0.041-0.786-0.049-1.157c-0.034-1.392,0.02-2.67,0.077-3.801c0.038-0.643,0.085-1.224,0.134-1.766
			c0.523-0.381,2.613-1.941,3.239-3.033c0.611-1.066,1.094-2.593,0.584-3.789c-0.499-1.172-1.87-1.793-3.032-1.153
			c-1.613,0.889-1.956,4.194-1.643,5.808c0.028,0.139,0.702,2.273,0.73,2.254c0,0,0.025-0.019,0.031-0.023
			c-0.058,0.521-0.114,1.081-0.163,1.693c-0.082,1.132-0.164,2.411-0.16,3.81c0.001,1.398,0.041,2.917,0.228,4.513
			c0.185,1.599,0.461,3.273,0.969,4.96c0.006,0.019,0.014,0.038,0.02,0.057c-0.302-0.448-1.188-1.67-1.266-1.756
			c-1.109-1.215-3.966-2.91-5.642-2.146c-1.207,0.551-1.526,2.023-0.883,3.122C168.72,444.804,170.234,445.327,171.454,445.472z"/>
		<path d="M202.8,435.98c0.029,0.017,0.531-2.164,0.547-2.305c0.183-1.635-0.423-4.901-2.103-5.658
			c-1.21-0.545-2.527,0.184-2.93,1.392c-0.412,1.233,0.191,2.717,0.886,3.73C200.016,434.33,202.798,435.979,202.8,435.98z"/>
	</g>
</g>
<g id="Character_3">
	<g>
		<g>
			<path style="fill:#FFFFFF;stroke:#263238;stroke-linecap:round;stroke-linejoin:round;stroke-miterlimit:10;" d="
				M407.861,278.936l-0.511-3.066h-31.163h-2.052h-28.097l-0.511,3.066c0,0-3.832,31.426-1.022,51.866
				c2.81,20.44,6.898,36.792,6.898,38.069c0,1.277,2.363,23.002,5.366,37.047c1.301,6.084,6.132,47.267,6.132,47.267
				s-2.811,9.198-6.387,13.541c-3.577,4.343-5.877,6.898-4.088,7.92s21.462,0,21.462,0s1.022-2.044,1.022-7.154
				c0-5.11-1.278-12.519-1.278-16.607c0-4.088,2.044-77.416,2.044-77.416l0.511-62.852v-2.366l1.014,2.366l0.511,62.852
				c0,0,2.044,73.328,2.044,77.416c0,4.088-1.277,11.497-1.277,16.607c0,5.11,1.022,7.154,1.022,7.154s19.673,1.022,21.462,0
				c1.789-1.022-0.511-3.577-4.088-7.92c-3.577-4.344-6.387-13.541-6.387-13.541s5.049-41.14,6.132-47.267
				c2.813-15.915,5.365-35.77,5.365-37.047c0-1.277,4.088-17.629,6.898-38.069C411.694,310.362,407.861,278.936,407.861,278.936z"/>
			<path style="fill:#135dd0;stroke:#263238;stroke-linecap:round;stroke-linejoin:round;stroke-miterlimit:10;" d="M407.35,275.87
				h-31.163h-2.052h-28.097l-0.511,3.066c0,0-3.833,31.426-1.022,51.866c2.81,20.44,6.898,36.792,6.898,38.069
				c0,1.277,2.363,23.002,5.365,37.047c0.61,2.856,1.999,13.443,3.3,23.875h14.072c0.605-22.972,1.535-56.323,1.535-56.323
				l0.511-62.852v-2.366l1.014,2.366l0.511,62.852c0,0,0.93,33.351,1.535,56.323h14.16c1.323-10.422,2.704-21.001,3.211-23.875
				c2.813-15.915,5.365-35.77,5.365-37.047c0-1.278,4.088-17.629,6.898-38.069c2.81-20.44-1.022-51.866-1.022-51.866L407.35,275.87z
				"/>
			<path style="fill:#263238;stroke:#263238;stroke-linecap:round;stroke-linejoin:round;stroke-miterlimit:10;" d="M374.91,467.493
				c0-2.416-0.286-5.345-0.587-8.195l-3.465,7.429h-14.344c-3.577,4.343-5.876,6.898-4.088,7.92c1.789,1.022,21.462,0,21.462,0
				S374.91,472.603,374.91,467.493z"/>
			<path style="fill:#263238;stroke:#263238;stroke-linecap:round;stroke-linejoin:round;stroke-miterlimit:10;" d="
				M378.552,467.493c0-2.416,0.286-5.345,0.587-8.195l3.465,7.429h14.344c3.577,4.343,5.876,6.898,4.088,7.92
				c-1.789,1.022-21.462,0-21.462,0S378.552,472.603,378.552,467.493z"/>
		</g>
		<g>
			<path style="fill:#263238;stroke:#263238;stroke-linecap:round;stroke-linejoin:round;stroke-miterlimit:10;" d="
				M375.388,125.341c0,0-19.182,12.323-19.441,15.544c-0.259,3.221,4.218,10.245,4.218,10.245l-6.854,22.501
				c0,0,12.087,4.215,19.667,6.266c7.579,2.051,16.898,2.621,20.878,2.401c3.98-0.22,16.508-3.714,16.508-3.714
				s-5.03-18.055-5.559-20.439c-0.528-2.384-0.02-17.651-0.747-22.032c-0.728-4.381-11.012-8.631-12.564-9.476
				C389.94,125.792,381.59,119.897,375.388,125.341z"/>
			<g>
				<polygon style="fill:#BABABA;stroke:#263238;stroke-linecap:round;stroke-linejoin:round;stroke-miterlimit:10;" points="
					367.216,171.393 367.037,187.908 360.036,190.062 360.036,279.462 396.657,279.462 393.605,189.344 386.604,187.011 
					386.066,171.572 				"/>
				<polygon style="fill:#FFFFFF;stroke:#263238;stroke-linecap:round;stroke-linejoin:round;stroke-miterlimit:10;" points="
					367.216,171.393 367.037,187.908 363.857,188.887 375.474,208.194 390.892,188.44 386.604,187.011 386.066,171.572 				"/>
				<polygon style="fill:#263238;stroke:#263238;stroke-linecap:round;stroke-linejoin:round;stroke-miterlimit:10;" points="
					386.134,173.53 373.493,174.158 371.179,182.093 384.335,188.753 390.892,188.44 386.604,187.011 				"/>
			</g>
			<g>
				<path style="fill:#FFFFFF;stroke:#263238;stroke-linecap:round;stroke-linejoin:round;stroke-miterlimit:10;" d="
					M385.124,136.391l-21.866,12.107c0,0-2.084,16.941-1.319,18.624c0.765,1.683,7.509,14.112,9.24,14.972
					c1.732,0.86,5.296,1.327,6.398,1.055c1.103-0.271,13.762-9.878,13.762-9.878l1.814-6.878c0,0,2.655,0.574,4.432-3.605
					c1.777-4.179,0.49-6.084-0.212-6.32c-0.701-0.237-2.727,0.321-6.748-3.425C386.607,149.297,383.705,140.599,385.124,136.391z"/>
				<path style="fill:none;stroke:#263238;stroke-linecap:round;stroke-linejoin:round;stroke-miterlimit:10;" d="M365.247,150.639
					c0,0,2.141-1.989,4.445,0.718l2.145,4.675l-3.075,9.118l3.879,1.033"/>
				<path style="fill:none;stroke:#263238;stroke-linecap:round;stroke-linejoin:round;stroke-miterlimit:10;" d="M375.848,150.952
					c0,0,4.052-1.115,6.549,1.428"/>
				<path style="fill:#263238;" d="M368.287,155.386c-0.087,1.087-0.719,1.923-1.411,1.868c-0.692-0.056-1.182-0.982-1.094-2.069
					c0.087-1.087,0.719-1.923,1.411-1.867S368.374,154.299,368.287,155.386z"/>
				<path style="fill:#263238;" d="M379.56,156.294c-0.087,1.087-0.719,1.923-1.411,1.867c-0.692-0.056-1.182-0.982-1.094-2.069
					c0.087-1.087,0.719-1.923,1.411-1.867C379.158,154.28,379.647,155.207,379.56,156.294z"/>
				
					<line style="fill:none;stroke:#263238;stroke-linecap:round;stroke-linejoin:round;stroke-miterlimit:10;" x1="369.611" y1="170.261" x2="373.697" y2="170.95"/>
			</g>
		</g>
		<g>
			<path style="fill:#FFFFFF;stroke:#263238;stroke-linecap:round;stroke-linejoin:round;stroke-miterlimit:10;" d="
				M342.263,195.268l-5.238,61.56l-7.762,44.098c0,0-2.808,12.717-2.643,13.213c0.165,0.496,0.991,10.075,0.991,10.075
				s-0.991,8.258-0.33,9.084c0.661,0.826,2.808,3.634,3.634,4.129c0.826,0.495,1.817,0.495,1.652-0.826
				c-0.165-1.321-1.156-4.129-1.652-5.285c-0.496-1.156,0.661-6.606,0.661-7.597s0.661-3.634,0.661-3.634l1.652,6.276
				c0,0-0.661,4.955,0.826,4.79c1.486-0.165,1.486-1.817,1.817-2.973c0.33-1.156,0.33-8.754,0.33-9.414
				c0-0.661-3.634-11.727-3.634-11.727l9.579-23.122l11.231-27.912l-0.826-19.654L342.263,195.268z"/>
			<polygon style="fill:#263238;stroke:#263238;stroke-linecap:round;stroke-linejoin:round;stroke-miterlimit:10;" points="
				347.692,271.772 354.037,256.002 353.211,236.348 342.263,195.268 337.025,256.828 335.431,265.887 			"/>
		</g>
		<path style="fill:#263238;stroke:#263238;stroke-linecap:round;stroke-linejoin:round;stroke-miterlimit:10;" d="M367.037,187.908
			l-1.795,99.812c0,0-3.411,0.538-10.053,0.538c-6.642,0-12.207-1.616-12.207-1.616s7.001-35.185,7.36-37.34
			c0.359-2.154-8.078-54.035-8.078-54.035S366.139,187.549,367.037,187.908z"/>
		<path style="fill:#263238;stroke:#263238;stroke-linecap:round;stroke-linejoin:round;stroke-miterlimit:10;" d="M386.784,187.382
			l1.795,100.335c0,0,3.411,0.541,10.053,0.541c6.642,0,12.207-1.624,12.207-1.624s-7.001-35.37-7.36-37.536
			s8.078-54.318,8.078-54.318S387.681,187.021,386.784,187.382z"/>
		<path style="fill:#263238;stroke:#263238;stroke-linecap:round;stroke-linejoin:round;stroke-miterlimit:10;" d="M411.557,194.781
			c0,0,15.811,59.405,15.811,62.048c0,2.642-3.468,2.477-6.937,1.652c-3.468-0.826-12.883-15.36-12.883-15.36l-1.817-11.396
			L411.557,194.781z"/>
		<g>
			<path style="fill:#263238;stroke:#263238;stroke-linecap:round;stroke-linejoin:round;stroke-miterlimit:10;" d="
				M418.738,241.404l-41.828-17.413c0,0-1.257-5.026-1.616-5.745c-0.359-0.718-2.693-3.77-3.59-5.385
				c-0.898-1.616-2.334-3.231-3.231-1.975c-0.898,1.257,0.718,2.334,0.898,3.052c0.18,0.718,1.257,5.565,1.257,5.565l-10.736-7.716
				c-0.434-0.312-1.031-0.264-1.409,0.115c-0.43,0.43-0.426,1.127,0.008,1.552l7.649,7.486l-11.655-6.161
				c-0.493-0.26-1.103-0.049-1.33,0.46c-0.177,0.398-0.065,0.864,0.273,1.139l8.942,7.255l-7.486-3.502
				c-0.585-0.274-1.275,0.055-1.43,0.683c-0.084,0.341,0.012,0.701,0.254,0.955l4.581,3.555c0,0,0.224,0.257,0.57,0.65l-3.145-1.769
				c-0.517-0.291-1.163,0.04-1.228,0.63c-0.035,0.318,0.116,0.627,0.388,0.795l8.802,5.439c0.539,0.18,10.185,2.08,10.185,2.08
				s30.697,21.363,34.108,23.337c3.411,1.975,18.67,9.155,19.926,6.642c0.628-1.257-0.494-6.373-1.773-11.175"/>
			<path style="fill:#FFFFFF;stroke:#263238;stroke-linecap:round;stroke-linejoin:round;stroke-miterlimit:10;" d="
				M411.172,238.255l-34.262-14.264c0,0-1.257-5.026-1.616-5.745c-0.359-0.718-2.693-3.77-3.59-5.385
				c-0.898-1.616-2.334-3.231-3.231-1.975c-0.898,1.257,0.718,2.334,0.898,3.052c0.18,0.718,1.257,5.565,1.257,5.565l-10.736-7.716
				c-0.434-0.312-1.031-0.264-1.409,0.115c-0.43,0.43-0.426,1.127,0.008,1.552l7.649,7.486l-11.655-6.161
				c-0.493-0.26-1.103-0.049-1.33,0.46c-0.177,0.398-0.065,0.864,0.273,1.139l8.942,7.255l-7.486-3.502
				c-0.585-0.274-1.275,0.055-1.43,0.683c-0.084,0.341,0.012,0.701,0.254,0.955l4.581,3.555c0,0,0.224,0.257,0.57,0.65l-3.145-1.769
				c-0.517-0.291-1.163,0.041-1.228,0.63c-0.035,0.318,0.116,0.627,0.388,0.795l8.802,5.439c0.539,0.18,10.185,2.08,10.185,2.08
				s25.657,17.854,32.657,22.421L411.172,238.255z"/>
		</g>
	</g>
</g>
<g id="Speech_Bubble_3">
	<g>
		<g>
			<g>
				<polygon style="fill:#263238;" points="423.378,42.989 343.07,42.989 343.07,92.459 373.105,92.459 382.26,104.666 
					390.398,92.459 423.378,92.459 				"/>
				<polygon style="fill:#FFFFFF;" points="419.679,39.29 339.371,39.29 339.371,88.76 369.406,88.76 378.561,100.967 
					386.699,88.76 419.679,88.76 				"/>
				<polygon style="fill:#C7C7C7;" points="419.679,56.389 339.371,85.218 339.371,88.76 369.406,88.76 378.561,100.967 
					386.699,88.76 419.679,88.76 				"/>
			</g>
			<polygon style="fill:none;stroke:#263238;stroke-linecap:round;stroke-linejoin:round;stroke-miterlimit:10;" points="
				419.679,39.29 339.371,39.29 339.371,88.76 369.406,88.76 378.561,100.967 386.699,88.76 419.679,88.76 			"/>
		</g>
		<g>
			<circle style="fill:#263238;" cx="365.345" cy="62.886" r="3.083"/>
			<circle style="fill:#263238;" cx="379.525" cy="62.886" r="3.083"/>
			<circle style="fill:#263238;" cx="393.705" cy="62.886" r="3.083"/>
		</g>
	</g>
</g>
<g id="Character_2">
	<g>
		<g>
			<path style="fill:#135dd0;stroke:#263238;stroke-linecap:round;stroke-linejoin:round;stroke-miterlimit:10;" d="
				M222.304,450.397l-2.84,9.087c0,0-10.507,7.667-10.223,9.371c0.284,1.704,0,6.247,0,6.247h35.779c0,0,0.284-4.827,0.284-7.383
				c0-2.556,0-5.111-0.284-6.531c-0.284-1.42-0.852-4.259-0.852-4.259L222.304,450.397z"/>
			<path style="fill:#FFFFFF;stroke:#263238;stroke-linecap:round;stroke-linejoin:round;stroke-miterlimit:10;" d="
				M245.021,475.101c0,0,0.134-2.285,0.218-4.543h-35.877c0.039,1.995-0.12,4.543-0.12,4.543H245.021z"/>
		</g>
		<g>
			<path style="fill:#135dd0;stroke:#263238;stroke-linecap:round;stroke-linejoin:round;stroke-miterlimit:10;" d="
				M285.343,450.397l2.84,9.087c0,0,10.507,7.667,10.223,9.371c-0.284,1.704,0,6.247,0,6.247h-35.779c0,0-0.284-4.827-0.284-7.383
				c0-2.556,0-5.111,0.284-6.531c0.284-1.42,0.852-4.259,0.852-4.259L285.343,450.397z"/>
			<path style="fill:#FFFFFF;stroke:#263238;stroke-linecap:round;stroke-linejoin:round;stroke-miterlimit:10;" d="
				M262.626,475.101c0,0-0.134-2.285-0.218-4.543h35.877c-0.039,1.995,0.12,4.543,0.12,4.543H262.626z"/>
		</g>
		<path style="fill:#263238;stroke:#263238;stroke-linecap:round;stroke-linejoin:round;stroke-miterlimit:10;" d="M287.615,393.604
			c2.272-17.889,4.827-117.276,4.827-117.276l-37.483-3.408v0.359l-2.272-0.359l-37.483,3.408c0,0,2.556,99.386,4.827,117.276
			c2.272,17.89,1.988,50.545,1.988,50.545l-2.272,4.259l1.42,5.111l23.001,3.408c0,0,2.272-11.074,2.84-15.334
			c0.568-4.259-0.568-13.346-0.852-15.05c-0.259-1.556,5.401-97.124,6.385-113.689l2.417-3.492v1.041
			c0,0,6.815,114.436,6.531,116.14c-0.284,1.704-1.42,10.79-0.852,15.05c0.568,4.259,2.84,15.334,2.84,15.334l23.001-3.408
			l1.42-5.111l-2.272-4.259C285.627,444.15,285.343,411.494,287.615,393.604z"/>
		<g>
			<path style="fill:#BABABA;stroke:#263238;stroke-linecap:round;stroke-linejoin:round;stroke-miterlimit:10;" d="
				M238.456,154.958l-0.177,16.961l-13.427,5.654l7.597,100.351h41.695l4.063-100.881c0,0-12.367-4.417-12.897-4.417
				s-1.237-20.141-1.237-20.141L238.456,154.958z"/>
			<path style="fill:#FFFFFF;stroke:#263238;stroke-linecap:round;stroke-linejoin:round;stroke-miterlimit:10;" d="
				M265.311,172.626c-0.53,0-1.237-20.141-1.237-20.141l-25.618,2.473l-0.177,16.961l-3.302,1.39
				c3.057,4.122,14.552,19.208,18.672,18.751c3.59-0.399,10.582-12.705,13.822-18.77C266.28,172.891,265.44,172.626,265.311,172.626
				z"/>
			<polygon style="fill:#263238;stroke:#263238;stroke-linecap:round;stroke-linejoin:round;stroke-miterlimit:10;" points="
				242.561,154.562 238.456,154.958 238.28,171.919 234.978,173.309 255.947,166.265 			"/>
		</g>
		<g>
			<path style="fill:#263238;stroke:#263238;stroke-linecap:round;stroke-linejoin:round;stroke-miterlimit:10;" d="
				M240.753,113.263c0,0-3.533-0.177-4.24,0.707c-0.707,0.883-8.48,13.074-7.95,15.194c0.53,2.12,3.18,7.067,3.18,7.067l2.12,7.597
				l1.59-12.72l8.657-8.48l19.434,5.83l1.943,10.247l1.413,0.353c0,0,0.707-4.417,0.883-5.124
				c0.177-0.707,3.357-12.014,2.473-14.487c-0.883-2.473-20.494-10.777-23.851-10.424
				C243.05,109.377,240.753,113.263,240.753,113.263z"/>
			<path style="fill:#FFFFFF;stroke:#263238;stroke-linecap:round;stroke-linejoin:round;stroke-miterlimit:10;" d="
				M233.863,141.354c0,0-3.18-5.83-4.064,0.177c-0.883,6.007,5.124,8.657,5.124,8.657L233.863,141.354z"/>
			<path style="fill:#FFFFFF;stroke:#263238;stroke-linecap:round;stroke-linejoin:round;stroke-miterlimit:10;" d="
				M265.487,138.704c0,0,3.003-3.18,3.887,0.707c0.883,3.887-3.004,8.657-3.004,8.657L265.487,138.704z"/>
			<path style="fill:#FFFFFF;stroke:#263238;stroke-linecap:round;stroke-linejoin:round;stroke-miterlimit:10;" d="
				M233.156,132.167c0,0,2.297,20.141,2.65,21.731c0.353,1.59,12.721,12.014,13.427,12.544c0.707,0.53,4.947,1.237,6.714-0.177
				c1.767-1.413,10.07-13.427,10.424-14.487c0.353-1.06-1.237-25.794-1.237-25.794l-9.894-4.417c0,0,2.297,2.827,0.53,3.003
				c-1.767,0.177-11.837-5.653-11.837-5.653L233.156,132.167z"/>
			<path style="fill:none;stroke:#263238;stroke-linecap:round;stroke-linejoin:round;stroke-miterlimit:10;" d="M246.937,130.401
				c0,0-4.593-2.12-7.774,1.59"/>
			<path style="fill:none;stroke:#263238;stroke-linecap:round;stroke-linejoin:round;stroke-miterlimit:10;" d="M253.12,130.754
				c0,0,3.71-3.534,7.597,0.177"/>
			<path style="fill:none;stroke:#263238;stroke-linecap:round;stroke-linejoin:round;stroke-miterlimit:10;" d="M252.944,132.697
				c0,0,0.353,7.067,0.53,7.95c0.177,0.883,2.12,1.59,0.707,3.18c-1.413,1.59-4.063,2.297-5.124,0.707"/>
			<path style="fill:none;stroke:#263238;stroke-linecap:round;stroke-linejoin:round;stroke-miterlimit:10;" d="M243.933,147.891
				c0,0,3.71,3.887,7.774,3.357c4.064-0.53,6.89-4.417,6.89-4.417"/>
			<ellipse style="fill:#263238;" cx="243.403" cy="136.584" rx="1.237" ry="1.943"/>
			<ellipse style="fill:#263238;" cx="258.067" cy="136.584" rx="1.237" ry="1.943"/>
		</g>
		<g>
			<path style="fill:#135dd0;stroke:#263238;stroke-linecap:round;stroke-linejoin:round;stroke-miterlimit:10;" d="M238.28,171.919
				c0,0,1.413,130.738,1.413,131.268c0,0.53,0,1.943-1.943,2.297c-1.943,0.353-31.448-16.961-31.448-18.021
				s4.064-26.501,4.064-26.501l-20.141-15.194c0,0,16.784-61.836,17.844-62.189C209.129,183.226,238.28,171.919,238.28,171.919z"/>
			<path style="fill:none;stroke:#263238;stroke-linecap:round;stroke-linejoin:round;stroke-miterlimit:10;" d="M194.825,241.612
				c0,0,5.559-1.962,7.848-2.289c2.289-0.327,9.81,6.867,9.81,6.867"/>
			<path style="fill:none;stroke:#263238;stroke-linecap:round;stroke-linejoin:round;stroke-miterlimit:10;" d="M202.672,235.072
				c0,0,6.213,0.654,9.156,4.905"/>
			<polygon style="fill:#FFFFFF;stroke:#263238;stroke-linecap:round;stroke-linejoin:round;stroke-miterlimit:10;" points="
				217.256,263.966 221.672,266.086 216.372,278.1 213.369,274.213 			"/>
			<path style="fill:#135dd0;stroke:#263238;stroke-linecap:round;stroke-linejoin:round;stroke-miterlimit:10;" d="
				M192.345,239.762c0,0-6.007,15.37-5.83,16.077c0.177,0.707,25.088,22.968,26.324,22.438c1.237-0.53,6.714-15.017,6.89-15.724
				c0.177-0.707-12.367-18.551-12.367-18.551"/>
			
				<line style="fill:none;stroke:#263238;stroke-linecap:round;stroke-linejoin:round;stroke-miterlimit:10;" x1="213.546" y1="252.482" x2="214.959" y2="209.727"/>
			<polygon style="fill:#135dd0;stroke:#263238;stroke-linecap:round;stroke-linejoin:round;stroke-miterlimit:10;" points="
				224.146,261.139 213.546,284.46 216.726,286.933 227.149,262.552 			"/>
			<path style="fill:#135dd0;stroke:#263238;stroke-linecap:round;stroke-linejoin:round;stroke-miterlimit:10;" d="
				M206.535,285.608c-0.146,1.025-0.233,1.702-0.233,1.855c0,1.06,29.505,18.374,31.448,18.021c1.119-0.203,1.584-0.758,1.786-1.293
				L206.535,285.608z"/>
			<path style="fill:#FFFFFF;stroke:#263238;stroke-linecap:round;stroke-linejoin:round;stroke-miterlimit:10;" d="M238.28,171.919
				l0.353,64.839c0,0-10.777-46.465-12.19-48.939c-1.413-2.473-9.01-7.95-8.304-9.187
				C218.846,177.396,236.866,168.739,238.28,171.919z"/>
		</g>
		<g>
			<path style="fill:#135dd0;stroke:#263238;stroke-linecap:round;stroke-linejoin:round;stroke-miterlimit:10;" d="
				M265.484,171.919c0,0-1.413,130.738-1.413,131.268c0,0.53,0,1.943,1.944,2.297c1.943,0.353,31.448-16.961,31.448-18.021
				s-4.063-26.501-4.063-26.501l20.141-15.194c0,0-16.784-61.836-17.844-62.189C294.635,183.226,265.484,171.919,265.484,171.919z"
				/>
			<path style="fill:none;stroke:#263238;stroke-linecap:round;stroke-linejoin:round;stroke-miterlimit:10;" d="M309.597,236.707
				c0,0-6.867,0-9.483,1.308c-2.616,1.308-7.848,5.559-7.848,5.559"/>
			<path style="fill:none;stroke:#263238;stroke-linecap:round;stroke-linejoin:round;stroke-miterlimit:10;" d="M291.94,239.323
				c0,0,7.194-5.886,9.156-6.867h4.578"/>
			<polygon style="fill:#FFFFFF;stroke:#263238;stroke-linecap:round;stroke-linejoin:round;stroke-miterlimit:10;" points="
				286.508,263.966 282.091,266.086 287.391,278.1 290.395,274.213 			"/>
			<path style="fill:#135dd0;stroke:#263238;stroke-linecap:round;stroke-linejoin:round;stroke-miterlimit:10;" d="
				M311.419,239.762c0,0,6.007,15.37,5.83,16.077c-0.177,0.707-25.088,22.968-26.324,22.438s-6.714-15.017-6.89-15.724
				c-0.177-0.707,12.367-18.551,12.367-18.551"/>
			
				<line style="fill:none;stroke:#263238;stroke-linecap:round;stroke-linejoin:round;stroke-miterlimit:10;" x1="290.218" y1="252.482" x2="288.805" y2="209.727"/>
			<polygon style="fill:#135dd0;stroke:#263238;stroke-linecap:round;stroke-linejoin:round;stroke-miterlimit:10;" points="
				279.617,261.139 290.218,284.46 287.038,286.933 276.614,262.552 			"/>
			<path style="fill:#135dd0;stroke:#263238;stroke-linecap:round;stroke-linejoin:round;stroke-miterlimit:10;" d="
				M297.229,285.608c0.146,1.025,0.233,1.702,0.233,1.855c0,1.06-29.505,18.374-31.448,18.021c-1.119-0.203-1.584-0.758-1.786-1.293
				L297.229,285.608z"/>
			<path style="fill:#FFFFFF;stroke:#263238;stroke-linecap:round;stroke-linejoin:round;stroke-miterlimit:10;" d="
				M265.484,171.919l-0.353,64.839c0,0,10.777-46.465,12.191-48.939c1.413-2.473,9.01-7.95,8.304-9.187
				C284.918,177.396,266.897,168.739,265.484,171.919z"/>
		</g>
	</g>
</g>
<g id="Speech_Bubble_2">
	<g>
		<g>
			<path style="fill:#263238;" d="M292.751,57.444c0-22.177-17.978-40.154-40.154-40.154s-40.154,17.978-40.154,40.154
				c0,19.541,13.962,35.815,32.452,39.408l8.023,10.383l7.719-10.443C278.961,93.068,292.751,76.867,292.751,57.444z"/>
			<path style="fill:#135dd0;" d="M290.901,53.745c0-22.177-17.978-40.154-40.154-40.154s-40.154,17.978-40.154,40.154
				c0,19.541,13.961,35.815,32.452,39.408l8.023,10.383l7.719-10.443C277.111,89.369,290.901,73.168,290.901,53.745z"/>
			<path style="opacity:0.2;" d="M243.045,93.153l8.023,10.383l7.719-10.443c18.323-3.724,32.114-19.925,32.114-39.348
				c0-2.181-0.18-4.319-0.514-6.405l-74.171,26.892C221.961,83.891,231.638,90.937,243.045,93.153z"/>
			<path style="fill:none;stroke:#263238;stroke-linecap:round;stroke-linejoin:round;stroke-miterlimit:10;" d="M290.901,53.745
				c0-22.177-17.978-40.154-40.154-40.154s-40.154,17.978-40.154,40.154c0,19.541,13.961,35.815,32.452,39.408l8.023,10.383
				l7.719-10.443C277.111,89.369,290.901,73.168,290.901,53.745z"/>
		</g>
		<g>
			<circle style="fill:#263238;" cx="237.478" cy="55.254" r="3.083"/>
			<circle style="fill:#263238;" cx="251.658" cy="55.254" r="3.083"/>
			<circle style="fill:#263238;" cx="265.838" cy="55.254" r="3.083"/>
		</g>
	</g>
</g>
<g id="Character_1">
	<g>
		<g>
			<path style="fill:#135dd0;stroke:#263238;stroke-linecap:round;stroke-linejoin:round;stroke-miterlimit:10;" d="M96.494,452.578
				l-0.682,3.64c0,0-8.191,10.238-9.783,11.831c-1.592,1.593-2.048,7.053-2.048,7.053h32.307c0,0,1.82-7.053,1.593-9.1
				s-0.228-7.963-0.228-7.963L96.494,452.578z"/>
			<path style="fill:#FFFFFF;stroke:#263238;stroke-linecap:round;stroke-linejoin:round;stroke-miterlimit:10;" d="M84.738,470.779
				c-0.564,2.043-0.757,4.323-0.757,4.323h32.307c0,0,0.538-2.089,0.993-4.323H84.738z"/>
		</g>
		<g>
			<path style="fill:#135dd0;stroke:#263238;stroke-linecap:round;stroke-linejoin:round;stroke-miterlimit:10;" d="M162.7,452.578
				l0.683,3.64c0,0,8.19,10.238,9.783,11.831c1.592,1.593,2.048,7.053,2.048,7.053h-32.307c0,0-1.82-7.053-1.593-9.1
				c0.227-2.048,0.227-7.963,0.227-7.963L162.7,452.578z"/>
			<path style="fill:#FFFFFF;stroke:#263238;stroke-linecap:round;stroke-linejoin:round;stroke-miterlimit:10;" d="
				M174.456,470.779c0.564,2.043,0.757,4.323,0.757,4.323h-32.307c0,0-0.538-2.089-0.993-4.323H174.456z"/>
		</g>
		<path style="fill:#263238;stroke:#263238;stroke-linecap:round;stroke-linejoin:round;stroke-miterlimit:10;" d="M160.88,387.282
			l2.275-94.417l-32.762-6.825H128.8l-32.762,6.825l2.275,94.417l1.138,59.381l-3.185,2.73l0.228,3.185l21.159,5.46
			c0,0,0.455-8.418,0.683-9.556s-0.683-5.915-0.683-6.825c0-0.91,7.053-78.491,7.053-78.491l2.73-43l2.161-0.54l2.161,0.54l2.73,43
			c0,0,7.053,77.581,7.053,78.491c0,0.91-0.91,5.688-0.682,6.825s0.682,9.556,0.682,9.556l21.159-5.46l0.228-3.185l-3.185-2.73
			L160.88,387.282z"/>
		<g>
			<path style="fill:#FFFFFF;stroke:#263238;stroke-linecap:round;stroke-linejoin:round;stroke-miterlimit:10;" d="M79.885,225.066
				l-2.275,9.328l-14.333-16.381c0,0-1.138-7.735-2.048-8.645c-0.91-0.91-4.323-2.503-6.598-3.64
				c-2.275-1.138-5.46-2.048-6.598-3.868c-1.138-1.82-3.413-1.138-1.82,1.593c1.593,2.73,4.55,4.323,4.55,4.323
				s-7.735-0.228-8.873-0.682c-1.138-0.455-7.053-5.005-8.418-3.185c-1.365,1.82,1.593,4.095,2.275,5.688
				c0.683,1.593,6.825,5.688,12.286,8.873c5.46,3.185,11.148,5.46,11.148,5.46s17.973,29.577,20.931,32.079
				c2.958,2.503,7.508,5.46,9.101,2.958c1.593-2.503,5.005-10.693,5.005-10.693l0.683-17.746L79.885,225.066z"/>
			<path style="fill:none;stroke:#263238;stroke-linecap:round;stroke-linejoin:round;stroke-miterlimit:10;" d="M58.954,219.605
				c0,0-3.64-5.005-5.005-5.688c-1.365-0.682-14.561-5.005-14.561-5.005"/>
			
				<line style="fill:none;stroke:#263238;stroke-linecap:round;stroke-linejoin:round;stroke-miterlimit:10;" x1="77.61" y1="234.394" x2="88.758" y2="241.674"/>
		</g>
		<path style="fill:#FFFFFF;stroke:#263238;stroke-linecap:round;stroke-linejoin:round;stroke-miterlimit:10;" d="M171.882,220.975
			l2.876,29.212l3.413,51.418c0,0,2.73,12.058,2.958,12.968c0.228,0.91-0.455,14.106-0.91,15.471
			c-0.455,1.365-2.275,3.64-3.185,4.095c-0.91,0.455-3.64,0-2.958-1.138c0.682-1.138,2.048-2.503,2.048-3.413
			c0-0.91,0-4.323,0-5.915c0-1.593-2.73-5.915-2.73-5.915s0.228,7.053,0.228,8.646c0,1.592,0,2.275-1.138,2.048
			c-1.137-0.227-2.275-0.683-2.275-2.503s-0.91-6.37-1.138-7.963c-0.228-1.593-1.138-2.73-0.91-4.095
			c0.227-1.365,3.185-11.603,3.185-11.603l-10.238-34.809l-2.275-32.762L171.882,220.975z"/>
		<g>
			<polygon style="fill:#BABABA;stroke:#263238;stroke-linecap:round;stroke-linejoin:round;stroke-miterlimit:10;" points="
				111.054,175.923 82.251,189.748 76.928,222.108 91.944,230.299 94.446,295.139 124.705,301.965 129.71,293.547 133.351,302.647 
				164.065,294.457 162.7,229.161 175.668,220.516 168.412,188.013 140.631,174.331 			"/>
			
				<line style="fill:none;stroke:#263238;stroke-linecap:round;stroke-linejoin:round;stroke-miterlimit:10;" x1="126.98" y1="184.341" x2="129.71" y2="291.044"/>
			
				<line style="fill:none;stroke:#263238;stroke-linecap:round;stroke-linejoin:round;stroke-miterlimit:10;" x1="162.7" y1="229.161" x2="160.652" y2="203.68"/>
			
				<line style="fill:none;stroke:#263238;stroke-linecap:round;stroke-linejoin:round;stroke-miterlimit:10;" x1="91.944" y1="230.299" x2="90.806" y2="200.04"/>
			<path style="fill:none;stroke:#263238;stroke-linecap:round;stroke-linejoin:round;stroke-miterlimit:10;" d="M131.986,206.41
				c0,0.754-0.611,1.365-1.365,1.365c-0.754,0-1.365-0.611-1.365-1.365c0-0.754,0.611-1.365,1.365-1.365
				C131.374,205.045,131.986,205.656,131.986,206.41z"/>
			<path style="fill:none;stroke:#263238;stroke-linecap:round;stroke-linejoin:round;stroke-miterlimit:10;" d="M131.986,241.447
				c0,0.754-0.611,1.365-1.365,1.365c-0.754,0-1.365-0.611-1.365-1.365c0-0.754,0.611-1.365,1.365-1.365
				C131.374,240.082,131.986,240.693,131.986,241.447z"/>
			<path style="fill:none;stroke:#263238;stroke-linecap:round;stroke-linejoin:round;stroke-miterlimit:10;" d="M133.578,276.483
				c0,0.754-0.611,1.365-1.365,1.365c-0.754,0-1.365-0.611-1.365-1.365s0.611-1.365,1.365-1.365
				C132.967,275.118,133.578,275.729,133.578,276.483z"/>
			<polygon style="fill:#FFFFFF;stroke:#263238;stroke-linecap:round;stroke-linejoin:round;stroke-miterlimit:10;" points="
				77.155,216.193 74.425,225.293 91.944,233.256 92.171,226.203 			"/>
			<polygon style="fill:#FFFFFF;stroke:#263238;stroke-linecap:round;stroke-linejoin:round;stroke-miterlimit:10;" points="
				162.7,223.473 162.7,233.256 178.171,221.881 174.075,215.738 			"/>
		</g>
		<polygon style="fill:#FFFFFF;stroke:#263238;stroke-linecap:round;stroke-linejoin:round;stroke-miterlimit:10;" points="
			115.15,163.41 116.515,174.103 126.98,184.341 139.038,171.373 138.811,161.818 132.441,166.14 115.15,160.452 		"/>
		<polygon style="fill:#263238;stroke:#263238;stroke-linecap:round;stroke-linejoin:round;stroke-miterlimit:10;" points="
			134.876,171.76 124.693,163.592 115.15,160.452 115.15,163.41 116.515,174.103 119.219,176.749 		"/>
		<polygon style="fill:#FFFFFF;stroke:#263238;stroke-linecap:round;stroke-linejoin:round;stroke-miterlimit:10;" points="
			126.98,184.341 121.52,194.352 109.462,176.378 115.605,170.463 		"/>
		<polygon style="fill:#FFFFFF;stroke:#263238;stroke-linecap:round;stroke-linejoin:round;stroke-miterlimit:10;" points="
			126.98,184.341 133.578,193.442 144.044,175.468 139.038,171.373 		"/>
		<g>
			<path style="fill:#FFFFFF;stroke:#263238;stroke-linecap:round;stroke-linejoin:round;stroke-miterlimit:10;" d="
				M107.735,128.841l1.246,15.703c0,0-3.24-2.493-3.24,2.492c0,4.985,0.748,9.222,2.493,9.721c1.745,0.499,3.489,0.748,3.489,0.748
				s0.748,6.231,2.493,7.727c1.745,1.495,11.216,6.979,12.961,7.976c1.745,0.997,7.228,0.249,8.474-0.249
				c1.246-0.499,5.733-8.474,6.73-10.718c0.997-2.243,1.745-10.718,1.745-10.718s-0.997-14.955-0.997-19.192
				c0-4.237,0.249-8.225-1.745-11.216c-1.994-2.991-10.219-7.477-18.694-5.733C114.215,117.127,106.987,118.871,107.735,128.841z"/>
			<g>
				<path style="fill:none;stroke:#263238;stroke-linecap:round;stroke-linejoin:round;stroke-miterlimit:10;" d="M108.981,144.544
					c0,0-0.019-0.014-0.047-0.034L108.981,144.544z"/>
				<path style="fill:#263238;stroke:#263238;stroke-linecap:round;stroke-linejoin:round;stroke-miterlimit:10;" d="
					M143.022,126.541c-0.171-2.01-0.593-3.858-1.639-5.427c-1.994-2.991-10.219-7.477-18.694-5.733
					c-8.474,1.745-15.703,3.489-14.955,13.459l1.246,15.703l3.24-0.249l-0.748-5.483c0,0,3.49-0.498,3.49-1.994
					c0-1.496-4.487-9.721-0.997-11.465c3.489-1.745,5.234-2.243,7.477-1.994c2.243,0.249,5.982,3.739,10.967,2.492
					c4.985-1.246,7.228-3.49,7.228-3.49L143.022,126.541z"/>
			</g>
			<polyline style="fill:none;stroke:#263238;stroke-linecap:round;stroke-linejoin:round;stroke-miterlimit:10;" points="
				133.158,142.55 134.903,154.763 129.918,155.262 			"/>
			<path style="fill:none;stroke:#263238;stroke-linecap:round;stroke-linejoin:round;stroke-miterlimit:10;" d="M128.173,141.055
				c0,0-5.234-1.994-9.471,1.495"/>
			<path style="fill:none;stroke:#263238;stroke-linecap:round;stroke-linejoin:round;stroke-miterlimit:10;" d="M135.152,140.556
				c0,0,4.237-2.742,6.73,0"/>
			<path style="fill:#263238;" d="M125.93,145.79c0,1.101-0.669,1.994-1.495,1.994c-0.826,0-1.495-0.893-1.495-1.994
				c0-1.101,0.67-1.994,1.495-1.994C125.26,143.796,125.93,144.689,125.93,145.79z"/>
			<ellipse style="fill:#263238;" cx="139.389" cy="145.79" rx="1.495" ry="1.994"/>
			<ellipse style="fill:#263238;" cx="132.161" cy="162.49" rx="1.495" ry="0.997"/>
		</g>
	</g>
</g>
<g id="Speech_Bubble_1">
	<g>
		<g>
			<g>
				<polygon style="fill:#263238;" points="170.605,42.989 90.296,42.989 90.296,92.459 120.332,92.459 129.487,104.666 
					137.625,92.459 170.605,92.459 				"/>
				<polygon style="fill:#FFFFFF;" points="166.906,39.29 86.597,39.29 86.597,88.76 116.632,88.76 125.788,100.967 133.925,88.76 
					166.906,88.76 				"/>
				<polygon style="fill:#C7C7C7;" points="166.906,56.389 86.597,85.218 86.597,88.76 116.632,88.76 125.788,100.967 
					133.925,88.76 166.906,88.76 				"/>
			</g>
			<polygon style="fill:none;stroke:#263238;stroke-linecap:round;stroke-linejoin:round;stroke-miterlimit:10;" points="
				166.906,39.29 86.597,39.29 86.597,88.76 116.632,88.76 125.788,100.967 133.925,88.76 166.906,88.76 			"/>
		</g>
		<g>
			<circle style="fill:#263238;" cx="112.571" cy="62.886" r="3.083"/>
			<circle style="fill:#263238;" cx="126.751" cy="62.886" r="3.083"/>
			<circle style="fill:#263238;" cx="140.931" cy="62.886" r="3.083"/>
		</g>
	</g>
</g>
<g id="Floor">
	
		<line style="fill:none;stroke:#263238;stroke-linecap:round;stroke-linejoin:round;stroke-miterlimit:10;" x1="16.568" y1="475.101" x2="479.144" y2="475.101"/>
</g>
</svg>
