<?xml version="1.0" encoding="utf-8"?>
<!-- Generator: Adobe Illustrator 27.5.0, SVG Export Plug-In . SVG Version: 6.00 Build 0)  -->
<svg version="1.1" xmlns="http://www.w3.org/2000/svg" xmlns:xlink="http://www.w3.org/1999/xlink" x="0px" y="0px"
	 viewBox="0 0 500 500" style="enable-background:new 0 0 500 500;" xml:space="preserve">
<g id="Background_complete">
	<g>
		<g>
			<g>
				<g>
					<path style="fill:#F0F0F0;" d="M444.708,349.145H263.962c-3.232,0-5.862-2.63-5.862-5.862V80.009
						c0-3.232,2.63-5.862,5.862-5.862h180.746c3.232,0,5.862,2.629,5.862,5.862v263.273
						C450.57,346.515,447.94,349.145,444.708,349.145z M263.962,74.397c-3.095,0-5.612,2.518-5.612,5.612v263.273
						c0,3.095,2.518,5.612,5.612,5.612h180.746c3.095,0,5.612-2.518,5.612-5.612V80.009c0-3.094-2.518-5.612-5.612-5.612H263.962z"
						/>
				</g>
			</g>
			<g>
				<g>
					<path style="fill:#F0F0F0;" d="M236.28,349.145H55.534c-3.232,0-5.862-2.63-5.862-5.862V80.009
						c0-3.232,2.629-5.862,5.862-5.862H236.28c3.232,0,5.862,2.629,5.862,5.862v263.273
						C242.143,346.515,239.513,349.145,236.28,349.145z M55.534,74.397c-3.094,0-5.612,2.518-5.612,5.612v263.273
						c0,3.095,2.518,5.612,5.612,5.612H236.28c3.095,0,5.612-2.518,5.612-5.612V80.009c0-3.094-2.518-5.612-5.612-5.612H55.534z"/>
				</g>
			</g>
		</g>
		<g>
			<g>
				<rect x="0.788" y="410.214" style="fill:#E0E0E0;" width="500" height="0.25"/>
			</g>
		</g>
	</g>
	<g>
		<polygon style="fill:#F0F0F0;" points="225.258,315.201 231.816,321.703 232.718,322.595 187.266,368.551 172.567,353.688 
			116.675,410.214 127.069,410.214 172.567,364.2 187.266,379.064 237.96,327.801 238.354,328.189 244.912,334.692 249.679,309.904 
					"/>
	</g>
	<g>
		<polygon style="fill:#F0F0F0;" points="135.452,147.667 142.01,154.17 142.912,155.062 97.46,201.018 82.761,186.154 
			49.922,219.366 49.922,229.878 82.761,196.667 97.46,211.531 148.153,160.268 148.548,160.656 155.105,167.159 159.873,142.37 		
			"/>
	</g>
	<path style="fill:#F0F0F0;" d="M83.512,134.329c0,0.767-0.619,1.386-1.378,1.386h-4.002v3.994c0,0.768-0.619,1.386-1.386,1.386
		c-0.759,0-1.378-0.619-1.378-1.386v-3.994h-4.002c-0.767,0-1.386-0.619-1.386-1.386c0-0.759,0.619-1.378,1.386-1.378h4.002v-4.002
		c0-0.767,0.619-1.386,1.378-1.386c0.767,0,1.386,0.619,1.386,1.386v4.002h4.002C82.894,132.951,83.512,133.57,83.512,134.329z"/>
	<path style="fill:#F0F0F0;" d="M423.19,229.878c0,0.767-0.619,1.386-1.378,1.386h-4.002v3.994c0,0.768-0.619,1.386-1.386,1.386
		c-0.759,0-1.378-0.619-1.378-1.386v-3.994h-4.002c-0.767,0-1.386-0.619-1.386-1.386c0-0.759,0.619-1.378,1.386-1.378h4.002v-4.002
		c0-0.767,0.619-1.386,1.378-1.386c0.767,0,1.386,0.619,1.386,1.386v4.002h4.002C422.571,228.5,423.19,229.119,423.19,229.878z"/>
	<path style="fill:#F0F0F0;" d="M289.553,100.341c0,0.767-0.619,1.386-1.378,1.386h-4.002v3.994c0,0.768-0.619,1.386-1.386,1.386
		c-0.759,0-1.378-0.619-1.378-1.386v-3.994h-4.002c-0.767,0-1.386-0.619-1.386-1.386c0-0.759,0.619-1.378,1.386-1.378h4.002v-4.002
		c0-0.767,0.619-1.386,1.378-1.386c0.767,0,1.386,0.619,1.386,1.386v4.002h4.002C288.934,98.963,289.553,99.582,289.553,100.341z"/>
	<g>
		<g>
			<rect x="57.48" y="305.745" style="fill:#F5F5F5;" width="25" height="11.5"/>
			<rect x="84.605" y="305.745" style="fill:#F5F5F5;" width="25" height="11.5"/>
		</g>
		<rect x="71.042" y="319.245" style="fill:#F5F5F5;" width="25" height="11.5"/>
	</g>
	<g>
		<g>
			<rect x="382.594" y="90.597" style="fill:#F5F5F5;" width="25" height="11.5"/>
			<rect x="409.719" y="90.597" style="fill:#F5F5F5;" width="25" height="11.5"/>
		</g>
		<rect x="396.157" y="104.097" style="fill:#F5F5F5;" width="25" height="11.5"/>
	</g>
	<g>
		<rect x="95.766" y="255.681" style="fill:#F5F5F5;" width="14.759" height="22.45"/>
		<rect x="118.076" y="242.627" style="fill:#F5F5F5;" width="14.759" height="35.503"/>
		<rect x="140.386" y="222.519" style="fill:#F5F5F5;" width="14.759" height="55.612"/>
		<rect x="162.696" y="201.24" style="fill:#F5F5F5;" width="14.759" height="76.89"/>
	</g>
	<g>
		<rect x="356.657" y="318.245" style="fill:#F5F5F5;" width="14.759" height="22.45"/>
		<rect x="378.967" y="305.192" style="fill:#F5F5F5;" width="14.759" height="35.503"/>
		<rect x="401.277" y="285.083" style="fill:#F5F5F5;" width="14.759" height="55.612"/>
		<rect x="423.587" y="263.805" style="fill:#F5F5F5;" width="14.759" height="76.89"/>
	</g>
</g>
<g id="Background_simple" style="display:none;">
	<g style="display:inline;">
		<path style="fill:#407BFF;" d="M429.777,156.197c-2.09-23.725-11.822-46.267-28.418-63.35
			c-15.452-15.906-39.133-29.853-72.974-24.407c-77.526,12.475-45.825,131.563-146.951,104.94
			c-101.127-26.623-143.389,96.016-67.668,139.305c75.721,43.289,205.947,19.149,261.057-27.129
			C426.708,241.987,432.741,189.84,429.777,156.197z"/>
		<path style="opacity:0.9;fill:#FFFFFF;" d="M429.777,156.197c-2.09-23.725-11.822-46.267-28.418-63.35
			c-15.452-15.906-39.133-29.853-72.974-24.407c-77.526,12.475-45.825,131.563-146.951,104.94
			c-101.127-26.623-143.389,96.016-67.668,139.305c75.721,43.289,205.947,19.149,261.057-27.129
			C426.708,241.987,432.741,189.84,429.777,156.197z"/>
	</g>
</g>
<g id="Shadow">
	<g>
		<g>
			<path style="fill:#F5F5F5;" d="M448.667,451.613c0,2.129-87.356,3.854-195.115,3.854s-195.115-1.726-195.115-3.854
				c0-2.129,87.356-3.855,195.115-3.855S448.667,449.484,448.667,451.613z"/>
		</g>
	</g>
</g>
<g id="Arrow">
	<g>
		<polygon style="fill:#407BFF;" points="381.234,342.464 387.792,348.966 388.694,349.858 343.242,395.814 328.543,380.951 
			258.35,451.941 268.744,451.941 328.543,391.463 343.242,406.327 393.936,355.064 394.33,355.452 400.888,361.955 
			405.655,337.167 		"/>
	</g>
</g>
<g id="Plant">
	<g>
		<g>
			<path style="fill:#263238;" d="M132.493,447.712l6.59-35.692H94.267l6.59,35.692c0.417,2.26,2.388,3.9,4.686,3.9h22.263
				C130.105,451.613,132.076,449.973,132.493,447.712z"/>
			<path style="fill:#407BFF;" d="M134.333,379.719c-5.9-1.554-14.914,10.692-17.652,22.631v-17.395
				c1.376-2.441,4-6.112,8.764-9.992c7.408-6.034,14.228-13.777,8.317-15.333c-5.539-1.459-13.823,9.246-17.081,20.44V357.73
				c0.954-1.482,2.518-3.426,5.018-5.462c4.669-3.803,8.967-8.683,5.242-9.664c-3.233-0.852-7.949,4.871-10.26,11.324v-7.24
				c0.382-2.24,0.922-5.438,2.404-8.709c3.434-7.578,5.289-15.385,0.761-14.804c-4.532,0.581-7.47,14.077-4.992,24.438v3.726
				c-1.674-7.582-7.417-15.435-11.166-14.447c-3.725,0.981,0.573,5.861,5.242,9.664c3.554,2.895,5.217,5.604,5.924,7.061v17.598
				c-2.685-11.999-11.763-24.384-17.694-22.822c-5.91,1.557,0.909,9.3,8.317,15.333c5.598,4.559,8.242,8.832,9.377,11.156v21.103
				c-2.869-11.78-11.716-23.668-17.534-22.135c-5.91,1.557-0.842,7.215,7.484,14.059c5.658,4.652,8.689,9.56,10.05,12.229v11.883
				h1.827v-5.898c1.158-2.342,3.805-6.566,9.335-11.07C133.424,389.019,140.244,381.276,134.333,379.719z"/>
			<rect x="91.508" y="410.339" style="fill:#263238;" width="50.333" height="4.9"/>
			<rect x="91.508" y="410.339" style="opacity:0.2;fill:#FFFFFF;" width="50.333" height="4.9"/>
		</g>
	</g>
</g>
<g id="Target">
	<g>
		<g>
			<path style="fill:#407BFF;" d="M402.586,183.829c-5.921,21.116-25.248,34.86-46.179,34.603v0.01h-5.86v-0.442
				c-2.128-0.288-4.256-0.73-6.384-1.326c-25.207-7.073-39.908-33.226-32.845-58.433c5.263-18.751,21.085-31.694,39.229-34.172
				v-0.442h5.86v0.01c4.4-0.051,8.893,0.514,13.344,1.768C394.958,132.469,409.659,158.633,402.586,183.829z"/>
			<path style="opacity:0.3;" d="M402.586,183.829c-5.921,21.116-25.248,34.86-46.179,34.603v0.01h-5.86v-0.442
				c-2.128-0.288-4.256-0.73-6.384-1.326c-25.207-7.073-39.908-33.226-32.845-58.433c5.263-18.751,21.085-31.694,39.229-34.172
				v-0.442h5.86v0.01c4.4-0.051,8.893,0.514,13.344,1.768C394.958,132.469,409.659,158.633,402.586,183.829z"/>
			
				<ellipse transform="matrix(0.9257 -0.3782 0.3782 0.9257 -38.6211 145.4304)" style="fill:#407BFF;" cx="350.926" cy="171.037" rx="47.394" ry="47.394"/>
			
				<ellipse transform="matrix(0.912 -0.4102 0.4102 0.912 -39.2762 158.9986)" style="fill:#FFFFFF;" cx="350.926" cy="171.037" rx="37.46" ry="37.459"/>
			<path style="fill:#407BFF;" d="M343.495,197.539c14.613,4.098,29.836-4.458,33.934-19.071
				c4.098-14.614-4.457-29.836-19.071-33.934c-14.613-4.098-29.836,4.458-33.934,19.071
				C320.326,178.219,328.881,193.442,343.495,197.539z"/>
			<path style="fill:#FFFFFF;" d="M346.177,187.973c9.339,2.619,19.067-2.849,21.686-12.188c2.619-9.339-2.849-19.067-12.188-21.686
				c-9.339-2.619-19.067,2.849-21.686,12.188C331.371,175.627,336.838,185.355,346.177,187.973z"/>
			<path style="fill:#407BFF;" d="M348.859,178.408c4.064,1.14,8.298-1.24,9.438-5.304c1.14-4.065-1.24-8.298-5.304-9.438
				c-4.064-1.14-8.298,1.24-9.438,5.304C342.416,173.034,344.795,177.268,348.859,178.408z"/>
		</g>
		<path style="fill:#263238;" d="M297.885,141.847l11.442-1.742l-1.742-11.442c-0.101-0.662,0.354-1.281,1.016-1.382
			c0.663-0.101,1.281,0.354,1.382,1.017l1.882,12.363l4.393,3.233l-1.517-9.965c-0.101-0.662,0.354-1.281,1.016-1.382
			c0.663-0.101,1.281,0.354,1.382,1.017l1.882,12.363l5.549,4.083l-1.517-9.965c-0.101-0.662,0.354-1.281,1.017-1.382
			c0.662-0.101,1.281,0.354,1.382,1.017l1.882,12.363l24.116,17.746c1.512,1.248,0.516,2.827-0.719,2.481l-25.087-18.459
			l-11.926,1.815c-0.662,0.101-1.281-0.354-1.382-1.017c-0.101-0.662,0.354-1.281,1.017-1.382l9.528-1.45l-5.549-4.083
			l-11.926,1.815c-0.663,0.101-1.281-0.354-1.382-1.017c-0.101-0.662,0.354-1.281,1.017-1.382l9.528-1.45l-4.394-3.233
			l-11.926,1.815c-0.662,0.101-1.281-0.354-1.382-1.017C296.768,142.566,297.223,141.947,297.885,141.847z"/>
	</g>
</g>
<g id="Character">
	<g>
		<g>
			<polygon style="fill:#263238;" points="192.89,451.941 191.89,451.941 191.89,421.646 226.803,421.646 226.803,391.808 
				261.717,391.808 261.717,362.012 296.631,362.012 296.631,332.174 331.545,332.174 331.545,302.378 366.459,302.378 
				366.459,272.54 401.872,272.54 401.872,273.54 367.459,273.54 367.459,303.336 366.959,303.378 332.545,303.378 332.545,333.174 
				297.631,333.174 297.631,362.97 297.131,363.012 262.717,363.012 262.717,392.808 227.803,392.808 227.803,422.603 
				227.303,422.646 192.89,422.646 			"/>
		</g>
		<polygon style="fill:#263238;" points="408.829,273.04 401.873,280.242 401.873,265.838 		"/>
	</g>
	<g>
		<g>
			<path style="fill:#9E6141;" d="M240.953,150.595c2.401,5.441,4.689,10.996,6.962,16.495l3.419,8.211
				c1.151,2.676,2.298,5.46,3.463,7.792c0.704,1.314,0.582,1.326,1.461,2.343c0.766,0.88,1.763,1.852,2.786,2.798
				c2.046,1.933,4.29,3.831,6.538,5.742l13.783,11.439l-3.712,5.854c-5.543-2.675-10.908-5.538-16.183-8.751
				c-2.648-1.595-5.246-3.284-7.876-5.149c-1.309-0.959-2.609-1.941-3.988-3.174c-0.683-0.612-1.419-1.322-2.222-2.297l-0.553-0.741
				l-0.431-0.633c-0.293-0.433-0.492-0.777-0.742-1.171c-0.9-1.484-1.659-2.864-2.408-4.254c-0.744-1.385-1.466-2.759-2.147-4.141
				c-1.372-2.759-2.709-5.505-3.97-8.278c-2.549-5.539-4.948-11.081-7.136-16.778L240.953,150.595z"/>
		</g>
		<g>
			<path style="fill:#407BFF;" d="M240.735,149.717l9.33,17.502c0,0-3.115,8.464-11.689,14.62l-6.661-7.695L240.735,149.717z"/>
		</g>
		<g style="opacity:0.5;">
			<path style="fill:#FFFFFF;" d="M240.735,149.717l9.33,17.502c0,0-3.115,8.464-11.689,14.62l-6.661-7.695L240.735,149.717z"/>
		</g>
		<g>
			<g>
				<path style="fill:#263238;" d="M226.958,100.776c0,0-9.364-1.099-12.715,8.863c-2.819,8.379-6.135,13.198-9.988,14.854
					c-6.311,2.713-12.353,8.232-8.503,16.072c6.093,12.407,31.982,11.158,37.065,5.85c5.083-5.309-0.294-4.032,4.902-8.834
					c5.195-4.801,10.706-18.562,7.053-28.228C242.761,104.031,235.027,98.977,226.958,100.776z"/>
			</g>
			<g>
				<g>
					<g>
						<g>
							<g>
								<path style="fill:#FFFFFF;" d="M238.304,128.921c-0.336,1.401-1.744,2.263-3.145,1.927
									c-1.401-0.336-2.263-1.744-1.927-3.145c0.336-1.401,1.744-2.263,3.145-1.927
									C237.777,126.113,238.64,127.521,238.304,128.921z"/>
							</g>
						</g>
					</g>
				</g>
			</g>
			<g>
				<g>
					<g>
						<g>
							<polygon style="fill:#9E6141;" points="202.581,402.387 203.107,413.9 209.256,413.9 210.665,402.387 							"/>
						</g>
						<g>
							<g>
								<g>
									<path style="fill:#407BFF;" d="M226.312,422.043c0.035-3.751-1.527-4.871-3.578-4.999
										c-2.134-0.133-9.549-2.663-9.549-2.663s-1.367-2.382-2.73-2.866c-1.363-0.484-2.867,0.933-2.867,0.933l-3.814-0.464
										c0,0-0.989-1.713-1.932-0.212c-1.462,2.325-1.945,8.762-1.979,10.271H226.312z"/>
								</g>
							</g>
						</g>
						<g>
							<g>
								<g>
									<g>
										<path d="M225.907,421.063c-1.6-0.007-3.193-0.014-4.793-0.022c-6.99-0.033-13.977-0.074-20.967-0.108
											c-0.267,0.001-0.173-0.402,0.092-0.396c0.47,0.005,0.949,0.003,1.42,0.008c0.004-0.015,0.017-0.038,0.028-0.053
											c1.51-2.161,0.86-4.357-0.895-5.452c-0.207-0.121,0.087-0.472,0.285-0.344c1.899,1.185,2.544,3.533,1.007,5.847
											c0.987,0.01,1.968,0.013,2.957,0.015c6.982,0.033,13.969,0.074,20.959,0.108
											C226.267,420.665,226.173,421.069,225.907,421.063z"/>
									</g>
								</g>
							</g>
						</g>
						<g>
							<g>
								<g>
									<g>
										<path style="fill:#FFFFFF;" d="M211.867,416.003c1.215-1.262,2.843-1.621,3.911-0.669
											c0.173,0.154,0.458-0.193,0.287-0.345c-1.226-1.093-3.126-0.618-4.501,0.812
											C211.363,416.011,211.667,416.211,211.867,416.003L211.867,416.003z"/>
									</g>
								</g>
							</g>
						</g>
						<g>
							<g>
								<g>
									<g>
										<path style="fill:#FFFFFF;" d="M213.97,416.675c1.215-1.262,2.843-1.621,3.911-0.669c0.173,0.154,0.458-0.193,0.287-0.345
											c-1.226-1.093-3.126-0.618-4.501,0.812C213.465,416.683,213.77,416.882,213.97,416.675L213.97,416.675z"/>
									</g>
								</g>
							</g>
						</g>
						<g>
							<g>
								<g>
									<g>
										<path style="fill:#FFFFFF;" d="M216.146,417.346c1.214-1.263,2.843-1.621,3.911-0.669
											c0.173,0.154,0.458-0.193,0.287-0.345c-1.226-1.093-3.126-0.618-4.501,0.812
											C215.641,417.354,215.946,417.554,216.146,417.346L216.146,417.346z"/>
									</g>
								</g>
							</g>
						</g>
					</g>
				</g>
				<g>
					<path style="fill:#263238;" d="M232.664,212.086c0,0-0.51,19.341-2.392,46.514c-0.373,5.264-0.794,10.832-1.265,16.606
						c-0.99,11.989-2.235,24.899-3.784,37.956c-3.754,31.594-14.234,91.94-14.234,91.94l-9.528,0.206c0,0-9.391-53.994,0.892-91.372
						c-0.657-6.46-1.186-12.518-1.598-18.214c-1.441-19.596-1.549-34.81-0.99-46.583c0.049-0.941,0.098-1.862,0.147-2.764
						c0.088-1.5,0.196-2.951,0.304-4.333c0.176-2.274,0.392-4.392,0.618-6.362c2.147-18.39,5.999-23.693,5.999-23.693
						L232.664,212.086z"/>
				</g>
				<g style="opacity:0.2;">
					<path d="M230.272,258.6c-0.373,5.264-0.794,10.832-1.265,16.606c-9.607-7.764-22.605-21.694-29.095-28.83
						c0.088-1.5,0.196-2.951,0.304-4.333L230.272,258.6z"/>
				</g>
				<g>
					<path style="fill:#263238;" d="M256.073,343.865l11.473-0.327c6.134-29.523,23.133-85.739,14.277-94.299
						c-31.083-30.047-89.837-44.206-89.837-44.206c-7.092,1.402-12.204,3.605-13.767,10.415c-1.613,7.03-0.618,16.475,7.906,22.472
						c5.213,3.667,11.729,6.1,24.811,12.109c10.282,4.72,21.171,9.628,39.52,15.236c5.332,1.63,7.114,2.163,10.057,2.971
						C254.449,290.03,255.961,335.415,256.073,343.865z"/>
				</g>
				<g>
					<g>
						<g>
							<polygon style="fill:#9E6141;" points="257.715,343.142 257.566,354.052 263.714,354.052 265.799,343.142 							"/>
						</g>
						<g>
							<g>
								<polygon style="fill:#263238;" points="269.127,346.604 269.912,342.532 255.046,342.532 254.98,346.604 								"/>
							</g>
						</g>
						<g>
							<g>
								<g>
									<path style="fill:#407BFF;" d="M280.771,362.195c0.035-3.751-1.526-4.871-3.578-4.999
										c-2.134-0.133-9.549-2.663-9.549-2.663s-1.367-2.382-2.73-2.866c-1.363-0.484-2.867,0.933-2.867,0.933l-3.815-0.464
										c0,0-0.989-1.713-1.932-0.212c-1.462,2.325-1.945,8.762-1.978,10.271H280.771z"/>
								</g>
							</g>
						</g>
						<g>
							<g>
								<g>
									<g>
										<path d="M280.366,361.215c-1.6-0.007-3.193-0.014-4.793-0.022c-6.99-0.033-13.978-0.074-20.967-0.108
											c-0.267,0.001-0.173-0.402,0.093-0.396c0.47,0.005,0.949,0.003,1.42,0.008c0.004-0.015,0.017-0.038,0.028-0.053
											c1.51-2.161,0.86-4.357-0.895-5.452c-0.207-0.121,0.087-0.472,0.285-0.344c1.899,1.185,2.544,3.533,1.007,5.847
											c0.987,0.01,1.968,0.013,2.957,0.016c6.982,0.033,13.969,0.074,20.959,0.108
											C280.725,360.817,280.631,361.221,280.366,361.215z"/>
									</g>
								</g>
							</g>
						</g>
						<g>
							<g>
								<g>
									<g>
										<path style="fill:#FFFFFF;" d="M266.326,356.155c1.215-1.262,2.843-1.621,3.911-0.668
											c0.173,0.154,0.458-0.193,0.287-0.345c-1.226-1.093-3.126-0.618-4.501,0.812
											C265.822,356.163,266.126,356.363,266.326,356.155L266.326,356.155z"/>
									</g>
								</g>
							</g>
						</g>
						<g>
							<g>
								<g>
									<g>
										<path style="fill:#FFFFFF;" d="M268.428,356.827c1.214-1.263,2.843-1.621,3.911-0.669
											c0.173,0.154,0.458-0.193,0.287-0.345c-1.226-1.093-3.126-0.618-4.501,0.812
											C267.924,356.835,268.228,357.035,268.428,356.827L268.428,356.827z"/>
									</g>
								</g>
							</g>
						</g>
						<g>
							<g>
								<g>
									<g>
										<path style="fill:#FFFFFF;" d="M270.605,357.499c1.214-1.263,2.843-1.621,3.911-0.669
											c0.173,0.154,0.458-0.193,0.287-0.345c-1.226-1.093-3.126-0.618-4.501,0.812
											C270.1,357.507,270.404,357.707,270.605,357.499L270.605,357.499z"/>
									</g>
								</g>
							</g>
						</g>
					</g>
				</g>
				<g>
					<g>
						<polygon style="fill:#263238;" points="211.73,407.335 212.657,403.271 200,403.271 200.089,407.335 						"/>
					</g>
				</g>
			</g>
			<g>
				<path style="fill:#407BFF;" d="M178.221,211.164c19.442,9.143,54.157,11.119,54.861,6.501
					c1.985-13.015-0.456-28.216,2.09-36.544c10.689-5.502,4.053-12.448,6.403-22.237c1.803-7.467-2.584-14.891-9.955-17.095
					c-1.703-0.502-3.468-1.012-5.212-1.456c-0.361-0.097-0.712-0.182-1.063-0.266c-4.668-1.158-9.176-1.82-14.201-2.398
					c-1.747-0.212-3.562-0.4-5.459-0.609c-1.889-0.197-3.743-0.337-5.509-0.424c-6.572-0.342-12.178,5.004-12,11.495
					c0.244,9.575-0.159,18.543-1.028,26.63c-0.193,1.827-0.397,3.588-0.639,5.314c-0.922,6.749-2.165,12.793-3.586,17.959
					c-0.028,0.113-0.066,0.224-0.093,0.327c-0.659,2.352-1.352,4.509-2.08,6.471c-0.223,0.618-0.451,1.203-0.689,1.777
					C179.576,207.829,178.747,209.959,178.221,211.164z"/>
			</g>
			<g style="opacity:0.3;">
				<path style="fill:#FFFFFF;" d="M178.221,211.164c19.442,9.143,54.157,11.119,54.861,6.501
					c1.985-13.015-0.456-28.216,2.09-36.544c10.689-5.502,4.053-12.448,6.403-22.237c1.803-7.467-2.584-14.891-9.955-17.095
					c-1.703-0.502-3.468-1.012-5.212-1.456c-0.361-0.097-0.712-0.182-1.063-0.266c-4.668-1.158-9.176-1.82-14.201-2.398
					c-1.747-0.212-3.562-0.4-5.459-0.609c-1.889-0.197-3.743-0.337-5.509-0.424c-6.572-0.342-12.178,5.004-12,11.495
					c0.244,9.575-0.159,18.543-1.028,26.63c-0.193,1.827-0.397,3.588-0.639,5.314c-0.922,6.749-2.165,12.793-3.586,17.959
					c-0.028,0.113-0.066,0.224-0.093,0.327c-0.659,2.352-1.352,4.509-2.08,6.471c-0.223,0.618-0.451,1.203-0.689,1.777
					C179.576,207.829,178.747,209.959,178.221,211.164z"/>
			</g>
			<g>
				<path style="fill:#407BFF;" d="M177.323,152.053c0,0,8.365-15.719,19.639-15.125c7.202,0.38,6.2,15.82-1.815,27.426
					C187.691,161.367,182.117,157.785,177.323,152.053z"/>
			</g>
			<g style="opacity:0.5;">
				<path style="fill:#FFFFFF;" d="M177.323,152.053c0,0,8.365-15.719,19.639-15.125c7.202,0.38,6.2,15.82-1.815,27.426
					C187.691,161.367,182.117,157.785,177.323,152.053z"/>
			</g>
			<g>
				<path style="fill:#9E6141;" d="M211.145,137.669c3.813,9.1,14.592,15.579,14.592,15.579c2.001-3.628,2.259-9.803,0.695-12.904
					c-0.362-0.097-0.715-0.183-1.067-0.268C220.68,138.91,216.169,138.246,211.145,137.669z"/>
			</g>
			<g>
				<g>
					<g>
						<path style="fill:#9E6141;" d="M226.255,142.893c0.026,0.132,0.064,0.268,0.132,0.41c1.333,2.799-0.746,4.956-3.557,4.408
							c-0.273-0.053-0.539-0.124-0.799-0.209c-0.994-0.328-1.874-0.965-2.487-1.814c-0.003-0.004-0.005-0.007-0.008-0.011
							c-2.951-4.1-6.267-7.337-6.267-7.337c4.538-1.767,7.078-9.69,8.089-14.711l5.595,9.225l1.015,1.989
							c-0.727,0.988-1.396,2.024-1.828,3.079C225.446,139.556,225.291,141.243,226.255,142.893z"/>
					</g>
				</g>
				<g style="opacity:0.2;">
					<g>
						<path d="M226.139,137.922c0.433-1.055,1.101-2.091,1.828-3.079l-1.015-1.989l-4.177-0.41
							C222.775,132.444,223.461,135.939,226.139,137.922z"/>
					</g>
				</g>
				<g>
					<g>
						<path style="fill:#9E6141;" d="M221.24,114.451c-1.672,8.247-2.552,11.702,0.359,16.938c4.379,7.875,14.684,8.062,18.74,0.467
							c3.65-6.838,5.771-19.175-1.16-24.478C232.35,102.152,222.912,106.205,221.24,114.451"/>
					</g>
				</g>
				<g>
					<path style="fill:#263238;" d="M234.705,105.151c0,0,2.42,8.599,7.308,9.462c4.887,0.862,1.617-5.969-2.932-9.338
						C237.108,103.813,234.705,105.151,234.705,105.151z"/>
				</g>
				<g>
					<g>
						<path style="fill:#263238;" d="M232.383,116.959c0.11,0.03,0.233,0.017,0.337-0.046c1.631-0.987,3.086-0.314,3.103-0.306
							c0.215,0.101,0.474,0.015,0.574-0.199c0.099-0.214,0.003-0.47-0.214-0.575c-0.076-0.036-1.903-0.883-3.926,0.343
							c-0.201,0.123-0.261,0.386-0.134,0.59C232.185,116.865,232.278,116.93,232.383,116.959"/>
					</g>
				</g>
				<g>
					<g>
						<path style="fill:#263238;" d="M243.36,119.371c0.094,0.019,0.195,0.005,0.284-0.05c0.181-0.113,0.236-0.352,0.124-0.534
							c-1.133-1.818-2.92-1.876-2.996-1.878c-0.214-0.004-0.391,0.165-0.395,0.38c-0.005,0.213,0.165,0.39,0.378,0.395
							c0.07,0.002,1.456,0.067,2.356,1.513C243.169,119.29,243.261,119.351,243.36,119.371"/>
					</g>
				</g>
				<g>
					<path style="fill:#263238;" d="M218.764,113.07c0,0-3.103,5.242,0.797,6.67c3.9,1.428,6.178-1.236,6.154-3.584
						s-0.736-4.803,5.045-3.657c5.09,1.009,8.245-9.566,1.474-9.399C228.033,103.203,220.307,105.768,218.764,113.07z"/>
				</g>
				<g>
					<g>
						<path style="fill:#FFFFFF;" d="M237.115,129.398c0,0-3.834-2.326-4.511-4.2c0,0-0.979,3.087,1.005,4.509
							C235.593,131.129,237.115,129.398,237.115,129.398z"/>
					</g>
				</g>
				<g>
					<g>
						<path style="fill:#263238;" d="M234.121,120.533c-0.176,0.661,0.032,1.29,0.464,1.405c0.432,0.115,0.925-0.328,1.101-0.989
							c0.176-0.661-0.031-1.29-0.464-1.405C234.79,119.43,234.297,119.872,234.121,120.533"/>
					</g>
				</g>
				<g>
					<g>
						<path style="fill:#263238;" d="M240.737,122.486c-0.176,0.661,0.032,1.29,0.463,1.405c0.432,0.115,0.925-0.328,1.101-0.989
							c0.176-0.661-0.031-1.29-0.464-1.405C241.405,121.383,240.913,121.826,240.737,122.486"/>
					</g>
				</g>
				<g>
					<g>
						<path style="fill:#263238;" d="M241.637,121.484l1.709-0.035C243.346,121.449,242.201,122.472,241.637,121.484"/>
					</g>
				</g>
				<g>
					<g>
						<path style="fill:#7A4224;" d="M238.208,121.262c0,0,0.673,2.055,1.504,3.904c0.27,0.601-0.072,1.307-0.72,1.435
							c-1.113,0.219-2.24,0.152-2.24,0.152L238.208,121.262z"/>
					</g>
				</g>
				<g>
					<g>
						<path style="fill:#9E6141;" d="M216.857,119.304c0.313,1.747,1.324,3.061,2.434,3.716c1.67,0.984,3.093-0.755,3.121-2.899
							c0.025-1.929-0.813-4.765-2.726-4.854C217.802,115.179,216.5,117.307,216.857,119.304"/>
					</g>
				</g>
				<g>
					<path style="fill:#FFFFFF;" d="M220.246,122.826c0,0.525-0.426,0.951-0.951,0.951c-0.525,0-0.951-0.426-0.951-0.951
						s0.426-0.951,0.951-0.951C219.821,121.875,220.246,122.301,220.246,122.826z"/>
				</g>
				<g>
					<g>
						<path style="fill:#263238;" d="M235.021,119.531l1.709-0.035C236.73,119.495,235.585,120.519,235.021,119.531"/>
					</g>
				</g>
			</g>
		</g>
		<g>
			<g>
				<g>
					<g>
						<g>
							<polygon style="fill:#407BFF;" points="336.516,266.732 367.777,272.52 349.072,246.813 							"/>
						</g>
					</g>
					<g style="opacity:0.6;">
						<g>
							<polygon style="fill:#FFFFFF;" points="349.069,246.811 362.346,265.058 367.777,272.52 358.813,270.866 336.514,266.73 
															"/>
						</g>
					</g>
					<g>
						<g>
							<path style="fill:#263238;" d="M362.346,265.058l5.43,7.462l-8.963-1.653C359.799,268.918,361.03,266.897,362.346,265.058z"
								/>
						</g>
					</g>
				</g>
				<g>
					<g>
						<g>
							<polygon style="fill:#407BFF;" points="150.862,121.875 349.069,246.811 354.079,253.697 344.884,253.451 349.459,261.182 
								340.699,260.091 344.342,268.182 336.514,266.73 138.306,141.794 							"/>
						</g>
					</g>
					<g>
						<g>
							
								<rect x="137.662" y="129.155" transform="matrix(0.5332 -0.846 0.846 0.5332 -44.3636 189.3787)" style="fill:#263238;" width="23.546" height="11.473"/>
						</g>
					</g>
					<g>
						<g>
							<path style="fill:#407BFF;" d="M150.86,121.874l-12.555,19.919l-3.353-2.114c-4.353-2.744-5.657-8.496-2.913-12.849
								l2.62-4.157c2.744-4.353,8.496-5.657,12.849-2.913L150.86,121.874z"/>
						</g>
					</g>
					<g style="opacity:0.6;">
						<g>
							<path style="fill:#FFFFFF;" d="M150.86,121.874l-12.555,19.919l-3.353-2.114c-4.353-2.744-5.657-8.496-2.913-12.849
								l2.62-4.157c2.744-4.353,8.496-5.657,12.849-2.913L150.86,121.874z"/>
						</g>
					</g>
				</g>
			</g>
			<g>
				<g>
					<path style="fill:#263238;" d="M340.573,260.011c-0.089,0.141-0.276,0.183-0.416,0.094l-188.122-118.58
						c-0.141-0.089-0.183-0.276-0.094-0.416c0.089-0.141,0.275-0.183,0.416-0.094l188.123,118.58
						C340.619,259.684,340.662,259.871,340.573,260.011z"/>
				</g>
			</g>
			<g>
				<g>
					<path style="fill:#263238;" d="M344.758,253.372c-0.089,0.141-0.276,0.183-0.416,0.094l-188.123-118.58
						c-0.141-0.089-0.183-0.276-0.094-0.416c0.089-0.141,0.275-0.183,0.416-0.094l188.122,118.58
						C344.805,253.044,344.847,253.231,344.758,253.372z"/>
				</g>
			</g>
		</g>
		<g>
			<path style="fill:#9E6141;" d="M218.661,189.29c-0.985,0.472-1.949,0.903-2.914,1.313c-0.554,0.246-1.108,0.472-1.672,0.708
				c-1.529,0.636-3.068,1.262-4.627,1.826c-3.098,1.159-6.258,2.196-9.49,3.119c-3.232,0.923-6.525,1.703-9.972,2.308
				c-1.723,0.308-3.488,0.513-5.335,0.667c-1.662,0.133-3.375,0.205-5.253,0.051c-0.215-0.01-0.431-0.031-0.646-0.051
				c-0.77-0.082-1.6-0.298-2.39-0.667c-1.098-0.513-1.929-1.241-2.524-1.908c-1.118-1.344-1.436-2.349-1.683-3.068
				c-0.421-1.436-0.441-2.216-0.503-2.975c-0.061-1.436,0.021-2.483,0.113-3.498c0.185-2.011,0.492-3.775,0.821-5.509
				c0.677-3.468,1.457-6.761,2.319-10.023c0.503-1.919,1.036-3.827,1.59-5.725l12.793,8.064c-0.144,0.482-0.277,0.964-0.41,1.447
				c-0.841,3.068-1.683,6.135-2.329,9.1c-0.103,0.462-0.195,0.923-0.287,1.375c0.759,0,1.539-0.031,2.319-0.051
				c2.975-0.113,6.043-0.41,9.141-0.739c2.544-0.287,5.119-0.616,7.694-0.964c0.554-0.072,1.118-0.154,1.672-0.226l9.439-1.354
				L218.661,189.29z"/>
		</g>
		<g>
			<g>
				<path style="fill:#9E6141;" d="M215.752,182.618c0,0,8.204-2.584,9.953-2.283c1.956,0.337,1.389,10.607-1.08,12.091
					c-2.469,1.484-8.401-3.021-8.401-3.021L215.752,182.618z"/>
			</g>
			<g>
				<path style="fill:#9E6141;" d="M215.759,182.713c0,0,1.709-2.158,3.538-2.871s3.493-1.87,4.348-1.569
					c0.855,0.301-2.165,3.085-2.165,3.085L215.759,182.713z"/>
			</g>
			<g>
				<path style="fill:#9E6141;" d="M225.705,180.335c0,0,5.094,1.263,6.769,3.295c1.675,2.032-2.894,0.92-2.894,0.92
					s5.329,1.745,3.285,5.835c-1.002,2.005-7.051,2.591-9.858,2.32C223.008,192.705,222.811,184.146,225.705,180.335z"/>
			</g>
		</g>
		<g>
			<path style="fill:#9E6141;" d="M273.43,196.724c0,0-0.137-0.694-2.06-1.143c-1.924-0.449-3.163-0.398-3.983-0.258l4.65,2.994
				c0,0-0.503,4.093,1.689,5.92c4.424,3.687,7.836,1.492,8.785,0.705c0.949-0.786-0.634-4.348-3.414-6.4
				C276.317,196.491,273.43,196.724,273.43,196.724z"/>
		</g>
	</g>
</g>
</svg>
