<?xml version="1.0" encoding="utf-8"?>
<!-- Generator: Adobe Illustrator 27.5.0, SVG Export Plug-In . SVG Version: 6.00 Build 0)  -->
<svg version="1.1" xmlns="http://www.w3.org/2000/svg" xmlns:xlink="http://www.w3.org/1999/xlink" x="0px" y="0px"
	 viewBox="0 0 500 500" style="enable-background:new 0 0 500 500;" xml:space="preserve">
<g id="Background_Complete">
	<g>
		<g>
			<path style="fill:#EBEBEB;" d="M447.838,167.167c0.695-5.049-6.431-9.203-11.785-9.634c-2.553-0.206-5.206,0.185-7.625-0.658
				c-5.241-1.827-7.335-8.598-12.449-10.755c-3.823-1.613-8.225-0.177-11.931,1.688c-3.707,1.865-7.369,4.213-11.51,4.478
				c-3.602,0.23-7.513-1.105-10.665,0.654c-2.348,1.311-3.578,4.017-5.743,5.613c-2.117,1.562-4.88,1.893-7.507,2.036
				c-2.627,0.143-5.347,0.169-7.74,1.265c-2.392,1.095-4.371,3.625-3.875,6.209L447.838,167.167z"/>
		</g>
	</g>
	<g>
		<g>
			<path style="fill:#EBEBEB;" d="M228.085,120.818c0.695-5.049-6.431-9.203-11.785-9.634c-2.553-0.206-5.206,0.185-7.625-0.659
				c-5.241-1.827-7.335-8.598-12.449-10.755c-3.823-1.613-8.225-0.177-11.931,1.688c-3.706,1.865-7.369,4.213-11.51,4.478
				c-3.602,0.23-7.513-1.105-10.665,0.654c-2.348,1.311-3.578,4.017-5.743,5.613c-2.118,1.562-4.88,1.893-7.507,2.035
				c-2.627,0.143-5.347,0.169-7.74,1.265c-2.392,1.095-4.371,3.625-3.875,6.209L228.085,120.818z"/>
		</g>
	</g>
	<g>
		<g>
			<path style="fill:#EBEBEB;" d="M130.196,278.945c0.695-5.049-6.431-9.203-11.785-9.634c-2.553-0.206-5.206,0.184-7.625-0.659
				c-5.241-1.827-7.335-8.598-12.449-10.755c-3.823-1.613-8.225-0.177-11.931,1.688c-3.707,1.866-7.369,4.213-11.51,4.478
				c-3.602,0.23-7.513-1.105-10.665,0.654c-2.348,1.311-3.578,4.017-5.743,5.613c-2.118,1.562-4.88,1.893-7.507,2.035
				c-2.627,0.143-5.347,0.169-7.74,1.265c-2.392,1.095-4.371,3.625-3.875,6.209L130.196,278.945z"/>
		</g>
	</g>
	<g>
		<g>
			<path style="fill:#EBEBEB;" d="M312.161,210.695c0.425-3.085-3.93-5.623-7.201-5.887c-1.56-0.126-3.181,0.113-4.659-0.402
				c-3.202-1.116-4.482-5.254-7.607-6.572c-2.336-0.985-5.026-0.108-7.291,1.032c-2.265,1.14-4.503,2.575-7.034,2.736
				c-2.201,0.141-4.591-0.675-6.517,0.4c-1.435,0.801-2.187,2.455-3.509,3.43c-1.294,0.954-2.982,1.156-4.587,1.244
				c-1.605,0.087-3.268,0.104-4.729,0.773c-1.462,0.669-2.671,2.215-2.368,3.794L312.161,210.695z"/>
		</g>
	</g>
</g>
<g id="Background_Simple" style="display:none;">
	<path style="display:inline;fill:#F5F5F5;" d="M342.51,88.078l-1.275-2.1c-10.744-17.705-30.169-28.377-50.649-27.082
		c-2.633,0.167-5.254,0.523-7.84,1.076c-18.621,3.986-34.823,18.067-41.539,36.101c-3.95,10.606-5.053,22.818-12.548,31.236
		c-9.755,10.956-26.316,11.3-40.876,10.847c-14.56-0.454-31.132-0.067-40.84,10.933c-6.079,6.889-8.012,16.685-7.521,25.911
		c1.298,24.425,18.318,46.265,39.963,57.12c21.645,10.855,47.129,11.828,70.818,7.052c33.185-6.69,64.745-25.061,83.714-53.436
		C352.886,157.361,357.687,118.704,342.51,88.078z"/>
	
		<ellipse transform="matrix(0.2279 -0.9737 0.9737 0.2279 163.934 510.7843)" style="display:inline;fill:#F5F5F5;" cx="404.033" cy="152.027" rx="19.145" ry="19.145"/>
	
		<ellipse transform="matrix(0.922 -0.3872 0.3872 0.922 -95.2807 52.3125)" style="display:inline;fill:#F5F5F5;" cx="82.198" cy="262.641" rx="19.145" ry="19.145"/>
</g>
<g id="Floor">
	<g>
		<path style="fill:#263238;" d="M490.785,488.189c0,0.144-107.77,0.26-240.68,0.26c-132.956,0-240.703-0.117-240.703-0.26
			s107.747-0.26,240.703-0.26C383.015,487.928,490.785,488.045,490.785,488.189z"/>
	</g>
</g>
<g id="Arrows">
	<g>
		<polygon style="fill:#E0E0E0;" points="319.055,412.946 394.656,487.95 409.418,487.91 414.668,412.946 		"/>
		<polygon style="fill:#E0E0E0;" points="380.53,420.049 304.351,487.95 357.563,487.87 402.408,450.15 		"/>
	</g>
	<g>
		<polygon style="fill:#E0E0E0;" points="373.365,226.014 467.269,313.055 468.924,222.769 		"/>
		<polygon style="fill:#E0E0E0;" points="436.633,229.77 182.655,487.91 232.703,487.91 459.519,259.111 		"/>
	</g>
	<g>
		<polygon style="fill:#E0E0E0;" points="107.07,325.36 197.966,415.538 202.684,325.36 		"/>
		<polygon style="fill:#E0E0E0;" points="170.174,331.261 6.973,487.91 59.559,487.91 192.052,361.362 		"/>
	</g>
	<g>
		<polygon style="fill:#135dd0;" points="186.316,294.401 316.082,423.142 316.082,294.401 		"/>
		<path style="fill:#135dd0;" d="M271.939,297.305c-2.937,2.35-189.741,190.606-189.741,190.606h80.478l146.858-147.723
			L271.939,297.305z"/>
	</g>
</g>
<g id="Sun">
	<g>
		<g>
			
				<ellipse transform="matrix(0.9251 -0.3797 0.3797 0.9251 -21.6655 41.349)" style="fill:#135dd0;" cx="93.987" cy="75.597" rx="12.834" ry="12.834"/>
		</g>
		<g>
			<g>
				<path style="fill:#135dd0;" d="M92.159,104.293c-0.075,0-0.135-2.37-0.135-5.293c0-2.924,0.06-5.294,0.135-5.294
					s0.135,2.37,0.135,5.294C92.294,101.923,92.234,104.293,92.159,104.293z"/>
			</g>
		</g>
		<g>
			<g>
				<path style="fill:#135dd0;" d="M84.764,90.722c0.065,0.037-1.142,2.249-2.696,4.938c-1.554,2.691-2.865,4.841-2.93,4.804
					c-0.065-0.037,1.142-2.248,2.696-4.939C83.387,92.835,84.699,90.684,84.764,90.722z"/>
			</g>
		</g>
		<g>
			<g>
				<path style="fill:#135dd0;" d="M77.174,85.996c0.046,0.058-1.296,1.202-2.997,2.555c-1.702,1.353-3.119,2.402-3.166,2.344
					c-0.046-0.058,1.295-1.202,2.997-2.555C75.71,86.987,77.127,85.937,77.174,85.996z"/>
			</g>
		</g>
		<g>
			<g>
				<path style="fill:#135dd0;" d="M104.962,99.078c-0.039,0.007-0.153-0.494-0.338-1.302c-0.185-0.808-0.446-1.922-0.774-3.141
					c-0.329-1.22-0.661-2.315-0.906-3.106c-0.245-0.792-0.397-1.283-0.361-1.296c0.033-0.012,0.249,0.456,0.541,1.235
					c0.293,0.779,0.656,1.871,0.986,3.098c0.329,1.227,0.563,2.354,0.7,3.174C104.948,98.559,104.997,99.072,104.962,99.078z"/>
			</g>
		</g>
		<g>
			<g>
				<path style="fill:#135dd0;" d="M117.979,89.841c-0.049,0.056-1.748-1.348-3.793-3.136c-2.046-1.789-3.665-3.284-3.616-3.34
					c0.049-0.056,1.747,1.348,3.794,3.137C116.409,88.29,118.028,89.785,117.979,89.841z"/>
			</g>
		</g>
		<g>
			<g>
				<path style="fill:#135dd0;" d="M122.965,77.148c-0.009,0.039-0.597-0.065-1.548-0.222c-0.951-0.158-2.265-0.362-3.725-0.53
					c-1.46-0.167-2.787-0.266-3.748-0.327c-0.962-0.062-1.558-0.094-1.558-0.134c0-0.035,0.598-0.07,1.565-0.057
					c0.967,0.012,2.304,0.082,3.772,0.25c1.467,0.169,2.785,0.404,3.73,0.611C122.398,76.945,122.972,77.114,122.965,77.148z"/>
			</g>
		</g>
		<g>
			<g>
				<path style="fill:#135dd0;" d="M122.981,64.666c0.018,0.072-2.761,0.812-6.205,1.65c-3.445,0.839-6.252,1.461-6.27,1.388
					c-0.018-0.072,2.76-0.811,6.205-1.651C120.156,65.215,122.963,64.593,122.981,64.666z"/>
			</g>
		</g>
		<g>
			<g>
				<path style="fill:#135dd0;" d="M108.479,50.123c0.062,0.041-1.267,2.162-2.968,4.736c-1.702,2.575-3.132,4.628-3.194,4.587
					c-0.062-0.041,1.267-2.161,2.969-4.736C106.986,52.135,108.417,50.082,108.479,50.123z"/>
			</g>
		</g>
		<g>
			<g>
				<path style="fill:#135dd0;" d="M94.087,47.085c0.039,0.002,0.034,0.675,0.019,1.762c-0.016,1.087-0.037,2.587-0.035,4.244
					c0.002,1.658,0.027,3.158,0.045,4.245c0.018,1.087,0.024,1.76-0.015,1.762c-0.036,0.002-0.109-0.668-0.176-1.755
					c-0.067-1.086-0.122-2.59-0.124-4.252c-0.001-1.661,0.05-3.165,0.115-4.252C93.979,47.753,94.051,47.083,94.087,47.085z"/>
			</g>
		</g>
		<g>
			<g>
				<path style="fill:#135dd0;" d="M83.188,60.659c-0.064,0.039-1.416-2.057-3.019-4.682c-1.604-2.625-2.853-4.784-2.789-4.823
					c0.064-0.039,1.415,2.057,3.019,4.682C82.003,58.46,83.252,60.62,83.188,60.659z"/>
			</g>
		</g>
		<g>
			<g>
				<path style="fill:#135dd0;" d="M76.678,66.192c-0.008,0.035-0.53-0.041-1.365-0.217c-0.834-0.175-1.979-0.455-3.228-0.823
					c-1.248-0.369-2.362-0.755-3.158-1.061c-0.796-0.305-1.276-0.525-1.264-0.559c0.014-0.036,0.517,0.12,1.327,0.378
					c0.81,0.259,1.928,0.615,3.171,0.982c1.243,0.366,2.375,0.674,3.196,0.896C76.178,66.012,76.686,66.154,76.678,66.192z"/>
			</g>
		</g>
		<g>
			<g>
				<path style="fill:#135dd0;" d="M73.833,76.051c0.007,0.074-1.827,0.311-4.095,0.53c-2.269,0.218-4.114,0.335-4.121,0.261
					c-0.007-0.074,1.826-0.311,4.096-0.529C71.981,76.094,73.826,75.977,73.833,76.051z"/>
			</g>
		</g>
	</g>
</g>
<g id="Clouds">
	<g>
		<g>
			<g>
				<path style="fill:#FFFFFF;" d="M456.143,358.097c0.523-3.801-4.842-6.929-8.873-7.254c-1.923-0.155-3.919,0.139-5.741-0.496
					c-3.946-1.375-5.522-6.473-9.373-8.097c-2.879-1.214-6.193-0.133-8.983,1.271c-2.791,1.405-5.548,3.172-8.666,3.372
					c-2.712,0.173-5.657-0.832-8.03,0.493c-1.768,0.987-2.694,3.024-4.324,4.226c-1.594,1.176-3.674,1.425-5.652,1.533
					c-1.978,0.108-4.026,0.128-5.827,0.952c-1.801,0.825-3.291,2.729-2.918,4.675L456.143,358.097z"/>
				<g>
					<path style="fill:#263238;" d="M456.143,358.097c0.006,0.006-0.106,0.014-0.33,0.022c-0.25,0.007-0.582,0.017-1.002,0.029
						c-0.918,0.018-2.225,0.044-3.897,0.076c-3.436,0.052-8.369,0.128-14.485,0.221c-12.347,0.149-29.462,0.355-48.67,0.586
						l-0.215,0.002l-0.042-0.213c-0.224-1.134,0.182-2.336,0.895-3.245c0.71-0.921,1.734-1.613,2.844-1.986
						c2.562-0.871,5.205-0.503,7.631-0.955c1.212-0.212,2.388-0.624,3.312-1.375c0.935-0.747,1.633-1.769,2.473-2.683
						c0.422-0.456,0.878-0.899,1.416-1.241c0.538-0.341,1.133-0.585,1.743-0.719c1.227-0.263,2.45-0.175,3.62-0.087
						c1.172,0.09,2.322,0.208,3.434,0.083c1.115-0.115,2.193-0.433,3.22-0.845c2.061-0.824,3.922-1.988,5.876-2.879
						c1.945-0.88,4.019-1.508,6.081-1.355c1.021,0.085,2.02,0.369,2.882,0.865c0.864,0.492,1.593,1.139,2.242,1.813
						c1.297,1.355,2.316,2.822,3.505,4.005c1.164,1.2,2.57,2.049,4.062,2.258c1.485,0.236,2.936,0.108,4.293,0.207
						c2.74,0.22,4.92,1.308,6.461,2.418c1.547,1.145,2.37,2.487,2.596,3.474C456.313,357.563,456.115,358.125,456.143,358.097
						c-0.046-0.021,0.089-0.533-0.155-1.497c-0.254-0.952-1.08-2.238-2.615-3.337c-1.528-1.064-3.695-2.106-6.36-2.291
						c-1.331-0.085-2.782,0.059-4.328-0.171c-1.561-0.201-3.074-1.102-4.269-2.324c-1.228-1.206-2.26-2.672-3.534-3.986
						c-0.637-0.654-1.341-1.269-2.157-1.728c-0.814-0.463-1.745-0.722-2.711-0.799c-1.947-0.137-3.955,0.47-5.859,1.341
						c-1.912,0.878-3.778,2.056-5.888,2.908c-1.052,0.426-2.173,0.762-3.346,0.886c-1.178,0.134-2.358,0.013-3.524-0.074
						c-1.163-0.087-2.344-0.162-3.471,0.083c-1.135,0.235-2.103,0.911-2.893,1.813c-0.81,0.879-1.515,1.925-2.528,2.74
						c-1.013,0.824-2.283,1.263-3.543,1.484c-2.531,0.461-5.154,0.11-7.551,0.937c-1.038,0.35-1.955,0.976-2.605,1.812
						c-0.645,0.826-0.985,1.869-0.797,2.828l-0.257-0.21c19.141-0.147,36.196-0.278,48.5-0.373c6.14-0.028,11.092-0.05,14.541-0.066
						c1.696,0,3.02-0.001,3.952-0.001c0.434,0.004,0.776,0.007,1.034,0.009C456.015,358.085,456.138,358.09,456.143,358.097z"/>
				</g>
			</g>
		</g>
	</g>
	<g>
		<g>
			<g>
				<path style="fill:#FFFFFF;" d="M241.296,441.796c0.695-5.049-6.431-9.203-11.785-9.634c-2.553-0.206-5.206,0.184-7.625-0.659
					c-5.241-1.827-7.335-8.598-12.449-10.755c-3.823-1.613-8.225-0.177-11.931,1.688c-3.706,1.865-7.369,4.213-11.51,4.478
					c-3.602,0.23-7.513-1.105-10.665,0.654c-2.348,1.311-3.578,4.017-5.743,5.613c-2.117,1.562-4.88,1.893-7.507,2.035
					c-2.627,0.143-5.347,0.169-7.74,1.265c-2.392,1.095-4.372,3.625-3.875,6.209L241.296,441.796z"/>
				<g>
					<path style="fill:#263238;" d="M241.296,441.795c0,0-0.145,0.014-0.443,0.023c-0.321,0.008-0.765,0.018-1.336,0.032
						c-1.206,0.021-2.947,0.051-5.185,0.089c-4.549,0.063-11.108,0.154-19.248,0.268c-16.377,0.188-39.105,0.45-64.614,0.743
						l-0.215,0.002l-0.042-0.213c-0.291-1.477,0.237-3.048,1.172-4.241c0.933-1.209,2.276-2.117,3.739-2.609
						c3.376-1.149,6.883-0.663,10.122-1.265c1.618-0.283,3.194-0.835,4.437-1.845c1.254-1.003,2.183-2.364,3.294-3.573
						c0.557-0.603,1.158-1.186,1.864-1.635c0.705-0.447,1.486-0.767,2.288-0.945c1.614-0.347,3.23-0.231,4.784-0.115
						c1.555,0.12,3.087,0.276,4.576,0.109c1.49-0.154,2.93-0.58,4.297-1.129c2.745-1.099,5.217-2.647,7.806-3.829
						c2.576-1.167,5.321-1.997,8.041-1.797c1.347,0.111,2.663,0.484,3.799,1.138c1.14,0.647,2.104,1.502,2.964,2.393
						c1.719,1.793,3.074,3.741,4.66,5.316c1.551,1.597,3.436,2.734,5.429,3.01c1.982,0.313,3.909,0.14,5.707,0.269
						c1.81,0.112,3.445,0.589,4.876,1.158c1.432,0.578,2.665,1.283,3.689,2.033c1.02,0.759,1.809,1.582,2.385,2.371
						c0.589,0.788,0.887,1.579,1.066,2.22c0.14,0.652,0.187,1.165,0.135,1.515C241.317,441.636,241.296,441.795,241.296,441.795
						s-0.005-0.189-0.003-0.523c0.028-0.327-0.032-0.833-0.187-1.47c-0.333-1.27-1.429-2.987-3.47-4.455
						c-1.018-0.727-2.243-1.409-3.661-1.965c-1.417-0.547-3.03-1.002-4.802-1.098c-1.772-0.115-3.699,0.074-5.742-0.233
						c-2.062-0.269-4.054-1.457-5.636-3.075c-1.624-1.598-2.993-3.546-4.689-5.298c-0.848-0.872-1.787-1.694-2.879-2.309
						c-1.088-0.62-2.337-0.969-3.628-1.072c-2.605-0.185-5.283,0.625-7.818,1.783c-2.546,1.168-5.024,2.73-7.818,3.857
						c-1.392,0.563-2.875,1.007-4.424,1.17c-1.554,0.176-3.116,0.016-4.666-0.1c-1.546-0.115-3.121-0.218-4.635,0.111
						c-0.753,0.168-1.471,0.466-2.123,0.878c-0.652,0.416-1.223,0.967-1.763,1.554c-1.081,1.173-2.016,2.558-3.348,3.63
						c-1.331,1.082-3.002,1.661-4.668,1.953c-3.345,0.611-6.831,0.141-10.042,1.247c-1.39,0.468-2.626,1.311-3.499,2.436
						c-0.868,1.111-1.33,2.523-1.074,3.825l-0.257-0.21c25.442-0.209,48.11-0.396,64.444-0.53
						c8.163-0.048,14.742-0.086,19.304-0.113c2.261-0.006,4.021-0.011,5.239-0.014c0.585,0.002,1.039,0.004,1.368,0.005
						C241.129,441.784,241.296,441.795,241.296,441.795z"/>
				</g>
			</g>
		</g>
	</g>
	<g>
		<g>
			<g>
				<path style="fill:#FFFFFF;" d="M148.818,203.311c0.583-4.238-5.398-7.724-9.892-8.086c-2.143-0.173-4.369,0.155-6.4-0.553
					c-4.399-1.533-6.156-7.217-10.449-9.027c-3.209-1.354-6.904-0.149-10.015,1.417c-3.111,1.566-6.186,3.536-9.661,3.759
					c-3.023,0.193-6.306-0.928-8.951,0.549c-1.971,1.101-3.003,3.372-4.82,4.712c-1.777,1.311-4.096,1.589-6.301,1.708
					c-2.205,0.12-4.488,0.142-6.496,1.062c-2.008,0.919-3.669,3.043-3.252,5.212L148.818,203.311z"/>
				<g>
					<path style="fill:#263238;" d="M148.818,203.311c0.006,0.006-0.12,0.014-0.37,0.023c-0.275,0.007-0.646,0.017-1.119,0.03
						c-1.019,0.019-2.477,0.046-4.347,0.081c-3.825,0.056-9.327,0.137-16.151,0.237c-13.756,0.163-32.835,0.388-54.248,0.641
						l-0.215,0.003l-0.042-0.213c-0.247-1.254,0.201-2.585,0.992-3.593c0.788-1.021,1.924-1.789,3.157-2.204
						c2.847-0.968,5.792-0.559,8.502-1.063c1.354-0.236,2.67-0.698,3.706-1.54c1.047-0.836,1.825-1.977,2.76-2.994
						c0.469-0.508,0.976-0.999,1.572-1.379c0.596-0.378,1.257-0.649,1.934-0.798c1.363-0.293,2.723-0.195,4.027-0.097
						c1.306,0.101,2.59,0.232,3.833,0.092c1.246-0.128,2.451-0.484,3.597-0.944c2.3-0.92,4.375-2.219,6.551-3.211
						c2.166-0.98,4.475-1.679,6.767-1.509c1.135,0.094,2.245,0.409,3.203,0.961c0.96,0.546,1.771,1.266,2.494,2.016
						c1.445,1.508,2.581,3.144,3.909,4.464c1.299,1.339,2.873,2.288,4.54,2.521c1.659,0.263,3.276,0.119,4.788,0.229
						c3.05,0.243,5.479,1.454,7.197,2.688c1.724,1.274,2.642,2.767,2.896,3.865c0.117,0.549,0.155,0.98,0.11,1.275
						C148.837,203.179,148.818,203.311,148.818,203.311s-0.006-0.161-0.006-0.441c0.021-0.273-0.03-0.697-0.161-1.23
						c-0.281-1.064-1.202-2.5-2.914-3.728c-1.704-1.189-4.121-2.353-7.096-2.561c-1.485-0.096-3.102,0.065-4.822-0.192
						c-1.736-0.225-3.417-1.226-4.747-2.587c-1.366-1.343-2.516-2.978-3.938-4.445c-0.711-0.73-1.497-1.418-2.41-1.932
						c-0.91-0.518-1.952-0.808-3.032-0.894c-2.177-0.154-4.419,0.524-6.544,1.496c-2.134,0.98-4.214,2.292-6.563,3.24
						c-1.171,0.474-2.419,0.848-3.724,0.985c-1.309,0.148-2.623,0.014-3.924-0.083c-1.298-0.097-2.616-0.182-3.878,0.093
						c-1.271,0.263-2.358,1.022-3.24,2.029c-0.905,0.982-1.69,2.146-2.815,3.052c-1.124,0.914-2.535,1.403-3.937,1.648
						c-2.816,0.514-5.74,0.121-8.423,1.045c-1.161,0.391-2.19,1.093-2.917,2.03c-0.723,0.926-1.106,2.098-0.894,3.177l-0.257-0.21
						c21.345-0.169,40.364-0.319,54.077-0.428c6.848-0.035,12.369-0.063,16.207-0.082c1.894-0.002,3.371-0.004,4.402-0.006
						c0.487,0.003,0.868,0.006,1.151,0.008C148.676,203.299,148.812,203.304,148.818,203.311z"/>
				</g>
			</g>
		</g>
	</g>
	<g>
		<g>
			<g>
				<path style="fill:#FFFFFF;" d="M421.435,92.918c0.459-3.331-4.243-6.072-7.776-6.356c-1.685-0.136-3.435,0.122-5.031-0.435
					c-3.458-1.205-4.839-5.673-8.213-7.096c-2.523-1.064-5.427-0.117-7.872,1.114c-2.445,1.231-4.862,2.78-7.594,2.955
					c-2.377,0.152-4.957-0.729-7.037,0.432c-1.549,0.865-2.361,2.65-3.789,3.704c-1.397,1.031-3.219,1.249-4.953,1.343
					c-1.733,0.094-3.528,0.112-5.107,0.835c-1.578,0.723-2.884,2.392-2.557,4.097L421.435,92.918z"/>
				<g>
					<path style="fill:#263238;" d="M421.435,92.918c0.006,0.006-0.092,0.014-0.287,0.022c-0.223,0.007-0.512,0.016-0.876,0.028
						c-0.811,0.017-1.953,0.041-3.411,0.072c-3.018,0.048-7.338,0.117-12.69,0.203c-10.829,0.134-25.828,0.319-42.661,0.527
						l-0.215,0.003l-0.042-0.213c-0.198-1.005,0.162-2.068,0.79-2.869c0.626-0.812,1.53-1.423,2.508-1.751
						c2.255-0.766,4.573-0.442,6.692-0.838c1.06-0.185,2.083-0.545,2.888-1.199c0.814-0.65,1.426-1.544,2.164-2.348
						c0.712-0.82,1.693-1.51,2.785-1.727c1.082-0.232,2.156-0.153,3.182-0.076c1.027,0.079,2.033,0.182,3.004,0.074
						c0.973-0.1,1.916-0.378,2.814-0.738c1.803-0.72,3.433-1.74,5.149-2.521c1.707-0.771,3.529-1.323,5.343-1.188
						c0.898,0.075,1.778,0.325,2.536,0.762c0.76,0.433,1.4,1.002,1.97,1.593c1.138,1.19,2.03,2.476,3.07,3.511
						c1.018,1.05,2.244,1.791,3.547,1.975c1.297,0.207,2.569,0.096,3.76,0.184c2.405,0.195,4.317,1.151,5.669,2.127
						c1.356,1.006,2.077,2.186,2.274,3.053C421.589,92.451,421.411,92.946,421.435,92.918c-0.041-0.022,0.073-0.467-0.142-1.31
						c-0.224-0.832-0.948-1.955-2.293-2.916c-1.338-0.93-3.236-1.84-5.567-1.999c-1.165-0.074-2.436,0.054-3.794-0.147
						c-1.372-0.176-2.705-0.969-3.753-2.04c-1.078-1.058-1.984-2.343-3.099-3.492c-0.558-0.572-1.173-1.109-1.885-1.509
						c-0.71-0.404-1.522-0.629-2.365-0.696c-1.699-0.119-3.455,0.411-5.12,1.174c-1.673,0.769-3.308,1.801-5.16,2.55
						c-0.923,0.374-1.909,0.67-2.94,0.779c-1.036,0.118-2.072,0.011-3.094-0.064c-1.019-0.076-2.051-0.141-3.033,0.073
						c-0.988,0.206-1.828,0.791-2.519,1.579c-0.708,0.768-1.326,1.686-2.218,2.405c-0.893,0.727-2.012,1.113-3.119,1.307
						c-2.225,0.405-4.521,0.098-6.612,0.82c-0.905,0.305-1.702,0.85-2.268,1.578c-0.561,0.719-0.855,1.623-0.692,2.453l-0.257-0.21
						c16.766-0.124,31.705-0.234,42.491-0.314c5.376-0.02,9.715-0.037,12.746-0.048c1.482,0.002,2.642,0.003,3.466,0.004
						c0.377,0.004,0.676,0.007,0.908,0.01C421.322,92.907,421.43,92.912,421.435,92.918z"/>
				</g>
			</g>
		</g>
	</g>
</g>
<g id="Character_1_">
	<g>
		<g>
			<g>
				<g>
					<g>
						<g>
							<g>
								<g>
									<g>
										<g>
											<g>
												<g>
													<g>
														<g>
															<g>
																<path style="fill:#455A64;" d="M247.089,268.688l-0.719,16.446c0,0,16.475,6.254,16.638,9.306l-31.937-0.249
																	l0.069-25.67L247.089,268.688z"/>
															</g>
														</g>
													</g>
												</g>
											</g>
										</g>
									</g>
								</g>
							</g>
						</g>
					</g>
					<g>
						<g>
							<g>
								<g>
									<g>
										<g>
											<g>
												<g>
													<g>
														<g>
															<g>
																<g>
																	<path style="fill:#E0E0E0;" d="M236.505,283.672c-0.619,0.164-1.052,0.856-0.913,1.481
																		c0.139,0.626,0.838,1.072,1.46,0.918c0.622-0.153,1.167-0.967,0.959-1.574c-0.208-0.606-1.058-1.085-1.625-0.787"
																		/>
																</g>
															</g>
														</g>
													</g>
												</g>
											</g>
										</g>
									</g>
								</g>
							</g>
						</g>
					</g>
					<g style="opacity:0.6;">
						<g>
							<g>
								<g>
									<g>
										<g>
											<g>
												<g>
													<g>
														<g>
															<g>
																<path style="fill:#FFFFFF;" d="M231.071,294.19l0.108-2.587l30.58,1.206c0,0,1.417,0.63,1.249,1.63L231.071,294.19z
																	"/>
															</g>
														</g>
													</g>
												</g>
											</g>
										</g>
									</g>
								</g>
							</g>
						</g>
					</g>
					<g>
						<g>
							<g>
								<g>
									<g>
										<g>
											<g>
												<g>
													<g>
														<g>
															<g>
																<g>
																	<path style="fill:#263238;" d="M246.889,284.975c-0.006,0.156-0.787,0.22-1.558,0.716
																		c-0.784,0.475-1.185,1.148-1.328,1.085c-0.143-0.031,0.096-0.962,1.041-1.545
																		C245.982,284.638,246.924,284.832,246.889,284.975z"/>
																</g>
															</g>
														</g>
													</g>
												</g>
											</g>
										</g>
									</g>
								</g>
							</g>
						</g>
					</g>
					<g>
						<g>
							<g>
								<g>
									<g>
										<g>
											<g>
												<g>
													<g>
														<g>
															<g>
																<g>
																	<path style="fill:#263238;" d="M250.228,286.386c0.035,0.151-0.643,0.411-1.178,1.067
																		c-0.554,0.64-0.693,1.352-0.848,1.344c-0.147,0.023-0.247-0.891,0.433-1.693
																		C249.308,286.296,250.226,286.237,250.228,286.386z"/>
																</g>
															</g>
														</g>
													</g>
												</g>
											</g>
										</g>
									</g>
								</g>
							</g>
						</g>
					</g>
					<g>
						<g>
							<g>
								<g>
									<g>
										<g>
											<g>
												<g>
													<g>
														<g>
															<g>
																<g>
																	<path style="fill:#263238;" d="M252.099,290.41c-0.142,0.032-0.353-0.749,0.054-1.6
																		c0.401-0.854,1.139-1.185,1.204-1.055c0.087,0.129-0.39,0.583-0.714,1.287
																		C252.304,289.739,252.254,290.396,252.099,290.41z"/>
																</g>
															</g>
														</g>
													</g>
												</g>
											</g>
										</g>
									</g>
								</g>
							</g>
						</g>
					</g>
					<g>
						<g>
							<g>
								<g>
									<g>
										<g>
											<g>
												<g>
													<g>
														<g>
															<g>
																<g>
																	<path style="fill:#263238;" d="M246.637,281.209c-0.066,0.141-0.78-0.079-1.662-0.026
																		c-0.883,0.035-1.571,0.326-1.652,0.191c-0.089-0.113,0.585-0.685,1.625-0.733
																		C245.987,280.585,246.715,281.087,246.637,281.209z"/>
																</g>
															</g>
														</g>
													</g>
												</g>
											</g>
										</g>
									</g>
								</g>
							</g>
						</g>
					</g>
				</g>
			</g>
		</g>
		<g>
			<g>
				<g>
					<g>
						<g>
							<g>
								<g>
									<g>
										<g>
											<g>
												<g>
													<g>
														<g>
															<g>
																<path style="fill:#455A64;" d="M296.711,268.688l-0.719,16.446c0,0,16.475,6.254,16.638,9.306l-31.937-0.249
																	l0.069-25.67L296.711,268.688z"/>
															</g>
														</g>
													</g>
												</g>
											</g>
										</g>
									</g>
								</g>
							</g>
						</g>
					</g>
					<g>
						<g>
							<g>
								<g>
									<g>
										<g>
											<g>
												<g>
													<g>
														<g>
															<g>
																<g>
																	<path style="fill:#E0E0E0;" d="M286.128,283.672c-0.619,0.164-1.052,0.856-0.913,1.481
																		c0.139,0.626,0.838,1.072,1.46,0.918c0.622-0.153,1.167-0.967,0.959-1.574c-0.208-0.606-1.058-1.085-1.625-0.787"
																		/>
																</g>
															</g>
														</g>
													</g>
												</g>
											</g>
										</g>
									</g>
								</g>
							</g>
						</g>
					</g>
					<g style="opacity:0.6;">
						<g>
							<g>
								<g>
									<g>
										<g>
											<g>
												<g>
													<g>
														<g>
															<g>
																<path style="fill:#FFFFFF;" d="M280.693,294.19l0.108-2.587l30.58,1.206c0,0,1.417,0.63,1.249,1.63L280.693,294.19z
																	"/>
															</g>
														</g>
													</g>
												</g>
											</g>
										</g>
									</g>
								</g>
							</g>
						</g>
					</g>
					<g>
						<g>
							<g>
								<g>
									<g>
										<g>
											<g>
												<g>
													<g>
														<g>
															<g>
																<g>
																	<path style="fill:#263238;" d="M296.511,284.975c-0.006,0.156-0.787,0.22-1.558,0.716
																		c-0.784,0.475-1.185,1.148-1.328,1.085c-0.143-0.031,0.096-0.962,1.041-1.545
																		C295.605,284.638,296.546,284.832,296.511,284.975z"/>
																</g>
															</g>
														</g>
													</g>
												</g>
											</g>
										</g>
									</g>
								</g>
							</g>
						</g>
					</g>
					<g>
						<g>
							<g>
								<g>
									<g>
										<g>
											<g>
												<g>
													<g>
														<g>
															<g>
																<g>
																	<path style="fill:#263238;" d="M299.85,286.386c0.035,0.151-0.643,0.411-1.178,1.067
																		c-0.554,0.64-0.693,1.352-0.848,1.344c-0.147,0.023-0.247-0.891,0.433-1.693
																		C298.93,286.296,299.848,286.237,299.85,286.386z"/>
																</g>
															</g>
														</g>
													</g>
												</g>
											</g>
										</g>
									</g>
								</g>
							</g>
						</g>
					</g>
					<g>
						<g>
							<g>
								<g>
									<g>
										<g>
											<g>
												<g>
													<g>
														<g>
															<g>
																<g>
																	<path style="fill:#263238;" d="M301.722,290.41c-0.142,0.032-0.353-0.749,0.054-1.6
																		c0.401-0.854,1.139-1.185,1.204-1.055c0.087,0.129-0.39,0.583-0.714,1.287
																		C301.926,289.739,301.877,290.396,301.722,290.41z"/>
																</g>
															</g>
														</g>
													</g>
												</g>
											</g>
										</g>
									</g>
								</g>
							</g>
						</g>
					</g>
					<g>
						<g>
							<g>
								<g>
									<g>
										<g>
											<g>
												<g>
													<g>
														<g>
															<g>
																<g>
																	<path style="fill:#263238;" d="M296.259,281.209c-0.066,0.141-0.78-0.079-1.662-0.026
																		c-0.883,0.035-1.571,0.326-1.652,0.191c-0.089-0.113,0.585-0.685,1.625-0.733
																		C295.609,280.585,296.337,281.087,296.259,281.209z"/>
																</g>
															</g>
														</g>
													</g>
												</g>
											</g>
										</g>
									</g>
								</g>
							</g>
						</g>
					</g>
				</g>
			</g>
		</g>
		<g>
			<g>
				<g>
					<g>
						<g>
							<g>
								<g>
									<g>
										<g>
											<g>
												<g>
													<g>
														<g>
															<g>
																<path style="fill:#263238;" d="M231.223,52.74c-1.124-3.075-2.236-6.174-2.814-9.396
																	c-0.578-3.222-0.602-6.602,0.427-9.71c0.156-0.471,1.517-3.643,2.012-3.612c0.354,0.022-0.448,2.964-0.259,3.264
																	c1.808,2.862,2.398,6.361,2.248,9.743C232.687,46.41,232.095,49.469,231.223,52.74"/>
															</g>
														</g>
													</g>
												</g>
											</g>
										</g>
									</g>
								</g>
								<g>
									<g>
										<g>
											<g>
												<g>
													<g>
														<g>
															<g>
																<g>
																	<path style="fill:#FFBF9D;" d="M232.275,70.174l-1.195-29.71c-0.563-8.191,3.105-15.541,11.309-15.877l0.891,0.015
																		c7.575,0.131,13.777,6.057,14.256,13.617c0.452,7.136,0.862,15.061,0.747,18.889
																		c-0.234,7.875-8.134,8.963-8.134,8.963c-0.018,0.001,0.337,5.709,0.397,8.02c0,0-0.834,0.606-8.171,0.867
																		C235.035,75.219,232.275,70.174,232.275,70.174z"/>
																</g>
															</g>
														</g>
													</g>
												</g>
											</g>
										</g>
									</g>
								</g>
								<g>
									<g>
										<g>
											<g>
												<g>
													<g>
														<g>
															<g>
																<g>
																	<g>
																		<path style="fill:#FF9A6C;" d="M250.148,66.072c0,0-4.97,0.205-10.203-3.211c0,0,2.401,5.772,10.273,5.2
																			L250.148,66.072z"/>
																	</g>
																</g>
															</g>
														</g>
													</g>
												</g>
											</g>
										</g>
									</g>
								</g>
								<g>
									<g>
										<g>
											<g>
												<g>
													<g>
														<g>
															<g>
																<g>
																	<g>
																		<g>
																			<g>
																				<g>
																					<g>
																						<g>
																							<g>
																								<path style="fill:#263238;" d="M254.831,45.372c0.011,0.595-0.484,1.094-1.104,1.116
																									c-0.619,0.022-1.131-0.44-1.142-1.035c-0.011-0.594,0.484-1.094,1.103-1.117
																									C254.308,44.315,254.82,44.778,254.831,45.372z"/>
																							</g>
																						</g>
																					</g>
																				</g>
																			</g>
																		</g>
																	</g>
																</g>
															</g>
														</g>
													</g>
												</g>
											</g>
										</g>
									</g>
								</g>
								<g>
									<g>
										<g>
											<g>
												<g>
													<g>
														<g>
															<g>
																<g>
																	<g>
																		<g>
																			<g>
																				<g>
																					<g>
																						<g>
																							<g>
																								<g>
																									<path style="fill:#263238;" d="M255.548,42.562c-0.142,0.144-0.983-0.501-2.194-0.519
																										c-1.209-0.035-2.108,0.572-2.237,0.422c-0.063-0.067,0.083-0.329,0.475-0.604
																										c0.386-0.274,1.04-0.535,1.794-0.519c0.754,0.017,1.383,0.306,1.743,0.596
																										C255.496,42.23,255.618,42.497,255.548,42.562z"/>
																								</g>
																							</g>
																						</g>
																					</g>
																				</g>
																			</g>
																		</g>
																	</g>
																</g>
															</g>
														</g>
													</g>
												</g>
											</g>
										</g>
									</g>
								</g>
								<g>
									<g>
										<g>
											<g>
												<g>
													<g>
														<g>
															<g>
																<g>
																	<g>
																		<g>
																			<g>
																				<g>
																					<g>
																						<g>
																							<g>
																								<g>
																									<path style="fill:#263238;" d="M244.484,45.558c-0.142,0.144-0.985-0.501-2.194-0.519
																										c-1.209-0.035-2.108,0.572-2.237,0.422c-0.063-0.067,0.082-0.329,0.475-0.604
																										c0.385-0.274,1.04-0.535,1.794-0.519c0.754,0.017,1.383,0.306,1.743,0.597
																										C244.431,45.226,244.553,45.493,244.484,45.558z"/>
																								</g>
																							</g>
																						</g>
																					</g>
																				</g>
																			</g>
																		</g>
																	</g>
																</g>
															</g>
														</g>
													</g>
												</g>
											</g>
										</g>
									</g>
								</g>
								<g>
									<g>
										<g>
											<g>
												<g>
													<g>
														<g>
															<g>
																<g>
																	<g>
																		<g>
																			<g>
																				<g>
																					<g>
																						<g>
																							<g>
																								<path style="fill:#263238;" d="M248.169,52.099c-0.005-0.069,0.75-0.186,1.972-0.32
																									c0.31-0.026,0.603-0.083,0.659-0.293c0.077-0.222-0.047-0.557-0.19-0.92
																									c-0.278-0.753-0.568-1.542-0.873-2.37c-1.211-3.373-2.082-6.145-1.946-6.192
																									c0.136-0.048,1.229,2.648,2.44,6.021c0.291,0.832,0.57,1.625,0.834,2.383
																									c0.111,0.353,0.305,0.755,0.139,1.216c-0.087,0.23-0.317,0.393-0.516,0.443
																									c-0.199,0.057-0.373,0.057-0.526,0.064C248.934,52.176,248.173,52.168,248.169,52.099z"/>
																							</g>
																						</g>
																					</g>
																				</g>
																			</g>
																		</g>
																	</g>
																</g>
															</g>
														</g>
													</g>
												</g>
											</g>
										</g>
									</g>
								</g>
								<g>
									<g>
										<g>
											<g>
												<g>
													<g>
														<g>
															<g>
																<g>
																	<g>
																		<g>
																			<g>
																				<path style="fill:#263238;" d="M244.54,42.334c-0.148,0.317-1.338,0.053-2.768,0.096
																					c-1.431,0.014-2.609,0.325-2.77,0.015c-0.071-0.148,0.156-0.439,0.646-0.715c0.486-0.276,1.242-0.511,2.1-0.529
																					c0.858-0.016,1.623,0.189,2.119,0.445C244.367,41.902,244.605,42.183,244.54,42.334z"/>
																			</g>
																		</g>
																	</g>
																</g>
															</g>
														</g>
													</g>
												</g>
											</g>
										</g>
									</g>
								</g>
								<g>
									<g>
										<g>
											<g>
												<g>
													<g>
														<g>
															<g>
																<g>
																	<g>
																		<g>
																			<g>
																				<path style="fill:#263238;" d="M256.024,38.032c-0.184,0.321-1.192,0.248-2.334,0.483
																					c-1.149,0.2-2.065,0.638-2.348,0.404c-0.127-0.115-0.034-0.417,0.333-0.763c0.36-0.344,1.01-0.702,1.797-0.851
																					c0.788-0.149,1.519-0.053,1.975,0.137C255.91,37.63,256.102,37.878,256.024,38.032z"/>
																			</g>
																		</g>
																	</g>
																</g>
															</g>
														</g>
													</g>
												</g>
											</g>
										</g>
									</g>
								</g>
								<g>
									<g>
										<g>
											<g>
												<g>
													<g>
														<g>
															<g>
																<path style="fill:#FFBF9D;" d="M231.618,46.25c-0.133-0.061-5.385-1.695-5.306,3.693
																	c0.078,5.388,5.472,4.198,5.479,4.044C231.798,53.833,231.618,46.25,231.618,46.25z"/>
															</g>
														</g>
													</g>
												</g>
											</g>
										</g>
									</g>
								</g>
								<g>
									<g>
										<g>
											<g>
												<g>
													<g>
														<g>
															<g>
																<g>
																	<path style="fill:#FF9A6C;" d="M230.025,51.991c-0.024-0.017-0.093,0.067-0.251,0.142
																		c-0.153,0.073-0.419,0.126-0.701,0.025c-0.572-0.201-1.065-1.098-1.105-2.068c-0.021-0.49,0.075-0.959,0.243-1.348
																		c0.159-0.396,0.41-0.675,0.696-0.731c0.284-0.07,0.49,0.098,0.558,0.249c0.074,0.15,0.042,0.258,0.071,0.267
																		c0.015,0.013,0.114-0.092,0.068-0.314c-0.024-0.107-0.089-0.233-0.217-0.335c-0.131-0.103-0.322-0.154-0.521-0.13
																		c-0.415,0.035-0.784,0.422-0.969,0.85c-0.208,0.429-0.327,0.956-0.303,1.507c0.05,1.085,0.621,2.093,1.403,2.307
																		c0.38,0.093,0.695-0.026,0.856-0.155C230.017,52.122,230.044,52.001,230.025,51.991z"/>
																</g>
															</g>
														</g>
													</g>
												</g>
											</g>
										</g>
									</g>
								</g>
								<g>
									<g>
										<g>
											<g>
												<g>
													<g>
														<g>
															<g>
																<path style="fill:#263238;" d="M253.85,29.505c0.861-0.501-1.822-3.264-3.987-4.186
																	c-3.273-1.394-8.239-2.183-11.205-1.267c-3.571,1.103-6.516,2.961-8.244,6.275
																	c-1.729,3.314-2.318,7.142-2.126,10.875c0.059,1.139,0.204,2.324,0.836,3.274c0.78,1.173,2.242,1.89,2.217,3.535
																	c-0.009,0.601,0.176,1.203,0.598,1.631c1.01,1.026,2.193,0.012,2.724-0.988c1.135-2.138,1.208-4.66,1.256-7.08
																	c0.034-1.72,0.063-3.477-0.46-5.116c-0.284-0.892-0.728-1.73-0.962-2.637c-0.235-0.906-0.231-1.941,0.319-2.698
																	c0.09-0.123,0.238-0.28,0.427-0.453c1.494-1.373,3.621-1.823,5.549-1.191c3.059,1.002,8.277,2.484,9.606,1.424
																	c1.912-1.527,2.355-2.503,2.355-2.503L253.85,29.505z"/>
															</g>
														</g>
													</g>
												</g>
											</g>
										</g>
									</g>
								</g>
							</g>
						</g>
					</g>
				</g>
			</g>
			<g>
				<g>
					<path style="fill:#263238;" d="M248.953,55.374c0.021,0.087-0.275,0.262-0.816,0.329c-0.535,0.07-1.311-0.01-2.068-0.369
						c-0.755-0.361-1.308-0.912-1.591-1.372c-0.288-0.462-0.34-0.802-0.259-0.84c0.181-0.094,0.833,0.967,2.154,1.573
						C247.676,55.338,248.912,55.174,248.953,55.374z"/>
				</g>
			</g>
		</g>
		<g>
			<path style="fill:#FFBF9D;" d="M323.96,42.263c0,0-0.207-1.259-0.83-1.259c-0.622,0-1.556,0.34-1.971,1.259
				C320.744,43.182,323.96,42.263,323.96,42.263z"/>
			<path style="fill:#FFBF9D;" d="M308.099,62.307l0.622-9.932l1.971-10.226c0,0,1.556-1.663,2.386-1.277
				c0.83,0.387,0.519,1.753,0.519,1.753s2.178-2.353,3.008-1.812c0.83,0.542,0.519,1.812,0.519,1.812s1.971-2.612,2.904-1.893
				c0.934,0.719,0,1.893,0,1.893s1.236,11.457,0.614,15.55c-0.622,4.093-4.109,5.613-4.109,5.613l-1.655,6.444l-8.126-4.423
				L308.099,62.307z"/>
			<g>
				<polygon style="fill:#135dd0;" points="313.074,49.313 268.933,48.824 268.933,45.291 313.074,44.054 				"/>
				<path style="fill:#135dd0;" d="M359.684,52.813l-62.371-2.635c-0.779-2.119-0.809-4.413-0.046-6.893l61.978-2.733
					C362.099,43.518,362.13,49.763,359.684,52.813z"/>
				<path style="fill:#E0E0E0;" d="M359.075,41.124c0,0-1.88,1.759-1.807,5.59c0.073,3.831,1.96,5.441,1.96,5.441
					s2.046-2.162,1.748-6.001C360.686,42.401,359.075,41.124,359.075,41.124z"/>
				<g>
					<path style="fill:#263238;" d="M356.582,52.813c-0.045,0.039-0.594-0.474-1.212-1.514c-0.612-1.025-1.264-2.645-1.23-4.527
						c0.028-1.843,0.497-3.501,1.094-4.557c0.586-1.068,1.175-1.557,1.214-1.517c0.067,0.055-0.409,0.621-0.884,1.68
						c-0.487,1.051-0.875,2.628-0.904,4.405c-0.033,1.757,0.522,3.305,1.034,4.342C356.208,52.172,356.648,52.763,356.582,52.813z"
						/>
				</g>
				<g>
					<path style="fill:#263238;" d="M359.361,40.694c0.067,0.053-0.391,0.637-0.887,1.699c-0.499,1.052-0.993,2.625-0.95,4.401
						c0.029,1.778,0.582,3.331,1.116,4.364c0.496,1.083,1.13,1.45,1.107,1.505c-0.011,0.028-0.21-0.005-0.495-0.211
						c-0.287-0.203-0.621-0.595-0.933-1.113c-0.64-1.026-1.286-2.653-1.316-4.534c-0.045-1.882,0.54-3.533,1.144-4.58
						C358.751,41.163,359.319,40.654,359.361,40.694z"/>
				</g>
				<path style="fill:#FFFFFF;" d="M360.175,43.894c-0.081-0.199-0.178-0.397-0.332-0.547c-0.154-0.15-0.376-0.245-0.586-0.2
					c-0.209,0.045-0.374,0.224-0.433,0.428s-0.023,0.429,0.067,0.623c0.225,0.451,0.596,0.87,0.584,1.32
					c-0.012,0.45-0.127,0.898-0.089,1.347c0.014,0.164,0.05,0.332,0.145,0.467c0.095,0.135,0.259,0.231,0.422,0.208
					c0.267-0.037,0.399-0.339,0.461-0.601C360.649,45.932,360.565,44.852,360.175,43.894z"/>
				<g>
					<path style="fill:#263238;" d="M297.303,50.401c-0.114,0.066-0.897-1.489-0.852-3.582c0.026-2.094,0.861-3.62,0.973-3.551
						c0.147,0.056-0.432,1.588-0.453,3.56C296.925,48.799,297.451,50.35,297.303,50.401z"/>
				</g>
				<g>
					<path style="fill:#135dd0;" d="M268.842,49.661L268.842,49.661c-0.372,0-0.674-0.302-0.674-0.674v-3.736
						c0-0.372,0.302-0.674,0.674-0.674l0,0c0.372,0,0.674,0.302,0.674,0.674v3.736C269.516,49.359,269.214,49.661,268.842,49.661z"
						/>
					<g>
						<path style="fill:#263238;" d="M268.842,49.661c-0.005-0.043,0.177-0.047,0.361-0.23c0.087-0.091,0.165-0.231,0.165-0.398
							c-0.012-0.232-0.024-0.465-0.036-0.702c-0.018-0.604-0.037-1.222-0.056-1.86c-0.005-0.361-0.01-0.725-0.015-1.098
							c0.035-0.331-0.159-0.52-0.419-0.535c-0.26,0.014-0.454,0.204-0.419,0.535c-0.005,0.373-0.01,0.738-0.015,1.099
							c-0.019,0.638-0.038,1.256-0.056,1.86c-0.012,0.237-0.024,0.47-0.036,0.702c0,0.167,0.078,0.307,0.165,0.398
							C268.665,49.614,268.847,49.618,268.842,49.661c0.009,0.023-0.19,0.112-0.489-0.073c-0.14-0.093-0.291-0.273-0.327-0.53
							c-0.014-0.241-0.028-0.482-0.042-0.727c-0.018-0.605-0.037-1.222-0.056-1.86c-0.005-0.361-0.01-0.725-0.015-1.099
							c-0.019-0.168,0.026-0.518,0.206-0.71c0.17-0.212,0.443-0.347,0.724-0.346c0.28-0.001,0.554,0.134,0.723,0.346
							c0.179,0.192,0.224,0.542,0.205,0.71c-0.005,0.373-0.01,0.738-0.015,1.098c-0.019,0.638-0.038,1.256-0.056,1.86
							c-0.014,0.245-0.028,0.486-0.042,0.727c-0.036,0.257-0.187,0.437-0.327,0.53C269.032,49.773,268.833,49.684,268.842,49.661z"
							/>
					</g>
				</g>
			</g>
			<path style="fill:#FFBF9D;" d="M276.506,57.056c0,0-0.938-11.59-0.66-12.607c0.319-1.164,3.478-4.596,4.596-4.72
				c1.118-0.124,1.242,1.118,1.242,1.118s1.572-1.079,3.105-1.127c1.631-0.05,1.842,1.386,1.842,1.386s0.91-0.67,2.473-0.389
				c0.658,0.118,1.412,1.287,1.412,1.287s1.638-0.707,2.418,0.024c0.981,0.92,0.967,2.563,0.967,2.563
				c-1.519-0.113-2.898,0.922-2.898,0.922s-0.376,5.022-0.997,7.507c-0.621,2.484-3.077,4.536-3.903,5.822l-0.653,8.572
				l-10.55-5.588L276.506,57.056z"/>
			<g>
				<path style="fill:#FF9A6C;" d="M278.882,45.322c-0.134,0.02-0.178-1.522,0.873-3.005c1.035-1.495,2.498-1.982,2.525-1.849
					c0.073,0.138-1.163,0.784-2.099,2.148C279.22,43.96,279.035,45.343,278.882,45.322z"/>
			</g>
			<g>
				<path style="fill:#FF9A6C;" d="M284.042,45.122c-0.121,0.046-0.424-1.334,0.436-2.75c0.421-0.692,1.049-1.148,1.548-1.317
					c0.501-0.177,0.832-0.136,0.839-0.076c0.039,0.144-1.213,0.401-1.945,1.667C284.165,43.868,284.201,45.125,284.042,45.122z"/>
			</g>
			<g>
				<path style="fill:#FF9A6C;" d="M287.818,44.735c-0.135-0.024,0.091-1.126,1.078-2.015c0.979-0.898,2.097-1.02,2.108-0.883
					c0.039,0.147-0.896,0.469-1.757,1.268C288.37,43.888,287.961,44.788,287.818,44.735z"/>
			</g>
			<g>
				<path style="fill:#FFBF9D;" d="M314.798,59.911c1.763-2.075,0.419-7.636,0.419-7.636s2.489-0.83,3.112-3.319
					c0.622-2.49-0.622-2.904-0.622-2.904c-0.415,0.208-4.253,2.697-6.224,3.734c-1.971,1.037-2.593,11.6-2.593,11.6"/>
				<g>
					<path style="fill:#FF9A6C;" d="M308.89,61.386c-0.036-0.002-0.042-0.496,0.002-1.385c0.045-0.889,0.136-2.176,0.332-3.758
						c0.227-1.577,0.426-3.477,1.235-5.495c0.118-0.248,0.237-0.501,0.424-0.739c0.158-0.239,0.492-0.466,0.71-0.566
						c0.477-0.262,0.96-0.544,1.449-0.836c0.974-0.599,1.98-1.217,3.011-1.85c0.518-0.319,0.995-0.629,1.537-0.937l0.101-0.057
						l0.098,0.043c0.476,0.21,0.695,0.591,0.832,0.973c0.13,0.386,0.147,0.775,0.127,1.144c-0.054,0.733-0.218,1.436-0.548,2.066
						c-0.665,1.256-1.777,2.067-2.913,2.491l0.142-0.257c0.492,2.348,0.544,4.358,0.284,5.733c-0.118,0.691-0.363,1.197-0.544,1.52
						c-0.219,0.306-0.356,0.447-0.37,0.434c-0.02-0.016,0.082-0.186,0.255-0.497c0.137-0.332,0.335-0.824,0.413-1.498
						c0.181-1.334,0.065-3.312-0.459-5.591l-0.042-0.184l0.185-0.073c1.006-0.397,2.046-1.181,2.614-2.302
						c0.286-0.551,0.434-1.212,0.478-1.87c0.057-0.631-0.145-1.383-0.615-1.599l0.198-0.014c-0.468,0.269-0.989,0.605-1.494,0.916
						c-1.029,0.641-2.038,1.264-3.026,1.847c-0.494,0.291-0.984,0.572-1.473,0.835c-0.278,0.137-0.402,0.227-0.56,0.428
						c-0.151,0.184-0.264,0.415-0.374,0.638c-0.786,1.884-1.04,3.798-1.307,5.346c-0.241,1.566-0.388,2.843-0.495,3.724
						C308.988,60.9,308.926,61.388,308.89,61.386z"/>
				</g>
			</g>
		</g>
		<g>
			<path style="fill:#263238;" d="M232.305,152.592c0,0,1.228,50.331,0,56.469c-1.228,6.138-3.274,31.508-3.274,50.331
				s0.79,23.112,0.79,23.112h18.274c0,0,1.262-35.788,6.902-56.488c5.24-19.228,11.271-48.463,11.271-61.148
				c0-12.685,0-17.186,0-17.186h-32.326L232.305,152.592z"/>
			<path style="fill:#263238;" d="M276.498,147.682c0,0,19.17,53.195,20.398,68.744c1.228,15.549,1.29,66.078,1.29,66.078h-18.92
				l-2.528-61.03l-14.561-39.542v-34.25H276.498z"/>
			<g>
				<path style="fill:#455A64;" d="M266.268,176.325c0.035,0.008-0.05,0.524-0.234,1.449c-0.198,1.021-0.453,2.338-0.759,3.92
					c-0.653,3.406-1.52,7.935-2.479,12.94c-0.979,5.054-1.897,9.624-2.63,12.918c-0.366,1.647-0.685,2.976-0.922,3.89
					c-0.245,0.912-0.397,1.412-0.432,1.404c-0.035-0.008,0.051-0.524,0.234-1.449c0.198-1.021,0.453-2.338,0.76-3.92
					c0.652-3.406,1.52-7.935,2.479-12.942c0.978-5.052,1.897-9.621,2.629-12.916c0.366-1.647,0.685-2.976,0.923-3.89
					C266.081,176.816,266.233,176.317,266.268,176.325z"/>
			</g>
		</g>
		<g>
			<path style="fill:#455A64;" d="M283.757,171.172h4.053c0,0,0.929-14.033-1.414-23.49c-2.344-9.457-14.296-50.642-14.296-50.642
				l-13.242-21.884l-7.097-3.187l23.323,78.187L283.757,171.172z"/>
			<path style="opacity:0.3;" d="M269.009,103.239c0,0,12.262,36.328,14.292,45.852c2.03,9.524,3.083,22.081,3.083,22.081h-2.627
				l-9.626-25.36c0,0-10.035-40.327-9.566-40.227C265.033,105.685,269.009,103.239,269.009,103.239z"/>
			<path style="fill:#E0E0E0;" d="M229.503,71.122l1.101-6.961l19.554,8.778v-4.265l8.639,14.414l19.009,54.043
				c0.617,1.665,1.352,7.214,0.245,8.602l-1.554,1.949l-20.599,2.664l-19.539-70.536L229.503,71.122z"/>
			<path style="opacity:0.3;" d="M232.738,176.325c0,0,26.161,2.937,31.522,0.803c5.361-2.133,5.616-7.604,5.616-7.604
				s2.624-18.577,2.441-22.671c-0.208-4.647-1.698-11.276-1.698-11.276l-37.926,37.468L232.738,176.325z"/>
			<path style="fill:#135dd0;" d="M252.443,79.189c0,0,8.941,30.437,8.866,30.664c-0.076,0.227,9.916,31.173,9.916,31.173
				l1.964-9.304l-13.896-46.396l-5.59-6.848L252.443,79.189z"/>
			<path style="fill:#455A64;" d="M223.694,73.962c-9.173,5.586-9.649,14.263-5.567,24.197c0.677,1.648,1.977,4.485,2.881,6.405
				c3.947,8.388,12.137,22.077,12.136,25.281c-0.002,7.533-6.749,42.506-6.749,42.506s36.574,4.441,39.874,0.987
				c3.3-3.454,5.841-25,4.78-34.642c-1.171-10.638-6.651-28.631-8.872-35.292c-1.336-4.007-5.75-13.987-11.013-20.528
				c-3.936-4.892-8.623-9.127-13.875-12.568l-7.785-5.101l-1.606,5.401C227.898,70.606,225.756,72.706,223.694,73.962z"/>
			<path style="fill:#455A64;" d="M259.293,76.389c0.754-0.041,34.184,10.924,32.252,10.116l0.892-0.931l12.047-18.16l10.974,6.507
				c0,0-10.888,20.804-12.686,24.064c-1.611,2.92-4.723,5.261-8.87,5.254c-2.451-0.004-23.388-3.504-23.388-3.504L259.293,76.389z"
				/>
			<polygon style="fill:#E0E0E0;" points="272.74,63.893 275.328,59.313 286.972,65.936 285.157,70.979 			"/>
			<path style="opacity:0.3;" d="M221.526,98.513c0,0,22.495,12.531,29.624,14.182c7.129,1.651,15.117,3.936,15.117,3.936
				l-3.208-10.218L243.533,94.54L221.526,98.513z"/>
			<g>
				<path style="fill:#455A64;" d="M221.526,98.513c-0.277-0.211,33.717,11.879,40.642,9.7c6.925-2.179,9.175-9.048,11.651-13.273
					c4.533-7.734,12.565-23.105,12.565-23.105l-14.42-8.229L257.64,87.572c0,0-25.307-10.433-27.639-11.114
					s-9.538-1.614-13.064,6.808C213.03,92.599,221.526,98.513,221.526,98.513z"/>
				<g>
					<path style="fill:#263238;" d="M221.526,98.513c0.014,0.006-0.098-0.046-0.255-0.167c-0.163-0.119-0.402-0.301-0.699-0.563
						c-0.593-0.52-1.451-1.334-2.348-2.571c-0.885-1.232-1.825-2.92-2.235-5.1c-0.141-0.537-0.135-1.115-0.188-1.705
						c-0.035-0.591,0.053-1.203,0.079-1.834c0.139-0.615,0.215-1.268,0.419-1.905c0.24-0.623,0.387-1.306,0.721-1.93
						c0.546-1.3,1.37-2.568,2.421-3.718c1.063-1.142,2.459-2.089,4.077-2.627c1.612-0.553,3.427-0.676,5.231-0.404
						c0.906,0.118,1.811,0.424,2.67,0.763c0.869,0.334,1.751,0.674,2.647,1.018c7.139,2.812,15.089,6.06,23.666,9.575l-0.302,0.1
						c4.429-7.42,9.268-15.527,14.311-23.975l0.131-0.219l0.221,0.126c1.645,0.939,3.409,1.945,5.184,2.958
						c3.163,1.806,6.286,3.589,9.235,5.272l0.217,0.124l-0.116,0.221c-2.833,5.397-5.622,10.622-8.365,15.62
						c-1.374,2.498-2.734,4.939-4.113,7.301c-1.362,2.341-2.442,4.808-3.889,6.999c-1.406,2.205-3.216,4.134-5.387,5.384
						c-1.103,0.588-2.202,1.125-3.438,1.334c-1.215,0.161-2.399,0.083-3.549-0.022c-4.598-0.509-8.743-1.591-12.507-2.561
						c-7.513-2.015-13.452-3.974-17.54-5.325C223.743,99.322,221.526,98.513,221.526,98.513c-0.003-0.019,0.147,0.019,0.422,0.1
						c0.296,0.092,0.702,0.219,1.225,0.382c1.097,0.352,2.679,0.859,4.712,1.511c4.104,1.294,10.057,3.201,17.569,5.168
						c3.758,0.946,7.91,2.004,12.457,2.488c1.133,0.1,2.303,0.168,3.449,0.01c1.115-0.188,2.233-0.726,3.279-1.292
						c2.092-1.215,3.842-3.084,5.219-5.256c1.417-2.158,2.482-4.607,3.86-6.991c1.37-2.358,2.725-4.8,4.093-7.298
						c2.732-4.998,5.515-10.226,8.343-15.621l0.101,0.344c-2.949-1.682-6.072-3.464-9.236-5.269
						c-1.776-1.014-3.539-2.02-5.184-2.959l0.352-0.092c-5.053,8.443-9.901,16.544-14.338,23.959l-0.108,0.181l-0.194-0.08
						c-8.567-3.532-16.509-6.804-23.631-9.643c-0.892-0.348-1.771-0.69-2.636-1.027c-0.868-0.346-1.707-0.634-2.589-0.755
						c-1.745-0.271-3.503-0.161-5.058,0.364c-1.562,0.511-2.912,1.413-3.951,2.514c-1.027,1.11-1.842,2.339-2.388,3.614
						c-0.335,0.611-0.481,1.277-0.722,1.886c-0.205,0.622-0.283,1.259-0.426,1.86c-0.03,0.616-0.122,1.213-0.094,1.792
						c0.047,0.577,0.034,1.143,0.167,1.67c0.378,2.138,1.28,3.815,2.136,5.048c0.867,1.238,1.7,2.065,2.272,2.602
						c0.286,0.27,0.516,0.462,0.669,0.591C221.402,98.404,221.466,98.46,221.526,98.513z"/>
				</g>
			</g>
			<g>
				<polygon style="fill:#455A64;" points="237.873,149.739 241.023,143.362 263.06,143.749 260.611,150.346 				"/>
				<g>
					<path style="fill:#263238;" d="M237.872,149.739c0.013-0.008,0.178-0.012,0.48-0.012c0.351,0.002,0.783,0.005,1.31,0.008
						c1.191,0.015,2.807,0.035,4.799,0.059c4.067,0.055,9.698,0.137,16.155,0.299l-0.244,0.165c0.743-2.008,1.527-4.126,2.333-6.303
						c0.037-0.1,0.074-0.2,0.11-0.296l0.239,0.351c-8.871-0.157-16.795-0.331-22.035-0.479l0.154-0.094
						c-0.994,1.917-1.796,3.462-2.382,4.592c-0.269,0.509-0.488,0.924-0.664,1.257C237.973,149.575,237.886,149.731,237.872,149.739
						c-0.014,0.008,0.046-0.131,0.172-0.41c0.152-0.331,0.341-0.742,0.573-1.247c0.555-1.179,1.313-2.793,2.254-4.794l0.045-0.095
						l0.11,0.001c5.242,0.037,13.168,0.141,22.038,0.296l0.367,0.007l-0.128,0.345c-0.036,0.096-0.073,0.196-0.11,0.296
						c-0.81,2.175-1.598,4.292-2.346,6.298l-0.064,0.17l-0.181-0.005c-6.586-0.187-12.325-0.408-16.366-0.569
						c-1.959-0.081-3.548-0.147-4.719-0.195c-0.5-0.024-0.91-0.044-1.243-0.06C237.998,149.759,237.859,149.747,237.872,149.739z"/>
				</g>
			</g>
			<g>
				<path style="fill:#263238;" d="M252.585,84.761c-0.072,0.125-5.656-2.943-12.472-6.851c-6.818-3.91-12.286-7.179-12.214-7.304
					c0.072-0.125,5.655,2.942,12.473,6.852C247.187,81.366,252.656,84.636,252.585,84.761z"/>
			</g>
			<g>
				<path style="fill:#263238;" d="M260.205,132.881c-0.009,0.144-5.318-0.08-11.857-0.498c-6.541-0.419-11.834-0.875-11.825-1.018
					s5.317,0.08,11.858,0.499C254.92,132.282,260.214,132.738,260.205,132.881z"/>
			</g>
			<polygon style="fill:#E0E0E0;" points="305.173,67.898 307.386,64.161 316.191,69.301 314.478,73.357 			"/>
			<g>
				<path style="fill:#263238;" d="M293.839,94.193c-0.09,0.095-1.409-1.276-2.148-3.453c-0.758-2.172-0.563-4.064-0.434-4.045
					c0.158-0.003,0.201,1.807,0.926,3.875C292.885,92.645,293.965,94.099,293.839,94.193z"/>
			</g>
			<g>
				<path style="fill:#263238;" d="M272.308,97.759c0.138-0.04,1.066,2.756,2.073,6.244c1.007,3.489,1.711,6.349,1.573,6.389
					c-0.138,0.04-1.066-2.755-2.073-6.245C272.874,100.66,272.17,97.799,272.308,97.759z"/>
			</g>
			<g>
				<path style="fill:#263238;" d="M258.811,95.153c-0.09,0.095-1.336-1.379-1.707-3.656c-0.394-2.274,0.3-4.075,0.416-4.014
					c0.156,0.034-0.278,1.791,0.097,3.927C257.962,93.551,258.947,95.07,258.811,95.153z"/>
			</g>
			<polygon style="opacity:0.3;" points="239.639,149.777 239.25,151.708 262.07,152.352 263.06,143.749 260.611,150.346 			"/>
			<polygon style="fill:#135dd0;" points="249.676,77.15 249.916,77.409 252.443,79.189 253.702,78.479 252.88,75.689 
				250.218,73.694 			"/>
			<g>
				<path style="fill:#263238;" d="M253.082,73.694c0.068-0.011,0.276,0.897,0.564,2.409l0.081,0.426l-0.364-0.255
					c-0.882-0.619-2.02-1.44-3.295-2.38l0.397-0.161c-0.12,0.785-0.247,1.617-0.379,2.481c-0.082,0.517-0.163,1.022-0.241,1.509
					l-0.055,0.344l-0.311-0.153c-1.917-0.94-3.594-1.788-4.784-2.415c-1.19-0.627-1.894-1.034-1.866-1.092
					c0.028-0.058,0.783,0.243,2.013,0.788c1.23,0.545,2.935,1.335,4.861,2.257l-0.365,0.191c0.075-0.488,0.153-0.994,0.233-1.511
					c0.139-0.863,0.273-1.694,0.399-2.478l0.067-0.413l0.331,0.252c1.259,0.96,2.367,1.822,3.208,2.495l-0.283,0.17
					C253.098,74.632,253.014,73.705,253.082,73.694z"/>
			</g>
		</g>
	</g>
</g>
</svg>
