<?xml version="1.0" standalone="no"?>
<!DOCTYPE svg PUBLIC "-//W3C//DTD SVG 20010904//EN"
 "http://www.w3.org/TR/2001/REC-SVG-20010904/DTD/svg10.dtd">
<svg version="1.0" xmlns="http://www.w3.org/2000/svg"
 width="500.000000pt" height="386.000000pt" viewBox="0 0 500.000000 386.000000"
 preserveAspectRatio="xMidYMid meet">

<g transform="translate(0.000000,386.000000) scale(0.100000,-0.100000)"
fill="#135dd0" stroke="none">
<path d="M1900 3143 c-27 -10 -65 -37 -95 -67 -88 -88 -85 -57 -85 -783 l0
-633 660 0 c635 0 661 1 713 20 71 26 141 96 167 167 19 52 20 78 20 683 l0
630 -667 -1 c-582 0 -674 -3 -713 -16z m921 -191 l30 -33 -3 -127 c-3 -119 -4
-127 -23 -127 -18 0 -20 8 -23 83 l-3 82 -299 0 -300 0 0 -59 c0 -64 -17 -93
-40 -66 -8 10 -11 46 -8 119 3 110 14 136 63 157 11 4 145 7 298 6 l279 -2 29
-33z m-296 -232 c10 -11 21 -37 24 -58 l6 -37 260 -5 260 -5 -3 -25 c-8 -79
-56 -306 -66 -312 -6 -4 -98 -8 -204 -8 l-193 0 3 -22 c4 -31 48 -36 73 -8 24
26 71 26 87 0 9 -15 24 -20 53 -20 29 0 44 5 53 20 15 25 58 26 84 3 25 -23
23 -68 -4 -87 -30 -21 -54 -20 -78 4 -12 12 -33 20 -55 20 -22 0 -43 -8 -55
-20 -11 -11 -28 -20 -39 -20 -10 0 -30 9 -44 20 -14 11 -38 20 -55 20 -51 0
-59 20 -91 240 -17 113 -33 219 -36 237 -5 30 -8 32 -53 35 -40 3 -47 6 -50
26 -3 20 0 22 51 22 41 0 58 -5 72 -20z m-260 -74 c84 -35 145 -113 160 -203
22 -138 -106 -283 -250 -283 -106 0 -210 79 -240 183 -35 123 26 249 147 302
43 19 140 19 183 1z m585 -623 c0 -190 -5 -193 -350 -193 -278 0 -307 5 -334
59 -21 39 -23 213 -3 230 20 16 37 -7 37 -51 l0 -38 300 0 300 0 0 48 c0 53
15 78 37 61 9 -8 13 -41 13 -116z"/>
<path d="M2212 2928 c-7 -7 -12 -22 -12 -35 l0 -23 300 0 300 0 0 23 c0 13 -5
28 -12 35 -17 17 -559 17 -576 0z m268 -18 c0 -16 -7 -20 -34 -20 -36 0 -52
12 -41 30 3 6 22 10 41 10 27 0 34 -4 34 -20z m115 0 c0 -10 -12 -16 -37 -18
-33 -3 -38 0 -38 18 0 18 5 21 38 18 25 -2 37 -8 37 -18z"/>
<path d="M2565 2553 c8 -42 35 -222 35 -228 0 -3 86 -5 190 -5 105 0 190 2
190 4 0 6 38 212 44 239 4 16 -12 17 -230 17 l-233 0 4 -27z m330 -8 c0 -19
-8 -20 -144 -23 -148 -3 -176 3 -151 33 11 13 36 15 154 13 133 -3 141 -4 141
-23z m100 0 c0 -15 -8 -21 -29 -23 -33 -4 -51 10 -42 33 9 25 71 16 71 -10z"/>
<path d="M2717 2213 c-12 -11 -8 -23 8 -23 8 0 15 7 15 15 0 16 -12 20 -23 8z"/>
<path d="M2910 2206 c0 -9 7 -16 16 -16 17 0 14 22 -4 28 -7 2 -12 -3 -12 -12z"/>
<path d="M2106 2605 c-78 -28 -136 -110 -136 -195 0 -130 127 -231 252 -200
163 41 211 246 85 357 -58 51 -128 64 -201 38z m94 -47 c0 -6 11 -19 25 -30
32 -25 36 -78 6 -78 -13 0 -21 8 -23 23 -2 17 -10 22 -33 22 -21 0 -31 -5 -33
-18 -5 -25 16 -47 44 -47 60 0 87 -88 40 -134 -12 -13 -26 -31 -29 -40 -4 -9
-13 -16 -22 -16 -9 0 -18 7 -22 16 -3 9 -17 27 -29 40 -33 33 -31 97 3 76 6
-4 13 -17 17 -29 10 -30 52 -31 61 -3 8 26 -11 50 -38 50 -62 0 -92 99 -42
138 14 11 25 24 25 29 0 5 5 14 12 21 12 12 38 -1 38 -20z"/>
<path d="M2200 1945 c0 -34 5 -47 19 -55 12 -6 121 -10 285 -10 297 0 296 0
296 71 l0 39 -300 0 -300 0 0 -45z m349 6 c8 -5 11 -16 8 -25 -5 -12 -20 -16
-57 -16 -37 0 -52 4 -57 16 -8 21 14 34 57 34 19 0 41 -4 49 -9z"/>
<path d="M2389 1506 c-113 -40 -166 -138 -138 -252 17 -68 93 -143 174 -173
77 -29 142 -67 155 -91 11 -21 13 -70 4 -95 -17 -43 -134 -60 -200 -29 -48 23
-67 64 -62 134 l4 56 -42 -9 c-49 -12 -57 -29 -44 -96 10 -56 36 -90 91 -121
40 -22 55 -25 154 -25 94 0 116 3 150 22 76 41 115 105 115 191 0 105 -76 185
-236 248 -124 48 -163 93 -138 159 17 43 134 60 199 29 40 -19 69 -73 63 -119
-4 -33 -3 -33 27 -28 51 8 55 11 55 40 -1 70 -53 136 -129 161 -45 16 -157 14
-202 -2z"/>
<path d="M2908 1513 l-68 -4 0 -349 0 -350 89 0 89 0 4 168 c3 157 5 170 28
211 28 50 50 67 74 58 14 -6 16 -32 16 -222 l0 -215 90 0 90 0 0 231 c0 146
-4 238 -11 251 -13 23 -67 48 -106 48 -55 0 -104 -21 -144 -62 l-39 -40 0 141
c0 140 0 141 -22 139 -13 -1 -53 -3 -90 -5z"/>
<path d="M610 1480 l0 -29 83 -3 82 -3 3 -317 2 -318 105 0 105 0 2 318 3 317
83 3 82 3 0 29 0 30 -275 0 -275 0 0 -30z"/>
<path d="M1352 1327 c-93 -34 -153 -126 -160 -247 -7 -126 27 -204 108 -250
39 -22 57 -25 140 -25 77 0 101 4 129 20 46 27 71 64 78 112 5 36 3 41 -18 46
-36 10 -36 10 -42 -35 -15 -111 -126 -143 -180 -51 -12 21 -19 55 -20 95 l-2
63 134 3 134 3 -5 62 c-11 137 -95 218 -223 216 -22 0 -55 -6 -73 -12z m125
-68 c7 -15 16 -54 19 -88 l7 -61 -63 0 -63 0 6 66 c4 37 14 78 22 91 21 31 55
27 72 -8z"/>
<path d="M1901 1328 c-105 -30 -172 -123 -179 -248 -7 -126 27 -204 108 -250
39 -22 57 -25 140 -25 107 0 148 16 186 73 24 34 41 119 27 133 -5 5 -22 11
-39 15 -29 6 -30 5 -26 -35 11 -116 -87 -194 -163 -128 -33 28 -44 78 -45 200
0 117 13 178 47 212 63 62 133 11 133 -97 l0 -38 41 21 c39 19 41 23 36 56 -9
51 -33 82 -80 104 -46 20 -129 24 -186 7z"/>
<path d="M3585 1331 c-77 -20 -132 -69 -157 -138 -17 -49 -17 -197 1 -247 36
-102 129 -153 268 -144 144 10 213 85 221 242 7 142 -36 235 -127 273 -41 17
-163 26 -206 14z m108 -48 c29 -33 40 -107 35 -245 -5 -140 -16 -183 -51 -194
-48 -15 -77 71 -77 227 0 170 43 267 93 212z"/>
<path d="M4125 1333 c-27 -2 -65 -5 -82 -8 l-33 -6 0 -344 0 -345 90 0 90 0 0
110 0 109 36 -24 c44 -30 118 -34 170 -9 110 52 137 342 43 462 -26 34 -76 61
-112 62 -38 0 -93 -27 -117 -58 l-20 -25 0 42 c0 22 -3 40 -7 39 -5 -1 -30 -3
-58 -5z m162 -100 c13 -29 17 -69 17 -163 0 -140 -16 -200 -53 -200 -41 0 -56
44 -60 174 -3 123 6 182 35 211 25 24 44 18 61 -22z"/>
</g>
</svg>
