<?xml version="1.0" standalone="no"?>
<!DOCTYPE svg PUBLIC "-//W3C//DTD SVG 20010904//EN"
 "http://www.w3.org/TR/2001/REC-SVG-20010904/DTD/svg10.dtd">
<svg version="1.0" xmlns="http://www.w3.org/2000/svg"
 width="198.000000pt" height="173.000000pt" viewBox="0 0 196.000000 173.000000"
 preserveAspectRatio="xMidYMid meet">

<g transform="translate(0.000000,173.000000) scale(0.100000,-0.100000)"
fill="#135dd0" stroke="none">
<path d="M421 1609 c-88 -17 -173 -87 -215 -178 -21 -45 -21 -60 -24 -684 l-3
-638 683 3 c682 3 683 3 724 25 63 34 97 66 129 125 l30 53 3 653 3 652 -643
-1 c-354 -1 -663 -5 -687 -10z m834 -183 c58 -25 66 -47 63 -187 -3 -116 -4
-124 -23 -124 -18 0 -20 8 -23 83 l-3 82 -299 0 -299 0 -3 -62 c-3 -55 -5 -63
-23 -63 -18 0 -20 8 -23 92 -3 112 12 157 60 178 48 21 523 21 573 1z m-265
-254 c13 -11 23 -33 27 -60 l6 -42 258 0 259 0 0 -23 c0 -41 -52 -301 -62
-314 -8 -10 -61 -13 -205 -13 l-194 0 3 -22 c4 -32 50 -36 77 -9 26 26 55 27
81 1 12 -12 33 -20 55 -20 22 0 43 8 55 20 11 11 29 20 40 20 26 0 60 -34 60
-60 0 -26 -34 -60 -60 -60 -11 0 -29 9 -40 20 -27 27 -83 27 -110 0 -25 -25
-55 -25 -80 0 -12 12 -33 20 -53 20 -20 0 -41 7 -50 18 -10 11 -25 88 -47 237
-17 121 -35 230 -40 243 -8 18 -17 22 -55 22 -43 0 -58 14 -38 33 14 14 91 7
113 -11z m-268 -74 c54 -16 132 -88 153 -140 21 -53 22 -142 2 -189 -20 -49
-73 -106 -121 -132 -57 -30 -165 -30 -222 0 -47 25 -101 82 -120 129 -20 48
-17 151 5 199 22 48 97 118 143 132 46 15 113 15 160 1z m596 -603 c4 -113 -3
-151 -33 -181 l-24 -24 -286 0 c-186 0 -293 4 -307 11 -11 6 -26 26 -34 44
-17 43 -19 206 -2 223 19 19 38 -6 38 -49 l0 -39 300 0 300 0 0 48 c0 53 6 64
30 60 12 -3 16 -22 18 -93z"/>
<path d="M682 1378 c-7 -7 -12 -22 -12 -35 l0 -23 300 0 300 0 0 23 c0 13 -5
28 -12 35 -17 17 -559 17 -576 0z m266 -20 c3 -14 -4 -18 -32 -18 -36 0 -52
12 -41 31 11 17 69 6 73 -13z m117 2 c0 -10 -12 -16 -37 -18 -37 -3 -51 12
-31 32 13 13 68 2 68 -14z"/>
<path d="M1035 998 c3 -18 10 -64 15 -103 6 -38 13 -82 16 -97 l6 -28 188 0
188 0 10 48 c6 26 16 76 22 112 6 36 13 73 16 83 5 16 -11 17 -231 17 l-236 0
6 -32z m330 -3 c0 -19 -8 -20 -139 -23 -144 -3 -179 5 -155 35 9 11 42 13 153
11 133 -3 141 -4 141 -23z m89 19 c9 -3 16 -12 16 -19 0 -27 -67 -35 -77 -9
-10 25 26 42 61 28z"/>
<path d="M1184 659 c-10 -17 13 -36 27 -22 12 12 4 33 -11 33 -5 0 -12 -5 -16
-11z"/>
<path d="M1374 659 c-10 -17 13 -36 27 -22 12 12 4 33 -11 33 -5 0 -12 -5 -16
-11z"/>
<path d="M553 1045 c-32 -16 -61 -41 -79 -67 -26 -37 -29 -50 -29 -119 0 -71
2 -80 31 -116 63 -77 139 -106 223 -83 50 13 112 66 136 117 26 55 17 149 -19
202 -34 49 -113 91 -171 91 -24 0 -62 -11 -92 -25z m114 -32 c4 -10 17 -28 30
-40 26 -25 32 -73 8 -73 -9 0 -20 11 -25 25 -7 18 -17 25 -35 25 -49 0 -43
-61 6 -68 64 -9 92 -91 46 -135 -13 -12 -26 -30 -30 -39 -3 -10 -13 -18 -22
-18 -9 0 -19 8 -22 18 -4 9 -17 27 -30 39 -26 25 -32 73 -8 73 9 0 20 -11 25
-25 7 -18 17 -25 35 -25 51 0 43 57 -9 71 -67 18 -89 88 -43 132 13 12 26 30
30 40 3 9 13 17 22 17 9 0 19 -8 22 -17z"/>
<path d="M670 397 c0 -24 5 -48 12 -55 17 -17 559 -17 576 0 7 7 12 31 12 55
l0 43 -300 0 -300 0 0 -43z m355 -17 c0 -11 -13 -16 -49 -18 -50 -3 -74 7 -61
28 11 17 110 9 110 -10z"/>
</g>
</svg>
