<?xml version="1.0" standalone="no"?>
<!DOCTYPE svg PUBLIC "-//W3C//DTD SVG 20010904//EN"
 "http://www.w3.org/TR/2001/REC-SVG-20010904/DTD/svg10.dtd">
<svg version="1.0" xmlns="http://www.w3.org/2000/svg"
 width="910.000000pt" height="274.000000pt" viewBox="0 0 910.000000 274.000000"
 preserveAspectRatio="xMidYMid meet">
<g transform="translate(0.000000,274.000000) scale(0.100000,-0.100000)"
fill="#135dd0" stroke="none" style="margin: 0 50px;">
<path d="M550 2520 c-183 -7 -186 -7 -241 -38 -70 -40 -176 -145 -199 -197
-40 -93 -43 -177 -44 -1195 l-1 -975 1055 1 c951 1 1061 3 1119 18 85 22 154
64 218 134 65 70 103 145 114 225 5 34 12 506 15 1050 l7 987 -929 -2 c-511
-1 -1012 -5 -1114 -8z m1293 -320 l49 -55 -4 -185 c-5 -209 -15 -248 -56 -221
-10 6 -15 41 -18 112 -3 57 -7 114 -10 127 l-4 22 -480 0 -480 0 0 -80 c0 -53
-5 -91 -15 -110 -18 -35 -26 -37 -50 -11 -15 18 -17 38 -13 178 5 228 26 262
167 274 42 4 253 6 470 5 l394 -2 50 -54z m-521 -350 c21 -6 43 -21 50 -33 17
-30 38 -97 38 -124 0 -23 2 -23 148 -24 81 -1 271 -4 422 -8 l275 -6 -3 -40
c-11 -135 -91 -492 -114 -506 -7 -5 -154 -9 -327 -9 l-313 0 6 -27 c15 -59 64
-69 121 -23 51 40 94 40 137 0 27 -26 39 -30 86 -30 46 0 59 4 89 30 46 41 94
41 134 1 52 -52 33 -128 -38 -158 -32 -13 -37 -12 -66 6 -94 61 -154 64 -214
11 -42 -38 -57 -37 -119 1 -29 19 -67 34 -94 37 -91 9 -95 21 -170 512 -5 30
-13 87 -19 125 -6 39 -14 92 -18 118 -7 58 -30 77 -92 77 -48 0 -81 21 -81 51
0 9 6 20 13 22 22 9 111 7 149 -3z m-416 -134 c73 -19 138 -60 188 -119 55
-65 81 -116 102 -202 14 -57 15 -75 5 -123 -34 -156 -148 -289 -285 -335 -57
-19 -181 -22 -223 -6 -128 51 -220 131 -270 237 -23 49 -27 70 -27 157 -1 93
1 105 31 165 54 111 164 204 270 229 58 14 152 12 209 -3z m973 -857 c14 -41
14 -292 0 -344 -22 -81 -69 -108 -213 -124 -124 -14 -569 -14 -694 0 -180 20
-204 50 -210 267 -4 158 -1 187 25 197 30 11 53 -29 53 -91 l0 -54 485 0 485
0 0 64 c0 36 4 76 10 90 14 37 45 34 59 -5z"/>

<path d="M972 2171 c-114 -7 -132 -17 -132 -73 l0 -28 486 0 486 0 -7 38 c-3
20 -13 42 -20 48 -28 21 -531 30 -813 15z m313 -41 c0 -23 -4 -25 -51 -28 -36
-2 -54 1 -64 13 -23 27 5 46 64 43 47 -3 51 -5 51 -28z m186 14 c19 -23 -13
-44 -68 -44 -45 0 -61 15 -49 45 8 21 99 21 117 -1z"/>
<path d="M1430 1578 c0 -12 9 -72 20 -132 10 -60 22 -140 26 -178 5 -52 11
-71 25 -79 11 -5 132 -8 306 -7 l287 3 13 60 c51 230 66 326 54 339 -9 8 -118
12 -371 14 l-360 4 0 -24z m475 -6 c45 -6 50 -10 50 -32 0 -24 -3 -25 -90 -33
-119 -11 -371 -5 -385 9 -15 15 -2 44 24 54 25 10 328 11 401 2z m203 -8 c29
-20 28 -42 -4 -54 -56 -22 -111 0 -97 38 13 35 62 43 101 16z"/>
<path d="M1677 1003 c-14 -13 -6 -33 13 -33 13 0 20 7 20 20 0 19 -20 27 -33
13z"/>
<path d="M1992 994 c2 -11 11 -20 22 -22 13 -3 17 1 14 14 -2 11 -11 20 -22
22 -13 3 -17 -1 -14 -14z"/>
<path d="M745 1651 c-176 -31 -300 -205 -273 -380 25 -158 186 -289 343 -279
74 5 165 45 212 94 19 19 48 64 64 99 108 239 -93 511 -346 466z m91 -79 c6
-13 25 -38 42 -55 44 -46 57 -84 37 -113 -8 -13 -18 -24 -21 -24 -18 0 -44 24
-44 41 0 24 -35 39 -73 32 -23 -5 -27 -10 -27 -39 0 -37 10 -44 85 -60 28 -7
46 -18 62 -43 26 -38 30 -103 10 -136 -29 -49 -89 -124 -102 -129 -10 -3 -29
14 -57 51 -70 91 -86 129 -64 158 18 25 44 13 61 -29 16 -37 42 -51 75 -41 45
14 32 90 -18 100 -61 13 -89 33 -112 80 -20 40 -21 52 -12 84 6 20 27 52 47
71 19 19 35 39 35 45 0 39 58 44 76 7z"/>
<path d="M840 581 c0 -43 5 -65 19 -82 l19 -24 368 -4 c202 -1 400 0 440 4 98
9 114 22 121 103 l6 62 -487 0 -486 0 0 -59z m546 4 c25 -10 35 -20 32 -32
-11 -58 -194 -57 -186 1 6 43 88 59 154 31z"/>
<path d="M5662 1750 c-99 -21 -200 -99 -243 -188 -18 -37 -23 -65 -23 -133 -1
-76 2 -92 29 -144 44 -85 146 -175 243 -215 228 -95 282 -141 282 -240 0 -60
-15 -87 -62 -112 -36 -19 -59 -23 -139 -23 -89 0 -99 2 -144 30 -75 46 -90 80
-88 197 1 70 -2 96 -10 93 -7 -1 -34 -9 -60 -15 -53 -14 -67 -32 -67 -84 0
-80 20 -134 71 -190 77 -84 122 -100 303 -104 162 -4 213 4 281 46 59 36 93
71 128 132 30 51 32 61 32 150 0 114 -20 163 -96 240 -52 53 -175 130 -249
157 -178 64 -260 129 -260 206 0 83 70 127 201 127 93 0 138 -16 177 -61 39
-46 52 -84 52 -147 l0 -55 51 6 c66 8 79 20 79 71 0 86 -70 185 -165 234 -44
22 -64 26 -165 28 -63 2 -134 -1 -158 -6z"/>
<path d="M6443 1753 l-93 -4 0 -559 0 -560 144 0 143 0 5 268 c5 246 7 271 27
314 29 64 82 118 114 118 42 0 47 -42 47 -387 l0 -313 140 0 141 0 -3 380 -3
380 -25 23 c-57 55 -159 71 -256 40 -51 -16 -70 -28 -146 -99 l-38 -35 0 201
c0 120 -4 209 -10 221 -8 15 -20 19 -53 17 -23 -1 -84 -4 -134 -5z"/>
<path d="M2770 1700 l0 -50 135 0 135 0 0 -418 c0 -231 3 -460 6 -510 l7 -92
163 0 164 0 0 428 c0 235 3 464 7 509 l6 82 131 3 131 3 3 48 3 47 -445 0
-446 0 0 -50z"/>
<path d="M3980 1456 c-126 -35 -226 -153 -260 -306 -7 -32 -10 -102 -8 -165 3
-101 6 -116 35 -176 36 -72 86 -125 154 -160 37 -20 63 -24 169 -27 73 -3 145
1 175 7 102 23 177 107 191 214 6 39 4 44 -20 55 -39 18 -66 15 -66 -6 0 -10
-7 -43 -16 -72 -20 -68 -74 -125 -127 -135 -114 -22 -196 92 -197 271 l0 62
215 7 215 7 0 42 c0 158 -68 296 -174 352 -80 43 -195 55 -286 30z m163 -84
c24 -27 37 -67 50 -169 l13 -93 -103 0 -104 0 6 73 c8 87 29 164 52 189 21 23
65 23 86 0z"/>
<path d="M4842 1451 c-71 -21 -162 -79 -195 -125 -71 -99 -91 -171 -91 -321
-1 -114 1 -123 31 -187 38 -80 89 -132 163 -167 102 -48 344 -40 431 15 80 50
151 245 104 284 -8 6 -32 14 -55 17 l-40 6 0 -77 c0 -89 -19 -135 -74 -184
-51 -44 -95 -50 -153 -20 -67 34 -91 86 -106 233 -13 138 1 304 34 383 39 95
133 131 198 76 36 -30 61 -103 61 -176 l0 -48 50 25 c65 33 73 49 58 120 -9
47 -18 62 -55 94 -76 68 -229 89 -361 52z"/>
<path d="M7532 1454 c-97 -27 -166 -79 -215 -164 l-32 -55 0 -190 0 -190 35
-60 c47 -83 88 -118 173 -150 120 -45 308 -36 415 19 106 55 162 184 162 376
0 171 -37 283 -112 342 -67 52 -82 58 -186 73 -118 18 -170 18 -240 -1z m182
-73 c45 -47 56 -112 56 -331 -1 -300 -28 -388 -114 -366 -67 17 -111 260 -87
477 15 131 24 165 56 212 31 44 52 47 89 8z"/>
<path d="M8350 1455 c-63 -8 -118 -14 -122 -14 -5 -1 -8 -248 -8 -551 l0 -550
145 0 145 0 0 176 0 176 28 -18 c153 -101 317 -75 393 61 87 155 91 434 10
593 -38 74 -138 141 -213 142 -51 0 -119 -32 -172 -80 l-45 -42 -3 59 c-4 69
5 66 -158 48z m307 -121 c9 -15 23 -54 30 -88 16 -75 17 -307 2 -393 -27 -152
-115 -178 -155 -46 -22 76 -26 384 -5 455 26 91 91 127 128 72z"/>
</g>
</svg>
